<?xml version="1.0" encoding="UTF-8" standalone="no"?>
<!DOCTYPE svg PUBLIC "-//W3C//DTD SVG 1.1//EN"
 "http://www.w3.org/Graphics/SVG/1.1/DTD/svg11.dtd">
<!-- Generated by graphviz version 2.47.3 (20210619.1520)
 -->
<!-- Title: dependencies Pages: 1 -->
<svg width="1487pt" height="247pt"
 viewBox="0.00 0.00 1487.00 246.80" xmlns="http://www.w3.org/2000/svg" xmlns:xlink="http://www.w3.org/1999/xlink">
<g id="graph0" class="graph" transform="scale(1 1) rotate(0) translate(4 242.8)">
<title>dependencies</title>
<polygon fill="white" stroke="transparent" points="-4,4 -4,-242.8 1483,-242.8 1483,4 -4,4"/>
<text text-anchor="middle" x="739.5" y="-8.2" font-family="sans-serif" font-size="14.00">dependencies</text>
<g id="clust1" class="cluster">
<title>cluster_AppModule</title>
<polygon fill="none" stroke="black" stroke-dasharray="1,5" points="8,-32.8 8,-230.8 1471,-230.8 1471,-32.8 8,-32.8"/>
</g>
<g id="clust4" class="cluster">
<title>cluster_AppModule_imports</title>
<polygon fill="none" stroke="black" points="914,-40.8 914,-92.8 1463,-92.8 1463,-40.8 914,-40.8"/>
</g>
<g id="clust7" class="cluster">
<title>cluster_AppModule_providers</title>
<polygon fill="none" stroke="black" points="146,-40.8 146,-92.8 906,-92.8 906,-40.8 146,-40.8"/>
</g>
<g id="clust6" class="cluster">
<title>cluster_AppModule_bootstrap</title>
<polygon fill="none" stroke="black" points="733,-170.8 733,-222.8 857,-222.8 857,-170.8 733,-170.8"/>
</g>
<g id="clust2" class="cluster">
<title>cluster_AppModule_declarations</title>
<polygon fill="none" stroke="black" points="16,-40.8 16,-92.8 138,-92.8 138,-40.8 16,-40.8"/>
</g>
<!-- AppComponent -->
<g id="node1" class="node">
<title>AppComponent</title>
<polygon fill="#ffffb3" stroke="black" points="129.94,-84.8 24.06,-84.8 24.06,-48.8 129.94,-48.8 129.94,-84.8"/>
<text text-anchor="middle" x="77" y="-62.6" font-family="Times,serif" font-size="14.00">AppComponent</text>
</g>
<!-- AppModule -->
<g id="node2" class="node">
<title>AppModule</title>
<polygon fill="#8dd3c7" stroke="black" points="836.66,-149.8 833.66,-153.8 812.66,-153.8 809.66,-149.8 753.34,-149.8 753.34,-113.8 836.66,-113.8 836.66,-149.8"/>
<text text-anchor="middle" x="795" y="-127.6" font-family="Times,serif" font-size="14.00">AppModule</text>
</g>
<!-- AppComponent&#45;&gt;AppModule -->
<g id="edge1" class="edge">
<title>AppComponent&#45;&gt;AppModule</title>
<path fill="none" stroke="black" d="M77,-84.81C77,-107.29 77,-142.8 77,-142.8 77,-142.8 743.29,-142.8 743.29,-142.8"/>
<polygon fill="black" stroke="black" points="743.29,-146.3 753.29,-142.8 743.29,-139.3 743.29,-146.3"/>
</g>
<!-- AppComponent  -->
<g id="node7" class="node">
<title>AppComponent </title>
<polygon fill="#80b1d3" stroke="black" points="849.44,-214.8 740.56,-214.8 740.56,-178.8 849.44,-178.8 849.44,-214.8"/>
<text text-anchor="middle" x="795" y="-192.6" font-family="Times,serif" font-size="14.00">AppComponent </text>
</g>
<!-- AppModule&#45;&gt;AppComponent  -->
<g id="edge6" class="edge">
<title>AppModule&#45;&gt;AppComponent </title>
<path fill="none" stroke="black" stroke-dasharray="1,5" d="M795,-149.91C795,-149.91 795,-168.79 795,-168.79"/>
<polygon fill="black" stroke="black" points="791.5,-168.79 795,-178.79 798.5,-168.79 791.5,-168.79"/>
</g>
<!-- AppRoutingModule -->
<g id="node3" class="node">
<title>AppRoutingModule</title>
<polygon fill="#8dd3c7" stroke="black" points="1455.27,-84.8 1452.27,-88.8 1431.27,-88.8 1428.27,-84.8 1326.73,-84.8 1326.73,-48.8 1455.27,-48.8 1455.27,-84.8"/>
<text text-anchor="middle" x="1391" y="-62.6" font-family="Times,serif" font-size="14.00">AppRoutingModule</text>
</g>
<!-- AppRoutingModule&#45;&gt;AppModule -->
<g id="edge2" class="edge">
<title>AppRoutingModule&#45;&gt;AppModule</title>
<path fill="none" stroke="black" d="M1391,-84.81C1391,-107.29 1391,-142.8 1391,-142.8 1391,-142.8 846.91,-142.8 846.91,-142.8"/>
<polygon fill="black" stroke="black" points="846.91,-139.3 836.91,-142.8 846.91,-146.3 846.91,-139.3"/>
</g>
<!-- MainMapModule -->
<g id="node4" class="node">
<title>MainMapModule</title>
<polygon fill="#8dd3c7" stroke="black" points="1308.26,-84.8 1305.26,-88.8 1284.26,-88.8 1281.26,-84.8 1193.74,-84.8 1193.74,-48.8 1308.26,-48.8 1308.26,-84.8"/>
<text text-anchor="middle" x="1251" y="-62.6" font-family="Times,serif" font-size="14.00">MainMapModule</text>
</g>
<!-- MainMapModule&#45;&gt;AppModule -->
<g id="edge3" class="edge">
<title>MainMapModule&#45;&gt;AppModule</title>
<path fill="none" stroke="black" d="M1251,-84.93C1251,-105.37 1251,-135.8 1251,-135.8 1251,-135.8 846.68,-135.8 846.68,-135.8"/>
<polygon fill="black" stroke="black" points="846.68,-132.3 836.68,-135.8 846.68,-139.3 846.68,-132.3"/>
</g>
<!-- MainToolbarModule -->
<g id="node5" class="node">
<title>MainToolbarModule</title>
<polygon fill="#8dd3c7" stroke="black" points="1175.92,-84.8 1172.92,-88.8 1151.92,-88.8 1148.92,-84.8 1042.08,-84.8 1042.08,-48.8 1175.92,-48.8 1175.92,-84.8"/>
<text text-anchor="middle" x="1109" y="-62.6" font-family="Times,serif" font-size="14.00">MainToolbarModule</text>
</g>
<!-- MainToolbarModule&#45;&gt;AppModule -->
<g id="edge4" class="edge">
<title>MainToolbarModule&#45;&gt;AppModule</title>
<path fill="none" stroke="black" d="M1109,-85.07C1109,-103.36 1109,-128.8 1109,-128.8 1109,-128.8 846.7,-128.8 846.7,-128.8"/>
<polygon fill="black" stroke="black" points="846.7,-125.3 836.7,-128.8 846.7,-132.3 846.7,-125.3"/>
</g>
<!-- SidebarModule -->
<g id="node6" class="node">
<title>SidebarModule</title>
<polygon fill="#8dd3c7" stroke="black" points="1024.31,-84.8 1021.31,-88.8 1000.31,-88.8 997.31,-84.8 921.69,-84.8 921.69,-48.8 1024.31,-48.8 1024.31,-84.8"/>
<text text-anchor="middle" x="973" y="-62.6" font-family="Times,serif" font-size="14.00">SidebarModule</text>
</g>
<!-- SidebarModule&#45;&gt;AppModule -->
<g id="edge5" class="edge">
<title>SidebarModule&#45;&gt;AppModule</title>
<path fill="none" stroke="black" d="M973,-84.81C973,-100.85 973,-121.8 973,-121.8 973,-121.8 846.73,-121.8 846.73,-121.8"/>
<polygon fill="black" stroke="black" points="846.73,-118.3 836.73,-121.8 846.73,-125.3 846.73,-118.3"/>
</g>
<!-- AppNotificationService -->
<g id="node8" class="node">
<title>AppNotificationService</title>
<ellipse fill="#fdb462" stroke="black" cx="795" cy="-66.8" rx="103.07" ry="18"/>
<text text-anchor="middle" x="795" y="-62.6" font-family="Times,serif" font-size="14.00">AppNotificationService</text>
</g>
<!-- AppNotificationService&#45;&gt;AppModule -->
<g id="edge7" class="edge">
<title>AppNotificationService&#45;&gt;AppModule</title>
<path fill="none" stroke="black" d="M795,-84.91C795,-84.91 795,-103.79 795,-103.79"/>
<polygon fill="black" stroke="black" points="791.5,-103.79 795,-113.79 798.5,-103.79 791.5,-103.79"/>
</g>
<!-- SettingsService -->
<g id="node9" class="node">
<title>SettingsService</title>
<ellipse fill="#fdb462" stroke="black" cx="603" cy="-66.8" rx="71.22" ry="18"/>
<text text-anchor="middle" x="603" y="-62.6" font-family="Times,serif" font-size="14.00">SettingsService</text>
</g>
<!-- SettingsService&#45;&gt;AppModule -->
<g id="edge8" class="edge">
<title>SettingsService&#45;&gt;AppModule</title>
<path fill="none" stroke="black" d="M603,-84.81C603,-100.85 603,-121.8 603,-121.8 603,-121.8 743.34,-121.8 743.34,-121.8"/>
<polygon fill="black" stroke="black" points="743.34,-125.3 753.34,-121.8 743.34,-118.3 743.34,-125.3"/>
</g>
<!-- StopPointService -->
<g id="node10" class="node">
<title>StopPointService</title>
<ellipse fill="#fdb462" stroke="black" cx="436" cy="-66.8" rx="78.19" ry="18"/>
<text text-anchor="middle" x="436" y="-62.6" font-family="Times,serif" font-size="14.00">StopPointService</text>
</g>
<!-- StopPointService&#45;&gt;AppModule -->
<g id="edge9" class="edge">
<title>StopPointService&#45;&gt;AppModule</title>
<path fill="none" stroke="black" d="M436,-85.07C436,-103.36 436,-128.8 436,-128.8 436,-128.8 743.12,-128.8 743.12,-128.8"/>
<polygon fill="black" stroke="black" points="743.12,-132.3 753.12,-128.8 743.12,-125.3 743.12,-132.3"/>
</g>
<!-- UserLocationService -->
<g id="node11" class="node">
<title>UserLocationService</title>
<ellipse fill="#fdb462" stroke="black" cx="247" cy="-66.8" rx="92.59" ry="18"/>
<text text-anchor="middle" x="247" y="-62.6" font-family="Times,serif" font-size="14.00">UserLocationService</text>
</g>
<!-- UserLocationService&#45;&gt;AppModule -->
<g id="edge10" class="edge">
<title>UserLocationService&#45;&gt;AppModule</title>
<path fill="none" stroke="black" d="M247,-84.93C247,-105.37 247,-135.8 247,-135.8 247,-135.8 742.91,-135.8 742.91,-135.8"/>
<polygon fill="black" stroke="black" points="742.91,-139.3 752.91,-135.8 742.91,-132.3 742.91,-139.3"/>
</g>
</g>
</svg>
