<?xml version="1.0" encoding="UTF-8" standalone="no"?>
<!DOCTYPE svg PUBLIC "-//W3C//DTD SVG 1.1//EN"
 "http://www.w3.org/Graphics/SVG/1.1/DTD/svg11.dtd">
<!-- Generated by graphviz version 2.47.3 (20210619.1520)
 -->
<!-- Title: dependencies Pages: 1 -->
<svg width="1487pt" height="247pt"
 viewBox="0.00 0.00 1487.00 246.80" xmlns="http://www.w3.org/2000/svg" xmlns:xlink="http://www.w3.org/1999/xlink">
<g id="graph0" class="graph" transform="scale(1 1) rotate(0) translate(4 242.8)">
<title>dependencies</title>
<polygon fill="white" stroke="transparent" points="-4,4 -4,-242.8 1483,-242.8 1483,4 -4,4"/>
<text text-anchor="middle" x="739.5" y="-8.2" font-family="sans-serif" font-size="14.00">dependencies</text>
<g id="clust1" class="cluster">
<title>cluster_AppModule</title>
<polygon fill="none" stroke="black" stroke-dasharray="1,5" points="8,-32.8 8,-230.8 1471,-230.8 1471,-32.8 8,-32.8"/>
</g>
<g id="clust2" class="cluster">
<title>cluster_AppModule_declarations</title>
<polygon fill="none" stroke="black" points="1341,-40.8 1341,-92.8 1463,-92.8 1463,-40.8 1341,-40.8"/>
</g>
<g id="clust4" class="cluster">
<title>cluster_AppModule_imports</title>
<polygon fill="none" stroke="black" points="784,-40.8 784,-92.8 1333,-92.8 1333,-40.8 784,-40.8"/>
</g>
<g id="clust6" class="cluster">
<title>cluster_AppModule_bootstrap</title>
<polygon fill="none" stroke="black" points="781,-170.8 781,-222.8 905,-222.8 905,-170.8 781,-170.8"/>
</g>
<g id="clust7" class="cluster">
<title>cluster_AppModule_providers</title>
<polygon fill="none" stroke="black" points="16,-40.8 16,-92.8 776,-92.8 776,-40.8 16,-40.8"/>
</g>
<!-- AppComponent -->
<g id="node1" class="node">
<title>AppComponent</title>
<polygon fill="#ffffb3" stroke="black" points="1454.94,-84.8 1349.06,-84.8 1349.06,-48.8 1454.94,-48.8 1454.94,-84.8"/>
<text text-anchor="middle" x="1402" y="-62.6" font-family="Times,serif" font-size="14.00">AppComponent</text>
</g>
<!-- AppModule -->
<g id="node2" class="node">
<title>AppModule</title>
<polygon fill="#8dd3c7" stroke="black" points="884.66,-149.8 881.66,-153.8 860.66,-153.8 857.66,-149.8 801.34,-149.8 801.34,-113.8 884.66,-113.8 884.66,-149.8"/>
<text text-anchor="middle" x="843" y="-127.6" font-family="Times,serif" font-size="14.00">AppModule</text>
</g>
<!-- AppComponent&#45;&gt;AppModule -->
<g id="edge1" class="edge">
<title>AppComponent&#45;&gt;AppModule</title>
<path fill="none" stroke="black" d="M1402,-84.81C1402,-107.29 1402,-142.8 1402,-142.8 1402,-142.8 895.02,-142.8 895.02,-142.8"/>
<polygon fill="black" stroke="black" points="895.02,-139.3 885.02,-142.8 895.02,-146.3 895.02,-139.3"/>
</g>
<!-- AppComponent  -->
<g id="node7" class="node">
<title>AppComponent </title>
<polygon fill="#80b1d3" stroke="black" points="897.44,-214.8 788.56,-214.8 788.56,-178.8 897.44,-178.8 897.44,-214.8"/>
<text text-anchor="middle" x="843" y="-192.6" font-family="Times,serif" font-size="14.00">AppComponent </text>
</g>
<!-- AppModule&#45;&gt;AppComponent  -->
<g id="edge6" class="edge">
<title>AppModule&#45;&gt;AppComponent </title>
<path fill="none" stroke="black" stroke-dasharray="1,5" d="M843,-149.91C843,-149.91 843,-168.79 843,-168.79"/>
<polygon fill="black" stroke="black" points="839.5,-168.79 843,-178.79 846.5,-168.79 839.5,-168.79"/>
</g>
<!-- AppRoutingModule -->
<g id="node3" class="node">
<title>AppRoutingModule</title>
<polygon fill="#8dd3c7" stroke="black" points="1325.27,-84.8 1322.27,-88.8 1301.27,-88.8 1298.27,-84.8 1196.73,-84.8 1196.73,-48.8 1325.27,-48.8 1325.27,-84.8"/>
<text text-anchor="middle" x="1261" y="-62.6" font-family="Times,serif" font-size="14.00">AppRoutingModule</text>
</g>
<!-- AppRoutingModule&#45;&gt;AppModule -->
<g id="edge2" class="edge">
<title>AppRoutingModule&#45;&gt;AppModule</title>
<path fill="none" stroke="black" d="M1261,-84.93C1261,-105.37 1261,-135.8 1261,-135.8 1261,-135.8 894.99,-135.8 894.99,-135.8"/>
<polygon fill="black" stroke="black" points="894.99,-132.3 884.99,-135.8 894.99,-139.3 894.99,-132.3"/>
</g>
<!-- MainMapModule -->
<g id="node4" class="node">
<title>MainMapModule</title>
<polygon fill="#8dd3c7" stroke="black" points="1178.26,-84.8 1175.26,-88.8 1154.26,-88.8 1151.26,-84.8 1063.74,-84.8 1063.74,-48.8 1178.26,-48.8 1178.26,-84.8"/>
<text text-anchor="middle" x="1121" y="-62.6" font-family="Times,serif" font-size="14.00">MainMapModule</text>
</g>
<!-- MainMapModule&#45;&gt;AppModule -->
<g id="edge3" class="edge">
<title>MainMapModule&#45;&gt;AppModule</title>
<path fill="none" stroke="black" d="M1121,-85.07C1121,-103.36 1121,-128.8 1121,-128.8 1121,-128.8 894.92,-128.8 894.92,-128.8"/>
<polygon fill="black" stroke="black" points="894.92,-125.3 884.92,-128.8 894.92,-132.3 894.92,-125.3"/>
</g>
<!-- MainToolbarModule -->
<g id="node5" class="node">
<title>MainToolbarModule</title>
<polygon fill="#8dd3c7" stroke="black" points="1045.92,-84.8 1042.92,-88.8 1021.92,-88.8 1018.92,-84.8 912.08,-84.8 912.08,-48.8 1045.92,-48.8 1045.92,-84.8"/>
<text text-anchor="middle" x="979" y="-62.6" font-family="Times,serif" font-size="14.00">MainToolbarModule</text>
</g>
<!-- MainToolbarModule&#45;&gt;AppModule -->
<g id="edge4" class="edge">
<title>MainToolbarModule&#45;&gt;AppModule</title>
<path fill="none" stroke="black" d="M979,-84.81C979,-100.85 979,-121.8 979,-121.8 979,-121.8 894.91,-121.8 894.91,-121.8"/>
<polygon fill="black" stroke="black" points="894.91,-118.3 884.91,-121.8 894.91,-125.3 894.91,-118.3"/>
</g>
<!-- SidebarModule -->
<g id="node6" class="node">
<title>SidebarModule</title>
<polygon fill="#8dd3c7" stroke="black" points="894.31,-84.8 891.31,-88.8 870.31,-88.8 867.31,-84.8 791.69,-84.8 791.69,-48.8 894.31,-48.8 894.31,-84.8"/>
<text text-anchor="middle" x="843" y="-62.6" font-family="Times,serif" font-size="14.00">SidebarModule</text>
</g>
<!-- SidebarModule&#45;&gt;AppModule -->
<g id="edge5" class="edge">
<title>SidebarModule&#45;&gt;AppModule</title>
<path fill="none" stroke="black" d="M843,-84.91C843,-84.91 843,-103.79 843,-103.79"/>
<polygon fill="black" stroke="black" points="839.5,-103.79 843,-113.79 846.5,-103.79 839.5,-103.79"/>
</g>
<!-- AppNotificationService -->
<g id="node8" class="node">
<title>AppNotificationService</title>
<ellipse fill="#fdb462" stroke="black" cx="665" cy="-66.8" rx="103.07" ry="18"/>
<text text-anchor="middle" x="665" y="-62.6" font-family="Times,serif" font-size="14.00">AppNotificationService</text>
</g>
<!-- AppNotificationService&#45;&gt;AppModule -->
<g id="edge7" class="edge">
<title>AppNotificationService&#45;&gt;AppModule</title>
<path fill="none" stroke="black" d="M665,-84.81C665,-100.85 665,-121.8 665,-121.8 665,-121.8 791.27,-121.8 791.27,-121.8"/>
<polygon fill="black" stroke="black" points="791.27,-125.3 801.27,-121.8 791.27,-118.3 791.27,-125.3"/>
</g>
<!-- SettingsService -->
<g id="node9" class="node">
<title>SettingsService</title>
<ellipse fill="#fdb462" stroke="black" cx="473" cy="-66.8" rx="71.22" ry="18"/>
<text text-anchor="middle" x="473" y="-62.6" font-family="Times,serif" font-size="14.00">SettingsService</text>
</g>
<!-- SettingsService&#45;&gt;AppModule -->
<g id="edge8" class="edge">
<title>SettingsService&#45;&gt;AppModule</title>
<path fill="none" stroke="black" d="M473,-85.07C473,-103.36 473,-128.8 473,-128.8 473,-128.8 791.28,-128.8 791.28,-128.8"/>
<polygon fill="black" stroke="black" points="791.28,-132.3 801.28,-128.8 791.28,-125.3 791.28,-132.3"/>
</g>
<!-- StopPointService -->
<g id="node10" class="node">
<title>StopPointService</title>
<ellipse fill="#fdb462" stroke="black" cx="306" cy="-66.8" rx="78.19" ry="18"/>
<text text-anchor="middle" x="306" y="-62.6" font-family="Times,serif" font-size="14.00">StopPointService</text>
</g>
<!-- StopPointService&#45;&gt;AppModule -->
<g id="edge9" class="edge">
<title>StopPointService&#45;&gt;AppModule</title>
<path fill="none" stroke="black" d="M306,-84.93C306,-105.37 306,-135.8 306,-135.8 306,-135.8 791.31,-135.8 791.31,-135.8"/>
<polygon fill="black" stroke="black" points="791.31,-139.3 801.31,-135.8 791.31,-132.3 791.31,-139.3"/>
</g>
<!-- UserLocationService -->
<g id="node11" class="node">
<title>UserLocationService</title>
<ellipse fill="#fdb462" stroke="black" cx="117" cy="-66.8" rx="92.59" ry="18"/>
<text text-anchor="middle" x="117" y="-62.6" font-family="Times,serif" font-size="14.00">UserLocationService</text>
</g>
<!-- UserLocationService&#45;&gt;AppModule -->
<g id="edge10" class="edge">
<title>UserLocationService&#45;&gt;AppModule</title>
<path fill="none" stroke="black" d="M117,-84.81C117,-107.29 117,-142.8 117,-142.8 117,-142.8 791.09,-142.8 791.09,-142.8"/>
<polygon fill="black" stroke="black" points="791.09,-146.3 801.09,-142.8 791.09,-139.3 791.09,-146.3"/>
</g>
</g>
</svg>
