<?xml version="1.0" encoding="UTF-8" standalone="no"?>
<!DOCTYPE svg PUBLIC "-//W3C//DTD SVG 1.1//EN"
 "http://www.w3.org/Graphics/SVG/1.1/DTD/svg11.dtd">
<!-- Generated by graphviz version 5.0.0 (20220707.1540)
 -->
<!-- Title: dependencies Pages: 1 -->
<svg width="1487pt" height="247pt"
 viewBox="0.00 0.00 1487.00 246.80" xmlns="http://www.w3.org/2000/svg" xmlns:xlink="http://www.w3.org/1999/xlink">
<g id="graph0" class="graph" transform="scale(1 1) rotate(0) translate(4 242.8)">
<title>dependencies</title>
<polygon fill="white" stroke="transparent" points="-4,4 -4,-242.8 1483,-242.8 1483,4 -4,4"/>
<text text-anchor="middle" x="739.5" y="-8.2" font-family="sans-serif" font-size="14.00">dependencies</text>
<g id="clust1" class="cluster">
<title>cluster_AppModule</title>
<polygon fill="none" stroke="black" stroke-dasharray="1,5" points="8,-32.8 8,-230.8 1471,-230.8 1471,-32.8 8,-32.8"/>
</g>
<g id="clust7" class="cluster">
<title>cluster_AppModule_providers</title>
<polygon fill="none" stroke="black" points="703,-40.8 703,-92.8 1463,-92.8 1463,-40.8 703,-40.8"/>
</g>
<g id="clust4" class="cluster">
<title>cluster_AppModule_imports</title>
<polygon fill="none" stroke="black" points="146,-40.8 146,-92.8 695,-92.8 695,-40.8 146,-40.8"/>
</g>
<g id="clust2" class="cluster">
<title>cluster_AppModule_declarations</title>
<polygon fill="none" stroke="black" points="16,-40.8 16,-92.8 138,-92.8 138,-40.8 16,-40.8"/>
</g>
<g id="clust6" class="cluster">
<title>cluster_AppModule_bootstrap</title>
<polygon fill="none" stroke="black" points="561,-170.8 561,-222.8 685,-222.8 685,-170.8 561,-170.8"/>
</g>
<!-- AppComponent -->
<g id="node1" class="node">
<title>AppComponent</title>
<polygon fill="#ffffb3" stroke="black" points="129.94,-84.8 24.06,-84.8 24.06,-48.8 129.94,-48.8 129.94,-84.8"/>
<text text-anchor="middle" x="77" y="-62.6" font-family="Times,serif" font-size="14.00">AppComponent</text>
</g>
<!-- AppModule -->
<g id="node2" class="node">
<title>AppModule</title>
<polygon fill="#8dd3c7" stroke="black" points="664.66,-149.8 661.66,-153.8 640.66,-153.8 637.66,-149.8 581.34,-149.8 581.34,-113.8 664.66,-113.8 664.66,-149.8"/>
<text text-anchor="middle" x="623" y="-127.6" font-family="Times,serif" font-size="14.00">AppModule</text>
</g>
<!-- AppComponent&#45;&gt;AppModule -->
<g id="edge1" class="edge">
<title>AppComponent&#45;&gt;AppModule</title>
<path fill="none" stroke="black" d="M77,-84.81C77,-107.29 77,-142.8 77,-142.8 77,-142.8 571.06,-142.8 571.06,-142.8"/>
<polygon fill="black" stroke="black" points="571.06,-146.3 581.06,-142.8 571.06,-139.3 571.06,-146.3"/>
</g>
<!-- AppComponent  -->
<g id="node7" class="node">
<title>AppComponent </title>
<polygon fill="#80b1d3" stroke="black" points="677.44,-214.8 568.56,-214.8 568.56,-178.8 677.44,-178.8 677.44,-214.8"/>
<text text-anchor="middle" x="623" y="-192.6" font-family="Times,serif" font-size="14.00">AppComponent </text>
</g>
<!-- AppModule&#45;&gt;AppComponent  -->
<g id="edge6" class="edge">
<title>AppModule&#45;&gt;AppComponent </title>
<path fill="none" stroke="black" stroke-dasharray="1,5" d="M623,-149.91C623,-149.91 623,-168.79 623,-168.79"/>
<polygon fill="black" stroke="black" points="619.5,-168.79 623,-178.79 626.5,-168.79 619.5,-168.79"/>
</g>
<!-- AppRoutingModule -->
<g id="node3" class="node">
<title>AppRoutingModule</title>
<polygon fill="#8dd3c7" stroke="black" points="687.28,-84.8 684.28,-88.8 663.28,-88.8 660.28,-84.8 558.72,-84.8 558.72,-48.8 687.28,-48.8 687.28,-84.8"/>
<text text-anchor="middle" x="623" y="-62.6" font-family="Times,serif" font-size="14.00">AppRoutingModule</text>
</g>
<!-- AppRoutingModule&#45;&gt;AppModule -->
<g id="edge2" class="edge">
<title>AppRoutingModule&#45;&gt;AppModule</title>
<path fill="none" stroke="black" d="M623,-84.91C623,-84.91 623,-103.79 623,-103.79"/>
<polygon fill="black" stroke="black" points="619.5,-103.79 623,-113.79 626.5,-103.79 619.5,-103.79"/>
</g>
<!-- MainMapModule -->
<g id="node4" class="node">
<title>MainMapModule</title>
<polygon fill="#8dd3c7" stroke="black" points="540.27,-84.8 537.27,-88.8 516.27,-88.8 513.27,-84.8 425.73,-84.8 425.73,-48.8 540.27,-48.8 540.27,-84.8"/>
<text text-anchor="middle" x="483" y="-62.6" font-family="Times,serif" font-size="14.00">MainMapModule</text>
</g>
<!-- MainMapModule&#45;&gt;AppModule -->
<g id="edge3" class="edge">
<title>MainMapModule&#45;&gt;AppModule</title>
<path fill="none" stroke="black" d="M483,-84.81C483,-100.85 483,-121.8 483,-121.8 483,-121.8 571,-121.8 571,-121.8"/>
<polygon fill="black" stroke="black" points="571,-125.3 581,-121.8 571,-118.3 571,-125.3"/>
</g>
<!-- MainToolbarModule -->
<g id="node5" class="node">
<title>MainToolbarModule</title>
<polygon fill="#8dd3c7" stroke="black" points="407.92,-84.8 404.92,-88.8 383.92,-88.8 380.92,-84.8 274.08,-84.8 274.08,-48.8 407.92,-48.8 407.92,-84.8"/>
<text text-anchor="middle" x="341" y="-62.6" font-family="Times,serif" font-size="14.00">MainToolbarModule</text>
</g>
<!-- MainToolbarModule&#45;&gt;AppModule -->
<g id="edge4" class="edge">
<title>MainToolbarModule&#45;&gt;AppModule</title>
<path fill="none" stroke="black" d="M341,-85.07C341,-103.36 341,-128.8 341,-128.8 341,-128.8 571.09,-128.8 571.09,-128.8"/>
<polygon fill="black" stroke="black" points="571.09,-132.3 581.09,-128.8 571.09,-125.3 571.09,-132.3"/>
</g>
<!-- SidebarModule -->
<g id="node6" class="node">
<title>SidebarModule</title>
<polygon fill="#8dd3c7" stroke="black" points="256.32,-84.8 253.32,-88.8 232.32,-88.8 229.32,-84.8 153.68,-84.8 153.68,-48.8 256.32,-48.8 256.32,-84.8"/>
<text text-anchor="middle" x="205" y="-62.6" font-family="Times,serif" font-size="14.00">SidebarModule</text>
</g>
<!-- SidebarModule&#45;&gt;AppModule -->
<g id="edge5" class="edge">
<title>SidebarModule&#45;&gt;AppModule</title>
<path fill="none" stroke="black" d="M205,-84.93C205,-105.37 205,-135.8 205,-135.8 205,-135.8 571.01,-135.8 571.01,-135.8"/>
<polygon fill="black" stroke="black" points="571.01,-139.3 581.01,-135.8 571.01,-132.3 571.01,-139.3"/>
</g>
<!-- AppNotificationService -->
<g id="node8" class="node">
<title>AppNotificationService</title>
<ellipse fill="#fdb462" stroke="black" cx="1352" cy="-66.8" rx="103.07" ry="18"/>
<text text-anchor="middle" x="1352" y="-62.6" font-family="Times,serif" font-size="14.00">AppNotificationService</text>
</g>
<!-- AppNotificationService&#45;&gt;AppModule -->
<g id="edge7" class="edge">
<title>AppNotificationService&#45;&gt;AppModule</title>
<path fill="none" stroke="black" d="M1352,-84.81C1352,-107.29 1352,-142.8 1352,-142.8 1352,-142.8 674.81,-142.8 674.81,-142.8"/>
<polygon fill="black" stroke="black" points="674.81,-139.3 664.81,-142.8 674.81,-146.3 674.81,-139.3"/>
</g>
<!-- SettingsService -->
<g id="node9" class="node">
<title>SettingsService</title>
<ellipse fill="#fdb462" stroke="black" cx="1160" cy="-66.8" rx="71.23" ry="18"/>
<text text-anchor="middle" x="1160" y="-62.6" font-family="Times,serif" font-size="14.00">SettingsService</text>
</g>
<!-- SettingsService&#45;&gt;AppModule -->
<g id="edge8" class="edge">
<title>SettingsService&#45;&gt;AppModule</title>
<path fill="none" stroke="black" d="M1160,-84.93C1160,-105.37 1160,-135.8 1160,-135.8 1160,-135.8 674.69,-135.8 674.69,-135.8"/>
<polygon fill="black" stroke="black" points="674.69,-132.3 664.69,-135.8 674.69,-139.3 674.69,-132.3"/>
</g>
<!-- StopPointService -->
<g id="node10" class="node">
<title>StopPointService</title>
<ellipse fill="#fdb462" stroke="black" cx="993" cy="-66.8" rx="78.2" ry="18"/>
<text text-anchor="middle" x="993" y="-62.6" font-family="Times,serif" font-size="14.00">StopPointService</text>
</g>
<!-- StopPointService&#45;&gt;AppModule -->
<g id="edge9" class="edge">
<title>StopPointService&#45;&gt;AppModule</title>
<path fill="none" stroke="black" d="M993,-85.07C993,-103.36 993,-128.8 993,-128.8 993,-128.8 674.72,-128.8 674.72,-128.8"/>
<polygon fill="black" stroke="black" points="674.72,-125.3 664.72,-128.8 674.72,-132.3 674.72,-125.3"/>
</g>
<!-- UserLocationService -->
<g id="node11" class="node">
<title>UserLocationService</title>
<ellipse fill="#fdb462" stroke="black" cx="804" cy="-66.8" rx="92.6" ry="18"/>
<text text-anchor="middle" x="804" y="-62.6" font-family="Times,serif" font-size="14.00">UserLocationService</text>
</g>
<!-- UserLocationService&#45;&gt;AppModule -->
<g id="edge10" class="edge">
<title>UserLocationService&#45;&gt;AppModule</title>
<path fill="none" stroke="black" d="M804,-84.81C804,-100.85 804,-121.8 804,-121.8 804,-121.8 674.98,-121.8 674.98,-121.8"/>
<polygon fill="black" stroke="black" points="674.98,-118.3 664.98,-121.8 674.98,-125.3 674.98,-118.3"/>
</g>
</g>
</svg>
