<?xml version="1.0" encoding="UTF-8" standalone="no"?>
<!DOCTYPE svg PUBLIC "-//W3C//DTD SVG 1.1//EN"
 "http://www.w3.org/Graphics/SVG/1.1/DTD/svg11.dtd">
<!-- Generated by graphviz version 2.47.3 (20210619.1520)
 -->
<!-- Title: dependencies Pages: 1 -->
<svg width="196pt" height="247pt"
 viewBox="0.00 0.00 196.00 246.80" xmlns="http://www.w3.org/2000/svg" xmlns:xlink="http://www.w3.org/1999/xlink">
<g id="graph0" class="graph" transform="scale(1 1) rotate(0) translate(4 242.8)">
<title>dependencies</title>
<polygon fill="white" stroke="transparent" points="-4,4 -4,-242.8 192,-242.8 192,4 -4,4"/>
<text text-anchor="middle" x="94" y="-8.2" font-family="sans-serif" font-size="14.00">dependencies</text>
<g id="clust1" class="cluster">
<title>cluster_RouteListModule</title>
<polygon fill="none" stroke="black" stroke-dasharray="1,5" points="8,-32.8 8,-230.8 180,-230.8 180,-32.8 8,-32.8"/>
</g>
<g id="clust5" class="cluster">
<title>cluster_RouteListModule_exports</title>
<polygon fill="none" stroke="black" points="16,-170.8 16,-222.8 172,-222.8 172,-170.8 16,-170.8"/>
</g>
<g id="clust2" class="cluster">
<title>cluster_RouteListModule_declarations</title>
<polygon fill="none" stroke="black" points="18,-40.8 18,-92.8 170,-92.8 170,-40.8 18,-40.8"/>
</g>
<!-- RouteListComponent -->
<g id="node1" class="node">
<title>RouteListComponent</title>
<polygon fill="#ffffb3" stroke="black" points="162.05,-84.8 25.95,-84.8 25.95,-48.8 162.05,-48.8 162.05,-84.8"/>
<text text-anchor="middle" x="94" y="-62.6" font-family="Times,serif" font-size="14.00">RouteListComponent</text>
</g>
<!-- RouteListModule -->
<g id="node2" class="node">
<title>RouteListModule</title>
<polygon fill="#8dd3c7" stroke="black" points="151.27,-149.8 148.27,-153.8 127.27,-153.8 124.27,-149.8 36.73,-149.8 36.73,-113.8 151.27,-113.8 151.27,-149.8"/>
<text text-anchor="middle" x="94" y="-127.6" font-family="Times,serif" font-size="14.00">RouteListModule</text>
</g>
<!-- RouteListComponent&#45;&gt;RouteListModule -->
<g id="edge1" class="edge">
<title>RouteListComponent&#45;&gt;RouteListModule</title>
<path fill="none" stroke="black" d="M94,-84.91C94,-84.91 94,-103.79 94,-103.79"/>
<polygon fill="black" stroke="black" points="90.5,-103.79 94,-113.79 97.5,-103.79 90.5,-103.79"/>
</g>
<!-- RouteListComponent  -->
<g id="node3" class="node">
<title>RouteListComponent </title>
<polygon fill="#fb8072" stroke="black" points="164.05,-214.8 23.95,-214.8 23.95,-178.8 164.05,-178.8 164.05,-214.8"/>
<text text-anchor="middle" x="94" y="-192.6" font-family="Times,serif" font-size="14.00">RouteListComponent </text>
</g>
<!-- RouteListModule&#45;&gt;RouteListComponent  -->
<g id="edge2" class="edge">
<title>RouteListModule&#45;&gt;RouteListComponent </title>
<path fill="none" stroke="black" stroke-dasharray="5,2" d="M94,-149.91C94,-149.91 94,-168.79 94,-168.79"/>
<polygon fill="black" stroke="black" points="90.5,-168.79 94,-178.79 97.5,-168.79 90.5,-168.79"/>
</g>
</g>
</svg>
