<?xml version="1.0" encoding="UTF-8" standalone="no"?>
<!DOCTYPE svg PUBLIC "-//W3C//DTD SVG 1.1//EN"
 "http://www.w3.org/Graphics/SVG/1.1/DTD/svg11.dtd">
<!-- Generated by graphviz version 2.47.3 (20210619.1520)
 -->
<!-- Title: dependencies Pages: 1 -->
<svg width="498pt" height="174pt"
 viewBox="0.00 0.00 498.00 173.80" xmlns="http://www.w3.org/2000/svg" xmlns:xlink="http://www.w3.org/1999/xlink">
<g id="graph0" class="graph" transform="scale(1 1) rotate(0) translate(4 169.8)">
<title>dependencies</title>
<polygon fill="white" stroke="transparent" points="-4,4 -4,-169.8 494,-169.8 494,4 -4,4"/>
<text text-anchor="middle" x="245" y="-8.2" font-family="sans-serif" font-size="14.00">dependencies</text>
<g id="clust1" class="cluster">
<title>cluster_StopsModule</title>
<polygon fill="none" stroke="black" stroke-dasharray="1,5" points="8,-32.8 8,-157.8 482,-157.8 482,-32.8 8,-32.8"/>
</g>
<g id="clust4" class="cluster">
<title>cluster_StopsModule_imports</title>
<polygon fill="none" stroke="black" points="176,-40.8 176,-92.8 474,-92.8 474,-40.8 176,-40.8"/>
</g>
<g id="clust2" class="cluster">
<title>cluster_StopsModule_declarations</title>
<polygon fill="none" stroke="black" points="16,-40.8 16,-92.8 168,-92.8 168,-40.8 16,-40.8"/>
</g>
<!-- StopsInfoComponent -->
<g id="node1" class="node">
<title>StopsInfoComponent</title>
<polygon fill="#ffffb3" stroke="black" points="159.77,-84.8 24.23,-84.8 24.23,-48.8 159.77,-48.8 159.77,-84.8"/>
<text text-anchor="middle" x="92" y="-62.6" font-family="Times,serif" font-size="14.00">StopsInfoComponent</text>
</g>
<!-- StopsModule -->
<g id="node2" class="node">
<title>StopsModule</title>
<polygon fill="#8dd3c7" stroke="black" points="297.17,-149.8 294.17,-153.8 273.17,-153.8 270.17,-149.8 206.83,-149.8 206.83,-113.8 297.17,-113.8 297.17,-149.8"/>
<text text-anchor="middle" x="252" y="-127.6" font-family="Times,serif" font-size="14.00">StopsModule</text>
</g>
<!-- StopsInfoComponent&#45;&gt;StopsModule -->
<g id="edge1" class="edge">
<title>StopsInfoComponent&#45;&gt;StopsModule</title>
<path fill="none" stroke="black" d="M92,-84.91C92,-104.14 92,-131.8 92,-131.8 92,-131.8 196.58,-131.8 196.58,-131.8"/>
<polygon fill="black" stroke="black" points="196.58,-135.3 206.58,-131.8 196.58,-128.3 196.58,-135.3"/>
</g>
<!-- RetryDialogModule -->
<g id="node3" class="node">
<title>RetryDialogModule</title>
<polygon fill="#8dd3c7" stroke="black" points="466.25,-84.8 463.25,-88.8 442.25,-88.8 439.25,-84.8 337.75,-84.8 337.75,-48.8 466.25,-48.8 466.25,-84.8"/>
<text text-anchor="middle" x="402" y="-62.6" font-family="Times,serif" font-size="14.00">RetryDialogModule</text>
</g>
<!-- RetryDialogModule&#45;&gt;StopsModule -->
<g id="edge2" class="edge">
<title>RetryDialogModule&#45;&gt;StopsModule</title>
<path fill="none" stroke="black" d="M402,-84.91C402,-104.14 402,-131.8 402,-131.8 402,-131.8 307.41,-131.8 307.41,-131.8"/>
<polygon fill="black" stroke="black" points="307.41,-128.3 297.41,-131.8 307.41,-135.3 307.41,-128.3"/>
</g>
<!-- StopsRoutingModule -->
<g id="node4" class="node">
<title>StopsRoutingModule</title>
<polygon fill="#8dd3c7" stroke="black" points="319.79,-84.8 316.79,-88.8 295.79,-88.8 292.79,-84.8 184.21,-84.8 184.21,-48.8 319.79,-48.8 319.79,-84.8"/>
<text text-anchor="middle" x="252" y="-62.6" font-family="Times,serif" font-size="14.00">StopsRoutingModule</text>
</g>
<!-- StopsRoutingModule&#45;&gt;StopsModule -->
<g id="edge3" class="edge">
<title>StopsRoutingModule&#45;&gt;StopsModule</title>
<path fill="none" stroke="black" d="M252,-84.91C252,-84.91 252,-103.79 252,-103.79"/>
<polygon fill="black" stroke="black" points="248.5,-103.79 252,-113.79 255.5,-103.79 248.5,-103.79"/>
</g>
</g>
</svg>
