<?xml version="1.0" encoding="UTF-8" standalone="no"?>
<!DOCTYPE svg PUBLIC "-//W3C//DTD SVG 1.1//EN"
 "http://www.w3.org/Graphics/SVG/1.1/DTD/svg11.dtd">
<!-- Generated by graphviz version 2.47.3 (20210619.1520)
 -->
<!-- Title: dependencies Pages: 1 -->
<svg width="656pt" height="174pt"
 viewBox="0.00 0.00 656.00 173.80" xmlns="http://www.w3.org/2000/svg" xmlns:xlink="http://www.w3.org/1999/xlink">
<g id="graph0" class="graph" transform="scale(1 1) rotate(0) translate(4 169.8)">
<title>dependencies</title>
<polygon fill="white" stroke="transparent" points="-4,4 -4,-169.8 652,-169.8 652,4 -4,4"/>
<text text-anchor="middle" x="324" y="-8.2" font-family="sans-serif" font-size="14.00">dependencies</text>
<g id="clust1" class="cluster">
<title>cluster_StopsModule</title>
<polygon fill="none" stroke="black" stroke-dasharray="1,5" points="8,-32.8 8,-157.8 640,-157.8 640,-32.8 8,-32.8"/>
</g>
<g id="clust4" class="cluster">
<title>cluster_StopsModule_imports</title>
<polygon fill="none" stroke="black" points="334,-40.8 334,-92.8 632,-92.8 632,-40.8 334,-40.8"/>
</g>
<g id="clust7" class="cluster">
<title>cluster_StopsModule_providers</title>
<polygon fill="none" stroke="black" points="176,-40.8 176,-92.8 326,-92.8 326,-40.8 176,-40.8"/>
</g>
<g id="clust2" class="cluster">
<title>cluster_StopsModule_declarations</title>
<polygon fill="none" stroke="black" points="16,-40.8 16,-92.8 168,-92.8 168,-40.8 16,-40.8"/>
</g>
<!-- StopsInfoComponent -->
<g id="node1" class="node">
<title>StopsInfoComponent</title>
<polygon fill="#ffffb3" stroke="black" points="159.77,-84.8 24.23,-84.8 24.23,-48.8 159.77,-48.8 159.77,-84.8"/>
<text text-anchor="middle" x="92" y="-62.6" font-family="Times,serif" font-size="14.00">StopsInfoComponent</text>
</g>
<!-- StopsModule -->
<g id="node2" class="node">
<title>StopsModule</title>
<polygon fill="#8dd3c7" stroke="black" points="375.17,-149.8 372.17,-153.8 351.17,-153.8 348.17,-149.8 284.83,-149.8 284.83,-113.8 375.17,-113.8 375.17,-149.8"/>
<text text-anchor="middle" x="330" y="-127.6" font-family="Times,serif" font-size="14.00">StopsModule</text>
</g>
<!-- StopsInfoComponent&#45;&gt;StopsModule -->
<g id="edge1" class="edge">
<title>StopsInfoComponent&#45;&gt;StopsModule</title>
<path fill="none" stroke="black" d="M92,-84.91C92,-104.14 92,-131.8 92,-131.8 92,-131.8 274.67,-131.8 274.67,-131.8"/>
<polygon fill="black" stroke="black" points="274.67,-135.3 284.67,-131.8 274.67,-128.3 274.67,-135.3"/>
</g>
<!-- RetryDialogModule -->
<g id="node3" class="node">
<title>RetryDialogModule</title>
<polygon fill="#8dd3c7" stroke="black" points="624.25,-84.8 621.25,-88.8 600.25,-88.8 597.25,-84.8 495.75,-84.8 495.75,-48.8 624.25,-48.8 624.25,-84.8"/>
<text text-anchor="middle" x="560" y="-62.6" font-family="Times,serif" font-size="14.00">RetryDialogModule</text>
</g>
<!-- RetryDialogModule&#45;&gt;StopsModule -->
<g id="edge2" class="edge">
<title>RetryDialogModule&#45;&gt;StopsModule</title>
<path fill="none" stroke="black" d="M560,-84.91C560,-104.14 560,-131.8 560,-131.8 560,-131.8 385.44,-131.8 385.44,-131.8"/>
<polygon fill="black" stroke="black" points="385.44,-128.3 375.44,-131.8 385.44,-135.3 385.44,-128.3"/>
</g>
<!-- StopsRoutingModule -->
<g id="node4" class="node">
<title>StopsRoutingModule</title>
<polygon fill="#8dd3c7" stroke="black" points="477.79,-84.8 474.79,-88.8 453.79,-88.8 450.79,-84.8 342.21,-84.8 342.21,-48.8 477.79,-48.8 477.79,-84.8"/>
<text text-anchor="middle" x="410" y="-62.6" font-family="Times,serif" font-size="14.00">StopsRoutingModule</text>
</g>
<!-- StopsRoutingModule&#45;&gt;StopsModule -->
<g id="edge3" class="edge">
<title>StopsRoutingModule&#45;&gt;StopsModule</title>
<path fill="none" stroke="black" d="M358.72,-84.91C358.72,-84.91 358.72,-103.79 358.72,-103.79"/>
<polygon fill="black" stroke="black" points="355.22,-103.79 358.72,-113.79 362.22,-103.79 355.22,-103.79"/>
</g>
<!-- StopsResolver -->
<g id="node5" class="node">
<title>StopsResolver</title>
<ellipse fill="#fdb462" stroke="black" cx="251" cy="-66.8" rx="66.65" ry="18"/>
<text text-anchor="middle" x="251" y="-62.6" font-family="Times,serif" font-size="14.00">StopsResolver</text>
</g>
<!-- StopsResolver&#45;&gt;StopsModule -->
<g id="edge4" class="edge">
<title>StopsResolver&#45;&gt;StopsModule</title>
<path fill="none" stroke="black" d="M301.25,-78.72C301.25,-78.72 301.25,-103.57 301.25,-103.57"/>
<polygon fill="black" stroke="black" points="297.75,-103.57 301.25,-113.57 304.75,-103.57 297.75,-103.57"/>
</g>
</g>
</svg>
