<?xml version="1.0" encoding="UTF-8" standalone="no"?>
<!DOCTYPE svg PUBLIC "-//W3C//DTD SVG 1.1//EN"
 "http://www.w3.org/Graphics/SVG/1.1/DTD/svg11.dtd">
<!-- Generated by graphviz version 5.0.0 (20220707.1540)
 -->
<!-- Title: dependencies Pages: 1 -->
<svg width="656pt" height="174pt"
 viewBox="0.00 0.00 656.00 173.80" xmlns="http://www.w3.org/2000/svg" xmlns:xlink="http://www.w3.org/1999/xlink">
<g id="graph0" class="graph" transform="scale(1 1) rotate(0) translate(4 169.8)">
<title>dependencies</title>
<polygon fill="white" stroke="transparent" points="-4,4 -4,-169.8 652,-169.8 652,4 -4,4"/>
<text text-anchor="middle" x="324" y="-8.2" font-family="sans-serif" font-size="14.00">dependencies</text>
<g id="clust1" class="cluster">
<title>cluster_StopsModule</title>
<polygon fill="none" stroke="black" stroke-dasharray="1,5" points="8,-32.8 8,-157.8 640,-157.8 640,-32.8 8,-32.8"/>
</g>
<g id="clust2" class="cluster">
<title>cluster_StopsModule_declarations</title>
<polygon fill="none" stroke="black" points="480,-40.8 480,-92.8 632,-92.8 632,-40.8 480,-40.8"/>
</g>
<g id="clust4" class="cluster">
<title>cluster_StopsModule_imports</title>
<polygon fill="none" stroke="black" points="174,-40.8 174,-92.8 472,-92.8 472,-40.8 174,-40.8"/>
</g>
<g id="clust7" class="cluster">
<title>cluster_StopsModule_providers</title>
<polygon fill="none" stroke="black" points="16,-40.8 16,-92.8 166,-92.8 166,-40.8 16,-40.8"/>
</g>
<!-- StopsInfoComponent -->
<g id="node1" class="node">
<title>StopsInfoComponent</title>
<polygon fill="#ffffb3" stroke="black" points="623.78,-84.8 488.22,-84.8 488.22,-48.8 623.78,-48.8 623.78,-84.8"/>
<text text-anchor="middle" x="556" y="-62.6" font-family="Times,serif" font-size="14.00">StopsInfoComponent</text>
</g>
<!-- StopsModule -->
<g id="node2" class="node">
<title>StopsModule</title>
<polygon fill="#8dd3c7" stroke="black" points="370.18,-149.8 367.18,-153.8 346.18,-153.8 343.18,-149.8 279.82,-149.8 279.82,-113.8 370.18,-113.8 370.18,-149.8"/>
<text text-anchor="middle" x="325" y="-127.6" font-family="Times,serif" font-size="14.00">StopsModule</text>
</g>
<!-- StopsInfoComponent&#45;&gt;StopsModule -->
<g id="edge1" class="edge">
<title>StopsInfoComponent&#45;&gt;StopsModule</title>
<path fill="none" stroke="black" d="M556,-84.91C556,-104.14 556,-131.8 556,-131.8 556,-131.8 380.36,-131.8 380.36,-131.8"/>
<polygon fill="black" stroke="black" points="380.36,-128.3 370.36,-131.8 380.36,-135.3 380.36,-128.3"/>
</g>
<!-- RetryDialogModule -->
<g id="node3" class="node">
<title>RetryDialogModule</title>
<polygon fill="#8dd3c7" stroke="black" points="464.26,-84.8 461.26,-88.8 440.26,-88.8 437.26,-84.8 335.74,-84.8 335.74,-48.8 464.26,-48.8 464.26,-84.8"/>
<text text-anchor="middle" x="400" y="-62.6" font-family="Times,serif" font-size="14.00">RetryDialogModule</text>
</g>
<!-- RetryDialogModule&#45;&gt;StopsModule -->
<g id="edge2" class="edge">
<title>RetryDialogModule&#45;&gt;StopsModule</title>
<path fill="none" stroke="black" d="M352.98,-84.91C352.98,-84.91 352.98,-103.79 352.98,-103.79"/>
<polygon fill="black" stroke="black" points="349.48,-103.79 352.98,-113.79 356.48,-103.79 349.48,-103.79"/>
</g>
<!-- StopsRoutingModule -->
<g id="node4" class="node">
<title>StopsRoutingModule</title>
<polygon fill="#8dd3c7" stroke="black" points="317.79,-84.8 314.79,-88.8 293.79,-88.8 290.79,-84.8 182.21,-84.8 182.21,-48.8 317.79,-48.8 317.79,-84.8"/>
<text text-anchor="middle" x="250" y="-62.6" font-family="Times,serif" font-size="14.00">StopsRoutingModule</text>
</g>
<!-- StopsRoutingModule&#45;&gt;StopsModule -->
<g id="edge3" class="edge">
<title>StopsRoutingModule&#45;&gt;StopsModule</title>
<path fill="none" stroke="black" d="M298.78,-84.91C298.78,-84.91 298.78,-103.79 298.78,-103.79"/>
<polygon fill="black" stroke="black" points="295.28,-103.79 298.78,-113.79 302.28,-103.79 295.28,-103.79"/>
</g>
<!-- StopsResolver -->
<g id="node5" class="node">
<title>StopsResolver</title>
<ellipse fill="#fdb462" stroke="black" cx="91" cy="-66.8" rx="66.67" ry="18"/>
<text text-anchor="middle" x="91" y="-62.6" font-family="Times,serif" font-size="14.00">StopsResolver</text>
</g>
<!-- StopsResolver&#45;&gt;StopsModule -->
<g id="edge4" class="edge">
<title>StopsResolver&#45;&gt;StopsModule</title>
<path fill="none" stroke="black" d="M91,-84.91C91,-104.14 91,-131.8 91,-131.8 91,-131.8 269.6,-131.8 269.6,-131.8"/>
<polygon fill="black" stroke="black" points="269.61,-135.3 279.6,-131.8 269.6,-128.3 269.61,-135.3"/>
</g>
</g>
</svg>
