<?xml version="1.0" encoding="UTF-8" standalone="no"?>
<!DOCTYPE svg PUBLIC "-//W3C//DTD SVG 1.1//EN"
 "http://www.w3.org/Graphics/SVG/1.1/DTD/svg11.dtd">
<!-- Generated by graphviz version 3.0.0 (20220226.1711)
 -->
<!-- Title: dependencies Pages: 1 -->
<svg width="656pt" height="174pt"
 viewBox="0.00 0.00 656.00 173.80" xmlns="http://www.w3.org/2000/svg" xmlns:xlink="http://www.w3.org/1999/xlink">
<g id="graph0" class="graph" transform="scale(1 1) rotate(0) translate(4 169.8)">
<title>dependencies</title>
<polygon fill="white" stroke="transparent" points="-4,4 -4,-169.8 652,-169.8 652,4 -4,4"/>
<text text-anchor="middle" x="324" y="-8.2" font-family="sans-serif" font-size="14.00">dependencies</text>
<g id="clust1" class="cluster">
<title>cluster_StopsModule</title>
<polygon fill="none" stroke="black" stroke-dasharray="1,5" points="8,-32.8 8,-157.8 640,-157.8 640,-32.8 8,-32.8"/>
</g>
<g id="clust7" class="cluster">
<title>cluster_StopsModule_providers</title>
<polygon fill="none" stroke="black" points="482,-40.8 482,-92.8 632,-92.8 632,-40.8 482,-40.8"/>
</g>
<g id="clust2" class="cluster">
<title>cluster_StopsModule_declarations</title>
<polygon fill="none" stroke="black" points="322,-40.8 322,-92.8 474,-92.8 474,-40.8 322,-40.8"/>
</g>
<g id="clust4" class="cluster">
<title>cluster_StopsModule_imports</title>
<polygon fill="none" stroke="black" points="16,-40.8 16,-92.8 314,-92.8 314,-40.8 16,-40.8"/>
</g>
<!-- StopsInfoComponent -->
<g id="node1" class="node">
<title>StopsInfoComponent</title>
<polygon fill="#ffffb3" stroke="black" points="465.78,-84.8 330.22,-84.8 330.22,-48.8 465.78,-48.8 465.78,-84.8"/>
<text text-anchor="middle" x="398" y="-62.6" font-family="Times,serif" font-size="14.00">StopsInfoComponent</text>
</g>
<!-- StopsModule -->
<g id="node2" class="node">
<title>StopsModule</title>
<polygon fill="#8dd3c7" stroke="black" points="365.18,-149.8 362.18,-153.8 341.18,-153.8 338.18,-149.8 274.82,-149.8 274.82,-113.8 365.18,-113.8 365.18,-149.8"/>
<text text-anchor="middle" x="320" y="-127.6" font-family="Times,serif" font-size="14.00">StopsModule</text>
</g>
<!-- StopsInfoComponent&#45;&gt;StopsModule -->
<g id="edge1" class="edge">
<title>StopsInfoComponent&#45;&gt;StopsModule</title>
<path fill="none" stroke="black" d="M347.72,-84.91C347.72,-84.91 347.72,-103.79 347.72,-103.79"/>
<polygon fill="black" stroke="black" points="344.22,-103.79 347.72,-113.79 351.22,-103.79 344.22,-103.79"/>
</g>
<!-- RetryDialogModule -->
<g id="node3" class="node">
<title>RetryDialogModule</title>
<polygon fill="#8dd3c7" stroke="black" points="306.26,-84.8 303.26,-88.8 282.26,-88.8 279.26,-84.8 177.74,-84.8 177.74,-48.8 306.26,-48.8 306.26,-84.8"/>
<text text-anchor="middle" x="242" y="-62.6" font-family="Times,serif" font-size="14.00">RetryDialogModule</text>
</g>
<!-- RetryDialogModule&#45;&gt;StopsModule -->
<g id="edge2" class="edge">
<title>RetryDialogModule&#45;&gt;StopsModule</title>
<path fill="none" stroke="black" d="M290.52,-84.91C290.52,-84.91 290.52,-103.79 290.52,-103.79"/>
<polygon fill="black" stroke="black" points="287.02,-103.79 290.52,-113.79 294.02,-103.79 287.02,-103.79"/>
</g>
<!-- StopsRoutingModule -->
<g id="node4" class="node">
<title>StopsRoutingModule</title>
<polygon fill="#8dd3c7" stroke="black" points="159.79,-84.8 156.79,-88.8 135.79,-88.8 132.79,-84.8 24.21,-84.8 24.21,-48.8 159.79,-48.8 159.79,-84.8"/>
<text text-anchor="middle" x="92" y="-62.6" font-family="Times,serif" font-size="14.00">StopsRoutingModule</text>
</g>
<!-- StopsRoutingModule&#45;&gt;StopsModule -->
<g id="edge3" class="edge">
<title>StopsRoutingModule&#45;&gt;StopsModule</title>
<path fill="none" stroke="black" d="M92,-84.91C92,-104.14 92,-131.8 92,-131.8 92,-131.8 264.68,-131.8 264.68,-131.8"/>
<polygon fill="black" stroke="black" points="264.68,-135.3 274.68,-131.8 264.68,-128.3 264.68,-135.3"/>
</g>
<!-- StopsResolver -->
<g id="node5" class="node">
<title>StopsResolver</title>
<ellipse fill="#fdb462" stroke="black" cx="557" cy="-66.8" rx="66.67" ry="18"/>
<text text-anchor="middle" x="557" y="-62.6" font-family="Times,serif" font-size="14.00">StopsResolver</text>
</g>
<!-- StopsResolver&#45;&gt;StopsModule -->
<g id="edge4" class="edge">
<title>StopsResolver&#45;&gt;StopsModule</title>
<path fill="none" stroke="black" d="M557,-84.91C557,-104.14 557,-131.8 557,-131.8 557,-131.8 375.42,-131.8 375.42,-131.8"/>
<polygon fill="black" stroke="black" points="375.42,-128.3 365.42,-131.8 375.42,-135.3 375.42,-128.3"/>
</g>
</g>
</svg>
