<?xml version="1.0" encoding="UTF-8" standalone="no"?>
<!DOCTYPE svg PUBLIC "-//W3C//DTD SVG 1.1//EN"
 "http://www.w3.org/Graphics/SVG/1.1/DTD/svg11.dtd">
<!-- Generated by graphviz version 2.47.3 (20210619.1520)
 -->
<!-- Title: dependencies Pages: 1 -->
<svg width="502pt" height="174pt"
 viewBox="0.00 0.00 502.00 173.80" xmlns="http://www.w3.org/2000/svg" xmlns:xlink="http://www.w3.org/1999/xlink">
<g id="graph0" class="graph" transform="scale(1 1) rotate(0) translate(4 169.8)">
<title>dependencies</title>
<polygon fill="white" stroke="transparent" points="-4,4 -4,-169.8 498,-169.8 498,4 -4,4"/>
<text text-anchor="middle" x="247" y="-8.2" font-family="sans-serif" font-size="14.00">dependencies</text>
<g id="clust1" class="cluster">
<title>cluster_SettingsModule</title>
<polygon fill="none" stroke="black" stroke-dasharray="1,5" points="8,-32.8 8,-157.8 486,-157.8 486,-32.8 8,-32.8"/>
</g>
<g id="clust2" class="cluster">
<title>cluster_SettingsModule_declarations</title>
<polygon fill="none" stroke="black" points="336,-40.8 336,-92.8 478,-92.8 478,-40.8 336,-40.8"/>
</g>
<g id="clust4" class="cluster">
<title>cluster_SettingsModule_imports</title>
<polygon fill="none" stroke="black" points="16,-40.8 16,-92.8 328,-92.8 328,-40.8 16,-40.8"/>
</g>
<!-- SettingsComponent -->
<g id="node1" class="node">
<title>SettingsComponent</title>
<polygon fill="#ffffb3" stroke="black" points="470.45,-84.8 343.55,-84.8 343.55,-48.8 470.45,-48.8 470.45,-84.8"/>
<text text-anchor="middle" x="407" y="-62.6" font-family="Times,serif" font-size="14.00">SettingsComponent</text>
</g>
<!-- SettingsModule -->
<g id="node2" class="node">
<title>SettingsModule</title>
<polygon fill="#8dd3c7" stroke="black" points="308.16,-149.8 305.16,-153.8 284.16,-153.8 281.16,-149.8 203.84,-149.8 203.84,-113.8 308.16,-113.8 308.16,-149.8"/>
<text text-anchor="middle" x="256" y="-127.6" font-family="Times,serif" font-size="14.00">SettingsModule</text>
</g>
<!-- SettingsComponent&#45;&gt;SettingsModule -->
<g id="edge1" class="edge">
<title>SettingsComponent&#45;&gt;SettingsModule</title>
<path fill="none" stroke="black" d="M407,-84.91C407,-104.14 407,-131.8 407,-131.8 407,-131.8 318.39,-131.8 318.39,-131.8"/>
<polygon fill="black" stroke="black" points="318.39,-128.3 308.39,-131.8 318.39,-135.3 318.39,-128.3"/>
</g>
<!-- RetryDialogModule -->
<g id="node3" class="node">
<title>RetryDialogModule</title>
<polygon fill="#8dd3c7" stroke="black" points="320.25,-84.8 317.25,-88.8 296.25,-88.8 293.25,-84.8 191.75,-84.8 191.75,-48.8 320.25,-48.8 320.25,-84.8"/>
<text text-anchor="middle" x="256" y="-62.6" font-family="Times,serif" font-size="14.00">RetryDialogModule</text>
</g>
<!-- RetryDialogModule&#45;&gt;SettingsModule -->
<g id="edge2" class="edge">
<title>RetryDialogModule&#45;&gt;SettingsModule</title>
<path fill="none" stroke="black" d="M256,-84.91C256,-84.91 256,-103.79 256,-103.79"/>
<polygon fill="black" stroke="black" points="252.5,-103.79 256,-113.79 259.5,-103.79 252.5,-103.79"/>
</g>
<!-- SettingsRoutingModule -->
<g id="node4" class="node">
<title>SettingsRoutingModule</title>
<polygon fill="#8dd3c7" stroke="black" points="173.78,-84.8 170.78,-88.8 149.78,-88.8 146.78,-84.8 24.22,-84.8 24.22,-48.8 173.78,-48.8 173.78,-84.8"/>
<text text-anchor="middle" x="99" y="-62.6" font-family="Times,serif" font-size="14.00">SettingsRoutingModule</text>
</g>
<!-- SettingsRoutingModule&#45;&gt;SettingsModule -->
<g id="edge3" class="edge">
<title>SettingsRoutingModule&#45;&gt;SettingsModule</title>
<path fill="none" stroke="black" d="M99,-84.91C99,-104.14 99,-131.8 99,-131.8 99,-131.8 193.72,-131.8 193.72,-131.8"/>
<polygon fill="black" stroke="black" points="193.72,-135.3 203.72,-131.8 193.72,-128.3 193.72,-135.3"/>
</g>
</g>
</svg>
