<?xml version="1.0" encoding="UTF-8" standalone="no"?>
<!DOCTYPE svg PUBLIC "-//W3C//DTD SVG 1.1//EN"
 "http://www.w3.org/Graphics/SVG/1.1/DTD/svg11.dtd">
<!-- Generated by graphviz version 5.0.0 (20220707.1540)
 -->
<!-- Title: dependencies Pages: 1 -->
<svg width="502pt" height="174pt"
 viewBox="0.00 0.00 502.00 173.80" xmlns="http://www.w3.org/2000/svg" xmlns:xlink="http://www.w3.org/1999/xlink">
<g id="graph0" class="graph" transform="scale(1 1) rotate(0) translate(4 169.8)">
<title>dependencies</title>
<polygon fill="white" stroke="transparent" points="-4,4 -4,-169.8 498,-169.8 498,4 -4,4"/>
<text text-anchor="middle" x="247" y="-8.2" font-family="sans-serif" font-size="14.00">dependencies</text>
<g id="clust1" class="cluster">
<title>cluster_SettingsModule</title>
<polygon fill="none" stroke="black" stroke-dasharray="1,5" points="8,-32.8 8,-157.8 486,-157.8 486,-32.8 8,-32.8"/>
</g>
<g id="clust4" class="cluster">
<title>cluster_SettingsModule_imports</title>
<polygon fill="none" stroke="black" points="166,-40.8 166,-92.8 478,-92.8 478,-40.8 166,-40.8"/>
</g>
<g id="clust2" class="cluster">
<title>cluster_SettingsModule_declarations</title>
<polygon fill="none" stroke="black" points="16,-40.8 16,-92.8 158,-92.8 158,-40.8 16,-40.8"/>
</g>
<!-- SettingsComponent -->
<g id="node1" class="node">
<title>SettingsComponent</title>
<polygon fill="#ffffb3" stroke="black" points="150.45,-84.8 23.55,-84.8 23.55,-48.8 150.45,-48.8 150.45,-84.8"/>
<text text-anchor="middle" x="87" y="-62.6" font-family="Times,serif" font-size="14.00">SettingsComponent</text>
</g>
<!-- SettingsModule -->
<g id="node2" class="node">
<title>SettingsModule</title>
<polygon fill="#8dd3c7" stroke="black" points="301.17,-149.8 298.17,-153.8 277.17,-153.8 274.17,-149.8 196.83,-149.8 196.83,-113.8 301.17,-113.8 301.17,-149.8"/>
<text text-anchor="middle" x="249" y="-127.6" font-family="Times,serif" font-size="14.00">SettingsModule</text>
</g>
<!-- SettingsComponent&#45;&gt;SettingsModule -->
<g id="edge1" class="edge">
<title>SettingsComponent&#45;&gt;SettingsModule</title>
<path fill="none" stroke="black" d="M87,-84.91C87,-104.14 87,-131.8 87,-131.8 87,-131.8 186.4,-131.8 186.4,-131.8"/>
<polygon fill="black" stroke="black" points="186.4,-135.3 196.4,-131.8 186.4,-128.3 186.4,-135.3"/>
</g>
<!-- RetryDialogModule -->
<g id="node3" class="node">
<title>RetryDialogModule</title>
<polygon fill="#8dd3c7" stroke="black" points="470.26,-84.8 467.26,-88.8 446.26,-88.8 443.26,-84.8 341.74,-84.8 341.74,-48.8 470.26,-48.8 470.26,-84.8"/>
<text text-anchor="middle" x="406" y="-62.6" font-family="Times,serif" font-size="14.00">RetryDialogModule</text>
</g>
<!-- RetryDialogModule&#45;&gt;SettingsModule -->
<g id="edge2" class="edge">
<title>RetryDialogModule&#45;&gt;SettingsModule</title>
<path fill="none" stroke="black" d="M406,-84.91C406,-104.14 406,-131.8 406,-131.8 406,-131.8 311.28,-131.8 311.28,-131.8"/>
<polygon fill="black" stroke="black" points="311.28,-128.3 301.28,-131.8 311.28,-135.3 311.28,-128.3"/>
</g>
<!-- SettingsRoutingModule -->
<g id="node4" class="node">
<title>SettingsRoutingModule</title>
<polygon fill="#8dd3c7" stroke="black" points="323.79,-84.8 320.79,-88.8 299.79,-88.8 296.79,-84.8 174.21,-84.8 174.21,-48.8 323.79,-48.8 323.79,-84.8"/>
<text text-anchor="middle" x="249" y="-62.6" font-family="Times,serif" font-size="14.00">SettingsRoutingModule</text>
</g>
<!-- SettingsRoutingModule&#45;&gt;SettingsModule -->
<g id="edge3" class="edge">
<title>SettingsRoutingModule&#45;&gt;SettingsModule</title>
<path fill="none" stroke="black" d="M249,-84.91C249,-84.91 249,-103.79 249,-103.79"/>
<polygon fill="black" stroke="black" points="245.5,-103.79 249,-113.79 252.5,-103.79 245.5,-103.79"/>
</g>
</g>
</svg>
