<?xml version="1.0" encoding="UTF-8" standalone="no"?>
<!DOCTYPE svg PUBLIC "-//W3C//DTD SVG 1.1//EN"
 "http://www.w3.org/Graphics/SVG/1.1/DTD/svg11.dtd">
<!-- Generated by graphviz version 3.0.0 (20220226.1711)
 -->
<!-- Title: dependencies Pages: 1 -->
<svg width="394pt" height="247pt"
 viewBox="0.00 0.00 394.00 246.80" xmlns="http://www.w3.org/2000/svg" xmlns:xlink="http://www.w3.org/1999/xlink">
<g id="graph0" class="graph" transform="scale(1 1) rotate(0) translate(4 242.8)">
<title>dependencies</title>
<polygon fill="white" stroke="transparent" points="-4,4 -4,-242.8 390,-242.8 390,4 -4,4"/>
<text text-anchor="middle" x="193" y="-8.2" font-family="sans-serif" font-size="14.00">dependencies</text>
<g id="clust1" class="cluster">
<title>cluster_MainMapModule</title>
<polygon fill="none" stroke="black" stroke-dasharray="1,5" points="8,-32.8 8,-230.8 378,-230.8 378,-32.8 8,-32.8"/>
</g>
<g id="clust7" class="cluster">
<title>cluster_MainMapModule_providers</title>
<polygon fill="none" stroke="black" points="178,-40.8 178,-92.8 370,-92.8 370,-40.8 178,-40.8"/>
</g>
<g id="clust5" class="cluster">
<title>cluster_MainMapModule_exports</title>
<polygon fill="none" stroke="black" points="106,-170.8 106,-222.8 262,-222.8 262,-170.8 106,-170.8"/>
</g>
<g id="clust2" class="cluster">
<title>cluster_MainMapModule_declarations</title>
<polygon fill="none" stroke="black" points="16,-40.8 16,-92.8 170,-92.8 170,-40.8 16,-40.8"/>
</g>
<!-- OlMainMapDirective -->
<g id="node1" class="node">
<title>OlMainMapDirective</title>
<polygon fill="#ffffb3" stroke="black" points="161.8,-84.8 24.2,-84.8 24.2,-48.8 161.8,-48.8 161.8,-84.8"/>
<text text-anchor="middle" x="93" y="-62.6" font-family="Times,serif" font-size="14.00">OlMainMapDirective</text>
</g>
<!-- MainMapModule -->
<g id="node2" class="node">
<title>MainMapModule</title>
<polygon fill="#8dd3c7" stroke="black" points="241.27,-149.8 238.27,-153.8 217.27,-153.8 214.27,-149.8 126.73,-149.8 126.73,-113.8 241.27,-113.8 241.27,-149.8"/>
<text text-anchor="middle" x="184" y="-127.6" font-family="Times,serif" font-size="14.00">MainMapModule</text>
</g>
<!-- OlMainMapDirective&#45;&gt;MainMapModule -->
<g id="edge1" class="edge">
<title>OlMainMapDirective&#45;&gt;MainMapModule</title>
<path fill="none" stroke="black" d="M144.13,-84.91C144.13,-84.91 144.13,-103.79 144.13,-103.79"/>
<polygon fill="black" stroke="black" points="140.63,-103.79 144.13,-113.79 147.63,-103.79 140.63,-103.79"/>
</g>
<!-- OlMainMapDirective  -->
<g id="node3" class="node">
<title>OlMainMapDirective </title>
<polygon fill="#fb8072" stroke="black" points="254.3,-214.8 113.7,-214.8 113.7,-178.8 254.3,-178.8 254.3,-214.8"/>
<text text-anchor="middle" x="184" y="-192.6" font-family="Times,serif" font-size="14.00">OlMainMapDirective </text>
</g>
<!-- MainMapModule&#45;&gt;OlMainMapDirective  -->
<g id="edge2" class="edge">
<title>MainMapModule&#45;&gt;OlMainMapDirective </title>
<path fill="none" stroke="black" stroke-dasharray="5,2" d="M184,-149.91C184,-149.91 184,-168.79 184,-168.79"/>
<polygon fill="black" stroke="black" points="180.5,-168.79 184,-178.79 187.5,-168.79 180.5,-168.79"/>
</g>
<!-- OlMainMapService -->
<g id="node4" class="node">
<title>OlMainMapService</title>
<ellipse fill="#fdb462" stroke="black" cx="274" cy="-66.8" rx="87.97" ry="18"/>
<text text-anchor="middle" x="274" y="-62.6" font-family="Times,serif" font-size="14.00">OlMainMapService</text>
</g>
<!-- OlMainMapService&#45;&gt;MainMapModule -->
<g id="edge3" class="edge">
<title>OlMainMapService&#45;&gt;MainMapModule</title>
<path fill="none" stroke="black" d="M213.82,-79.95C213.82,-79.95 213.82,-103.49 213.82,-103.49"/>
<polygon fill="black" stroke="black" points="210.32,-103.49 213.82,-113.49 217.32,-103.49 210.32,-103.49"/>
</g>
</g>
</svg>
