<?xml version="1.0" encoding="UTF-8" standalone="no"?>
<!DOCTYPE svg PUBLIC "-//W3C//DTD SVG 1.1//EN"
 "http://www.w3.org/Graphics/SVG/1.1/DTD/svg11.dtd">
<!-- Generated by graphviz version 2.47.3 (20210619.1520)
 -->
<!-- Title: dependencies Pages: 1 -->
<svg width="1006pt" height="239pt"
 viewBox="0.00 0.00 1006.00 238.80" xmlns="http://www.w3.org/2000/svg" xmlns:xlink="http://www.w3.org/1999/xlink">
<g id="graph0" class="graph" transform="scale(1 1) rotate(0) translate(4 234.8)">
<title>dependencies</title>
<polygon fill="white" stroke="transparent" points="-4,4 -4,-234.8 1002,-234.8 1002,4 -4,4"/>
<text text-anchor="middle" x="499" y="-8.2" font-family="sans-serif" font-size="14.00">dependencies</text>
<g id="clust1" class="cluster">
<title>cluster_StopPointModule</title>
<polygon fill="none" stroke="black" stroke-dasharray="1,5" points="8,-32.8 8,-222.8 990,-222.8 990,-32.8 8,-32.8"/>
</g>
<g id="clust3" class="cluster">
<title>cluster_StopPointModule_StopPointInfoComponent_providers</title>
<polygon fill="none" stroke="black" points="778,-40.8 778,-157.8 982,-157.8 982,-40.8 778,-40.8"/>
</g>
<g id="clust4" class="cluster">
<title>cluster_StopPointModule_imports</title>
<polygon fill="none" stroke="black" points="16,-105.8 16,-157.8 770,-157.8 770,-105.8 16,-105.8"/>
</g>
<!-- StopPointInfoComponent -->
<g id="node1" class="node">
<title>StopPointInfoComponent</title>
<polygon fill="#ffffb3" stroke="black" points="952.89,-149.8 793.11,-149.8 793.11,-113.8 952.89,-113.8 952.89,-149.8"/>
<text text-anchor="middle" x="873" y="-127.6" font-family="Times,serif" font-size="14.00">StopPointInfoComponent</text>
</g>
<!-- StopPointModule -->
<g id="node2" class="node">
<title>StopPointModule</title>
<polygon fill="#8dd3c7" stroke="black" points="529.29,-214.8 526.29,-218.8 505.29,-218.8 502.29,-214.8 414.71,-214.8 414.71,-178.8 529.29,-178.8 529.29,-214.8"/>
<text text-anchor="middle" x="472" y="-192.6" font-family="Times,serif" font-size="14.00">StopPointModule</text>
</g>
<!-- StopPointInfoComponent&#45;&gt;StopPointModule -->
<g id="edge1" class="edge">
<title>StopPointInfoComponent&#45;&gt;StopPointModule</title>
<path fill="none" stroke="black" d="M873,-150.08C873,-171.12 873,-202.8 873,-202.8 873,-202.8 539.45,-202.8 539.45,-202.8"/>
<polygon fill="black" stroke="black" points="539.45,-199.3 529.45,-202.8 539.45,-206.3 539.45,-199.3"/>
</g>
<!-- StopPointInfoService -->
<g id="node3" class="node">
<title>StopPointInfoService</title>
<ellipse fill="#fdb462" stroke="black" cx="880" cy="-66.8" rx="94.36" ry="18"/>
<text text-anchor="middle" x="880" y="-62.6" font-family="Times,serif" font-size="14.00">StopPointInfoService</text>
</g>
<!-- StopPointInfoService&#45;&gt;StopPointInfoComponent -->
<g id="edge2" class="edge">
<title>StopPointInfoService&#45;&gt;StopPointInfoComponent</title>
<path fill="none" stroke="black" d="M873,-84.91C873,-84.91 873,-103.79 873,-103.79"/>
<polygon fill="black" stroke="black" points="869.5,-103.79 873,-113.79 876.5,-103.79 869.5,-103.79"/>
</g>
<!-- DepartureListModule -->
<g id="node4" class="node">
<title>DepartureListModule</title>
<polygon fill="#8dd3c7" stroke="black" points="761.79,-149.8 758.79,-153.8 737.79,-153.8 734.79,-149.8 624.21,-149.8 624.21,-113.8 761.79,-113.8 761.79,-149.8"/>
<text text-anchor="middle" x="693" y="-127.6" font-family="Times,serif" font-size="14.00">DepartureListModule</text>
</g>
<!-- DepartureListModule&#45;&gt;StopPointModule -->
<g id="edge3" class="edge">
<title>DepartureListModule&#45;&gt;StopPointModule</title>
<path fill="none" stroke="black" d="M693,-149.82C693,-167.17 693,-190.8 693,-190.8 693,-190.8 539.49,-190.8 539.49,-190.8"/>
<polygon fill="black" stroke="black" points="539.49,-187.3 529.49,-190.8 539.49,-194.3 539.49,-187.3"/>
</g>
<!-- HeaderBoxModule -->
<g id="node5" class="node">
<title>HeaderBoxModule</title>
<polygon fill="#8dd3c7" stroke="black" points="606.8,-149.8 603.8,-153.8 582.8,-153.8 579.8,-149.8 483.2,-149.8 483.2,-113.8 606.8,-113.8 606.8,-149.8"/>
<text text-anchor="middle" x="545" y="-127.6" font-family="Times,serif" font-size="14.00">HeaderBoxModule</text>
</g>
<!-- HeaderBoxModule&#45;&gt;StopPointModule -->
<g id="edge4" class="edge">
<title>HeaderBoxModule&#45;&gt;StopPointModule</title>
<path fill="none" stroke="black" d="M506.37,-149.91C506.37,-149.91 506.37,-168.79 506.37,-168.79"/>
<polygon fill="black" stroke="black" points="502.87,-168.79 506.37,-178.79 509.87,-168.79 502.87,-168.79"/>
</g>
<!-- OlStaticMapModule -->
<g id="node6" class="node">
<title>OlStaticMapModule</title>
<polygon fill="#8dd3c7" stroke="black" points="465.59,-149.8 462.59,-153.8 441.59,-153.8 438.59,-149.8 334.41,-149.8 334.41,-113.8 465.59,-113.8 465.59,-149.8"/>
<text text-anchor="middle" x="400" y="-127.6" font-family="Times,serif" font-size="14.00">OlStaticMapModule</text>
</g>
<!-- OlStaticMapModule&#45;&gt;StopPointModule -->
<g id="edge5" class="edge">
<title>OlStaticMapModule&#45;&gt;StopPointModule</title>
<path fill="none" stroke="black" d="M440.08,-149.91C440.08,-149.91 440.08,-168.79 440.08,-168.79"/>
<polygon fill="black" stroke="black" points="436.58,-168.79 440.08,-178.79 443.58,-168.79 436.58,-168.79"/>
</g>
<!-- RouteListModule -->
<g id="node7" class="node">
<title>RouteListModule</title>
<polygon fill="#8dd3c7" stroke="black" points="316.27,-149.8 313.27,-153.8 292.27,-153.8 289.27,-149.8 201.73,-149.8 201.73,-113.8 316.27,-113.8 316.27,-149.8"/>
<text text-anchor="middle" x="259" y="-127.6" font-family="Times,serif" font-size="14.00">RouteListModule</text>
</g>
<!-- RouteListModule&#45;&gt;StopPointModule -->
<g id="edge6" class="edge">
<title>RouteListModule&#45;&gt;StopPointModule</title>
<path fill="none" stroke="black" d="M259,-149.82C259,-167.17 259,-190.8 259,-190.8 259,-190.8 404.64,-190.8 404.64,-190.8"/>
<polygon fill="black" stroke="black" points="404.64,-194.3 414.64,-190.8 404.64,-187.3 404.64,-194.3"/>
</g>
<!-- StopPointRoutingModule -->
<g id="node8" class="node">
<title>StopPointRoutingModule</title>
<polygon fill="#8dd3c7" stroke="black" points="183.9,-149.8 180.9,-153.8 159.9,-153.8 156.9,-149.8 24.1,-149.8 24.1,-113.8 183.9,-113.8 183.9,-149.8"/>
<text text-anchor="middle" x="104" y="-127.6" font-family="Times,serif" font-size="14.00">StopPointRoutingModule</text>
</g>
<!-- StopPointRoutingModule&#45;&gt;StopPointModule -->
<g id="edge7" class="edge">
<title>StopPointRoutingModule&#45;&gt;StopPointModule</title>
<path fill="none" stroke="black" d="M104,-150.08C104,-171.12 104,-202.8 104,-202.8 104,-202.8 404.5,-202.8 404.5,-202.8"/>
<polygon fill="black" stroke="black" points="404.5,-206.3 414.5,-202.8 404.5,-199.3 404.5,-206.3"/>
</g>
</g>
</svg>
