<?xml version="1.0" encoding="UTF-8" standalone="no"?>
<!DOCTYPE svg PUBLIC "-//W3C//DTD SVG 1.1//EN"
 "http://www.w3.org/Graphics/SVG/1.1/DTD/svg11.dtd">
<!-- Generated by graphviz version 5.0.0 (20220707.1540)
 -->
<!-- Title: dependencies Pages: 1 -->
<svg width="1230pt" height="239pt"
 viewBox="0.00 0.00 1230.00 238.80" xmlns="http://www.w3.org/2000/svg" xmlns:xlink="http://www.w3.org/1999/xlink">
<g id="graph0" class="graph" transform="scale(1 1) rotate(0) translate(4 234.8)">
<title>dependencies</title>
<polygon fill="white" stroke="transparent" points="-4,4 -4,-234.8 1226,-234.8 1226,4 -4,4"/>
<text text-anchor="middle" x="611" y="-8.2" font-family="sans-serif" font-size="14.00">dependencies</text>
<g id="clust1" class="cluster">
<title>cluster_StopPointModule</title>
<polygon fill="none" stroke="black" stroke-dasharray="1,5" points="8,-32.8 8,-222.8 1214,-222.8 1214,-32.8 8,-32.8"/>
</g>
<g id="clust4" class="cluster">
<title>cluster_StopPointModule_imports</title>
<polygon fill="none" stroke="black" points="452,-105.8 452,-157.8 1206,-157.8 1206,-105.8 452,-105.8"/>
</g>
<g id="clust3" class="cluster">
<title>cluster_StopPointModule_StopPointInfoComponent_providers</title>
<polygon fill="none" stroke="black" points="240,-40.8 240,-157.8 444,-157.8 444,-40.8 240,-40.8"/>
</g>
<g id="clust7" class="cluster">
<title>cluster_StopPointModule_providers</title>
<polygon fill="none" stroke="black" points="16,-105.8 16,-157.8 232,-157.8 232,-105.8 16,-105.8"/>
</g>
<!-- StopPointInfoComponent -->
<g id="node1" class="node">
<title>StopPointInfoComponent</title>
<polygon fill="#ffffb3" stroke="black" points="428.9,-149.8 269.1,-149.8 269.1,-113.8 428.9,-113.8 428.9,-149.8"/>
<text text-anchor="middle" x="349" y="-127.6" font-family="Times,serif" font-size="14.00">StopPointInfoComponent</text>
</g>
<!-- StopPointModule -->
<g id="node2" class="node">
<title>StopPointModule</title>
<polygon fill="#8dd3c7" stroke="black" points="752.29,-214.8 749.29,-218.8 728.29,-218.8 725.29,-214.8 637.71,-214.8 637.71,-178.8 752.29,-178.8 752.29,-214.8"/>
<text text-anchor="middle" x="695" y="-192.6" font-family="Times,serif" font-size="14.00">StopPointModule</text>
</g>
<!-- StopPointInfoComponent&#45;&gt;StopPointModule -->
<g id="edge1" class="edge">
<title>StopPointInfoComponent&#45;&gt;StopPointModule</title>
<path fill="none" stroke="black" d="M349,-149.91C349,-169.14 349,-196.8 349,-196.8 349,-196.8 627.48,-196.8 627.48,-196.8"/>
<polygon fill="black" stroke="black" points="627.48,-200.3 637.48,-196.8 627.48,-193.3 627.48,-200.3"/>
</g>
<!-- StopPointInfoService -->
<g id="node3" class="node">
<title>StopPointInfoService</title>
<ellipse fill="#fdb462" stroke="black" cx="342" cy="-66.8" rx="94.37" ry="18"/>
<text text-anchor="middle" x="342" y="-62.6" font-family="Times,serif" font-size="14.00">StopPointInfoService</text>
</g>
<!-- StopPointInfoService&#45;&gt;StopPointInfoComponent -->
<g id="edge2" class="edge">
<title>StopPointInfoService&#45;&gt;StopPointInfoComponent</title>
<path fill="none" stroke="black" d="M349,-84.91C349,-84.91 349,-103.79 349,-103.79"/>
<polygon fill="black" stroke="black" points="345.5,-103.79 349,-113.79 352.5,-103.79 345.5,-103.79"/>
</g>
<!-- DepartureListModule -->
<g id="node4" class="node">
<title>DepartureListModule</title>
<polygon fill="#8dd3c7" stroke="black" points="1197.8,-149.8 1194.8,-153.8 1173.8,-153.8 1170.8,-149.8 1060.2,-149.8 1060.2,-113.8 1197.8,-113.8 1197.8,-149.8"/>
<text text-anchor="middle" x="1129" y="-127.6" font-family="Times,serif" font-size="14.00">DepartureListModule</text>
</g>
<!-- DepartureListModule&#45;&gt;StopPointModule -->
<g id="edge3" class="edge">
<title>DepartureListModule&#45;&gt;StopPointModule</title>
<path fill="none" stroke="black" d="M1129,-150.09C1129,-172.01 1129,-205.8 1129,-205.8 1129,-205.8 762.63,-205.8 762.63,-205.8"/>
<polygon fill="black" stroke="black" points="762.63,-202.3 752.63,-205.8 762.63,-209.3 762.63,-202.3"/>
</g>
<!-- HeaderBoxModule -->
<g id="node5" class="node">
<title>HeaderBoxModule</title>
<polygon fill="#8dd3c7" stroke="black" points="1042.8,-149.8 1039.8,-153.8 1018.8,-153.8 1015.8,-149.8 919.2,-149.8 919.2,-113.8 1042.8,-113.8 1042.8,-149.8"/>
<text text-anchor="middle" x="981" y="-127.6" font-family="Times,serif" font-size="14.00">HeaderBoxModule</text>
</g>
<!-- HeaderBoxModule&#45;&gt;StopPointModule -->
<g id="edge4" class="edge">
<title>HeaderBoxModule&#45;&gt;StopPointModule</title>
<path fill="none" stroke="black" d="M981,-149.91C981,-169.14 981,-196.8 981,-196.8 981,-196.8 762.53,-196.8 762.53,-196.8"/>
<polygon fill="black" stroke="black" points="762.53,-193.3 752.53,-196.8 762.53,-200.3 762.53,-193.3"/>
</g>
<!-- OlStaticMapModule -->
<g id="node6" class="node">
<title>OlStaticMapModule</title>
<polygon fill="#8dd3c7" stroke="black" points="901.6,-149.8 898.6,-153.8 877.6,-153.8 874.6,-149.8 770.4,-149.8 770.4,-113.8 901.6,-113.8 901.6,-149.8"/>
<text text-anchor="middle" x="836" y="-127.6" font-family="Times,serif" font-size="14.00">OlStaticMapModule</text>
</g>
<!-- OlStaticMapModule&#45;&gt;StopPointModule -->
<g id="edge5" class="edge">
<title>OlStaticMapModule&#45;&gt;StopPointModule</title>
<path fill="none" stroke="black" d="M836,-149.83C836,-166.2 836,-187.8 836,-187.8 836,-187.8 762.35,-187.8 762.35,-187.8"/>
<polygon fill="black" stroke="black" points="762.35,-184.3 752.35,-187.8 762.35,-191.3 762.35,-184.3"/>
</g>
<!-- RouteListModule -->
<g id="node7" class="node">
<title>RouteListModule</title>
<polygon fill="#8dd3c7" stroke="black" points="752.27,-149.8 749.27,-153.8 728.27,-153.8 725.27,-149.8 637.73,-149.8 637.73,-113.8 752.27,-113.8 752.27,-149.8"/>
<text text-anchor="middle" x="695" y="-127.6" font-family="Times,serif" font-size="14.00">RouteListModule</text>
</g>
<!-- RouteListModule&#45;&gt;StopPointModule -->
<g id="edge6" class="edge">
<title>RouteListModule&#45;&gt;StopPointModule</title>
<path fill="none" stroke="black" d="M695,-149.91C695,-149.91 695,-168.79 695,-168.79"/>
<polygon fill="black" stroke="black" points="691.5,-168.79 695,-178.79 698.5,-168.79 691.5,-168.79"/>
</g>
<!-- StopPointRoutingModule -->
<g id="node8" class="node">
<title>StopPointRoutingModule</title>
<polygon fill="#8dd3c7" stroke="black" points="619.91,-149.8 616.91,-153.8 595.91,-153.8 592.91,-149.8 460.09,-149.8 460.09,-113.8 619.91,-113.8 619.91,-149.8"/>
<text text-anchor="middle" x="540" y="-127.6" font-family="Times,serif" font-size="14.00">StopPointRoutingModule</text>
</g>
<!-- StopPointRoutingModule&#45;&gt;StopPointModule -->
<g id="edge7" class="edge">
<title>StopPointRoutingModule&#45;&gt;StopPointModule</title>
<path fill="none" stroke="black" d="M540,-149.83C540,-166.2 540,-187.8 540,-187.8 540,-187.8 627.28,-187.8 627.28,-187.8"/>
<polygon fill="black" stroke="black" points="627.28,-191.3 637.28,-187.8 627.28,-184.3 627.28,-191.3"/>
</g>
<!-- StopPointInfoResolver -->
<g id="node9" class="node">
<title>StopPointInfoResolver</title>
<ellipse fill="#fdb462" stroke="black" cx="124" cy="-131.8" rx="99.61" ry="18"/>
<text text-anchor="middle" x="124" y="-127.6" font-family="Times,serif" font-size="14.00">StopPointInfoResolver</text>
</g>
<!-- StopPointInfoResolver&#45;&gt;StopPointModule -->
<g id="edge8" class="edge">
<title>StopPointInfoResolver&#45;&gt;StopPointModule</title>
<path fill="none" stroke="black" d="M124,-150.09C124,-172.01 124,-205.8 124,-205.8 124,-205.8 627.64,-205.8 627.64,-205.8"/>
<polygon fill="black" stroke="black" points="627.64,-209.3 637.64,-205.8 627.64,-202.3 627.64,-209.3"/>
</g>
</g>
</svg>
