<?xml version="1.0" encoding="UTF-8" standalone="no"?>
<!DOCTYPE svg PUBLIC "-//W3C//DTD SVG 1.1//EN"
 "http://www.w3.org/Graphics/SVG/1.1/DTD/svg11.dtd">
<!-- Generated by graphviz version 2.47.3 (20210619.1520)
 -->
<!-- Title: dependencies Pages: 1 -->
<svg width="1202pt" height="239pt"
 viewBox="0.00 0.00 1202.00 238.80" xmlns="http://www.w3.org/2000/svg" xmlns:xlink="http://www.w3.org/1999/xlink">
<g id="graph0" class="graph" transform="scale(1 1) rotate(0) translate(4 234.8)">
<title>dependencies</title>
<polygon fill="white" stroke="transparent" points="-4,4 -4,-234.8 1198,-234.8 1198,4 -4,4"/>
<text text-anchor="middle" x="597" y="-8.2" font-family="sans-serif" font-size="14.00">dependencies</text>
<g id="clust1" class="cluster">
<title>cluster_StopPointModule</title>
<polygon fill="none" stroke="black" stroke-dasharray="1,5" points="8,-32.8 8,-222.8 1186,-222.8 1186,-32.8 8,-32.8"/>
</g>
<g id="clust7" class="cluster">
<title>cluster_StopPointModule_providers</title>
<polygon fill="none" stroke="black" points="962,-105.8 962,-157.8 1178,-157.8 1178,-105.8 962,-105.8"/>
</g>
<g id="clust4" class="cluster">
<title>cluster_StopPointModule_imports</title>
<polygon fill="none" stroke="black" points="200,-105.8 200,-157.8 954,-157.8 954,-105.8 200,-105.8"/>
</g>
<g id="clust2" class="cluster">
<title>cluster_StopPointModule_declarations</title>
<polygon fill="none" stroke="black" points="16,-105.8 16,-157.8 192,-157.8 192,-105.8 16,-105.8"/>
</g>
<g id="clust3" class="cluster">
<title>cluster_StopPointModule_StopPointInfoComponent_providers</title>
<polygon fill="none" stroke="black" points="16,-40.8 16,-92.8 220,-92.8 220,-40.8 16,-40.8"/>
</g>
<!-- StopPointInfoComponent -->
<g id="node1" class="node">
<title>StopPointInfoComponent</title>
<polygon fill="#ffffb3" stroke="black" points="183.89,-149.8 24.11,-149.8 24.11,-113.8 183.89,-113.8 183.89,-149.8"/>
<text text-anchor="middle" x="104" y="-127.6" font-family="Times,serif" font-size="14.00">StopPointInfoComponent</text>
</g>
<!-- StopPointModule -->
<g id="node2" class="node">
<title>StopPointModule</title>
<polygon fill="#8dd3c7" stroke="black" points="641.29,-214.8 638.29,-218.8 617.29,-218.8 614.29,-214.8 526.71,-214.8 526.71,-178.8 641.29,-178.8 641.29,-214.8"/>
<text text-anchor="middle" x="584" y="-192.6" font-family="Times,serif" font-size="14.00">StopPointModule</text>
</g>
<!-- StopPointInfoComponent&#45;&gt;StopPointModule -->
<g id="edge1" class="edge">
<title>StopPointInfoComponent&#45;&gt;StopPointModule</title>
<path fill="none" stroke="black" d="M104,-150.09C104,-172.01 104,-205.8 104,-205.8 104,-205.8 516.58,-205.8 516.58,-205.8"/>
<polygon fill="black" stroke="black" points="516.58,-209.3 526.58,-205.8 516.58,-202.3 516.58,-209.3"/>
</g>
<!-- StopPointInfoService -->
<g id="node3" class="node">
<title>StopPointInfoService</title>
<ellipse fill="#fdb462" stroke="black" cx="118" cy="-66.8" rx="94.36" ry="18"/>
<text text-anchor="middle" x="118" y="-62.6" font-family="Times,serif" font-size="14.00">StopPointInfoService</text>
</g>
<!-- StopPointInfoService&#45;&gt;StopPointInfoComponent -->
<g id="edge2" class="edge">
<title>StopPointInfoService&#45;&gt;StopPointInfoComponent</title>
<path fill="none" stroke="black" d="M104,-84.91C104,-84.91 104,-103.79 104,-103.79"/>
<polygon fill="black" stroke="black" points="100.5,-103.79 104,-113.79 107.5,-103.79 100.5,-103.79"/>
</g>
<!-- DepartureListModule -->
<g id="node4" class="node">
<title>DepartureListModule</title>
<polygon fill="#8dd3c7" stroke="black" points="945.79,-149.8 942.79,-153.8 921.79,-153.8 918.79,-149.8 808.21,-149.8 808.21,-113.8 945.79,-113.8 945.79,-149.8"/>
<text text-anchor="middle" x="877" y="-127.6" font-family="Times,serif" font-size="14.00">DepartureListModule</text>
</g>
<!-- DepartureListModule&#45;&gt;StopPointModule -->
<g id="edge3" class="edge">
<title>DepartureListModule&#45;&gt;StopPointModule</title>
<path fill="none" stroke="black" d="M877,-149.91C877,-169.14 877,-196.8 877,-196.8 877,-196.8 651.54,-196.8 651.54,-196.8"/>
<polygon fill="black" stroke="black" points="651.54,-193.3 641.54,-196.8 651.54,-200.3 651.54,-193.3"/>
</g>
<!-- HeaderBoxModule -->
<g id="node5" class="node">
<title>HeaderBoxModule</title>
<polygon fill="#8dd3c7" stroke="black" points="790.8,-149.8 787.8,-153.8 766.8,-153.8 763.8,-149.8 667.2,-149.8 667.2,-113.8 790.8,-113.8 790.8,-149.8"/>
<text text-anchor="middle" x="729" y="-127.6" font-family="Times,serif" font-size="14.00">HeaderBoxModule</text>
</g>
<!-- HeaderBoxModule&#45;&gt;StopPointModule -->
<g id="edge4" class="edge">
<title>HeaderBoxModule&#45;&gt;StopPointModule</title>
<path fill="none" stroke="black" d="M729,-149.83C729,-166.2 729,-187.8 729,-187.8 729,-187.8 651.31,-187.8 651.31,-187.8"/>
<polygon fill="black" stroke="black" points="651.31,-184.3 641.31,-187.8 651.31,-191.3 651.31,-184.3"/>
</g>
<!-- OlStaticMapModule -->
<g id="node6" class="node">
<title>OlStaticMapModule</title>
<polygon fill="#8dd3c7" stroke="black" points="649.59,-149.8 646.59,-153.8 625.59,-153.8 622.59,-149.8 518.41,-149.8 518.41,-113.8 649.59,-113.8 649.59,-149.8"/>
<text text-anchor="middle" x="584" y="-127.6" font-family="Times,serif" font-size="14.00">OlStaticMapModule</text>
</g>
<!-- OlStaticMapModule&#45;&gt;StopPointModule -->
<g id="edge5" class="edge">
<title>OlStaticMapModule&#45;&gt;StopPointModule</title>
<path fill="none" stroke="black" d="M584,-149.91C584,-149.91 584,-168.79 584,-168.79"/>
<polygon fill="black" stroke="black" points="580.5,-168.79 584,-178.79 587.5,-168.79 580.5,-168.79"/>
</g>
<!-- RouteListModule -->
<g id="node7" class="node">
<title>RouteListModule</title>
<polygon fill="#8dd3c7" stroke="black" points="500.27,-149.8 497.27,-153.8 476.27,-153.8 473.27,-149.8 385.73,-149.8 385.73,-113.8 500.27,-113.8 500.27,-149.8"/>
<text text-anchor="middle" x="443" y="-127.6" font-family="Times,serif" font-size="14.00">RouteListModule</text>
</g>
<!-- RouteListModule&#45;&gt;StopPointModule -->
<g id="edge6" class="edge">
<title>RouteListModule&#45;&gt;StopPointModule</title>
<path fill="none" stroke="black" d="M443,-149.83C443,-166.2 443,-187.8 443,-187.8 443,-187.8 516.65,-187.8 516.65,-187.8"/>
<polygon fill="black" stroke="black" points="516.65,-191.3 526.65,-187.8 516.65,-184.3 516.65,-191.3"/>
</g>
<!-- StopPointRoutingModule -->
<g id="node8" class="node">
<title>StopPointRoutingModule</title>
<polygon fill="#8dd3c7" stroke="black" points="367.9,-149.8 364.9,-153.8 343.9,-153.8 340.9,-149.8 208.1,-149.8 208.1,-113.8 367.9,-113.8 367.9,-149.8"/>
<text text-anchor="middle" x="288" y="-127.6" font-family="Times,serif" font-size="14.00">StopPointRoutingModule</text>
</g>
<!-- StopPointRoutingModule&#45;&gt;StopPointModule -->
<g id="edge7" class="edge">
<title>StopPointRoutingModule&#45;&gt;StopPointModule</title>
<path fill="none" stroke="black" d="M288,-149.91C288,-169.14 288,-196.8 288,-196.8 288,-196.8 516.58,-196.8 516.58,-196.8"/>
<polygon fill="black" stroke="black" points="516.58,-200.3 526.58,-196.8 516.58,-193.3 516.58,-200.3"/>
</g>
<!-- StopPointInfoResolver -->
<g id="node9" class="node">
<title>StopPointInfoResolver</title>
<ellipse fill="#fdb462" stroke="black" cx="1070" cy="-131.8" rx="99.6" ry="18"/>
<text text-anchor="middle" x="1070" y="-127.6" font-family="Times,serif" font-size="14.00">StopPointInfoResolver</text>
</g>
<!-- StopPointInfoResolver&#45;&gt;StopPointModule -->
<g id="edge8" class="edge">
<title>StopPointInfoResolver&#45;&gt;StopPointModule</title>
<path fill="none" stroke="black" d="M1070,-150.09C1070,-172.01 1070,-205.8 1070,-205.8 1070,-205.8 651.66,-205.8 651.66,-205.8"/>
<polygon fill="black" stroke="black" points="651.66,-202.3 641.66,-205.8 651.66,-209.3 651.66,-202.3"/>
</g>
</g>
</svg>
