<?xml version="1.0" encoding="UTF-8" standalone="no"?>
<!DOCTYPE svg PUBLIC "-//W3C//DTD SVG 1.1//EN"
 "http://www.w3.org/Graphics/SVG/1.1/DTD/svg11.dtd">
<!-- Generated by graphviz version 3.0.0 (20220226.1711)
 -->
<!-- Title: dependencies Pages: 1 -->
<svg width="1202pt" height="239pt"
 viewBox="0.00 0.00 1202.00 238.80" xmlns="http://www.w3.org/2000/svg" xmlns:xlink="http://www.w3.org/1999/xlink">
<g id="graph0" class="graph" transform="scale(1 1) rotate(0) translate(4 234.8)">
<title>dependencies</title>
<polygon fill="white" stroke="transparent" points="-4,4 -4,-234.8 1198,-234.8 1198,4 -4,4"/>
<text text-anchor="middle" x="597" y="-8.2" font-family="sans-serif" font-size="14.00">dependencies</text>
<g id="clust1" class="cluster">
<title>cluster_StopPointModule</title>
<polygon fill="none" stroke="black" stroke-dasharray="1,5" points="8,-32.8 8,-222.8 1186,-222.8 1186,-32.8 8,-32.8"/>
</g>
<g id="clust2" class="cluster">
<title>cluster_StopPointModule_declarations</title>
<polygon fill="none" stroke="black" points="1002,-105.8 1002,-157.8 1178,-157.8 1178,-105.8 1002,-105.8"/>
</g>
<g id="clust3" class="cluster">
<title>cluster_StopPointModule_StopPointInfoComponent_providers</title>
<polygon fill="none" stroke="black" points="974,-40.8 974,-92.8 1178,-92.8 1178,-40.8 974,-40.8"/>
</g>
<g id="clust4" class="cluster">
<title>cluster_StopPointModule_imports</title>
<polygon fill="none" stroke="black" points="240,-105.8 240,-157.8 994,-157.8 994,-105.8 240,-105.8"/>
</g>
<g id="clust7" class="cluster">
<title>cluster_StopPointModule_providers</title>
<polygon fill="none" stroke="black" points="16,-105.8 16,-157.8 232,-157.8 232,-105.8 16,-105.8"/>
</g>
<!-- StopPointInfoComponent -->
<g id="node1" class="node">
<title>StopPointInfoComponent</title>
<polygon fill="#ffffb3" stroke="black" points="1169.9,-149.8 1010.1,-149.8 1010.1,-113.8 1169.9,-113.8 1169.9,-149.8"/>
<text text-anchor="middle" x="1090" y="-127.6" font-family="Times,serif" font-size="14.00">StopPointInfoComponent</text>
</g>
<!-- StopPointModule -->
<g id="node2" class="node">
<title>StopPointModule</title>
<polygon fill="#8dd3c7" stroke="black" points="681.29,-214.8 678.29,-218.8 657.29,-218.8 654.29,-214.8 566.71,-214.8 566.71,-178.8 681.29,-178.8 681.29,-214.8"/>
<text text-anchor="middle" x="624" y="-192.6" font-family="Times,serif" font-size="14.00">StopPointModule</text>
</g>
<!-- StopPointInfoComponent&#45;&gt;StopPointModule -->
<g id="edge1" class="edge">
<title>StopPointInfoComponent&#45;&gt;StopPointModule</title>
<path fill="none" stroke="black" d="M1090,-150.09C1090,-172.01 1090,-205.8 1090,-205.8 1090,-205.8 691.61,-205.8 691.61,-205.8"/>
<polygon fill="black" stroke="black" points="691.61,-202.3 681.61,-205.8 691.61,-209.3 691.61,-202.3"/>
</g>
<!-- StopPointInfoService -->
<g id="node3" class="node">
<title>StopPointInfoService</title>
<ellipse fill="#fdb462" stroke="black" cx="1076" cy="-66.8" rx="94.37" ry="18"/>
<text text-anchor="middle" x="1076" y="-62.6" font-family="Times,serif" font-size="14.00">StopPointInfoService</text>
</g>
<!-- StopPointInfoService&#45;&gt;StopPointInfoComponent -->
<g id="edge2" class="edge">
<title>StopPointInfoService&#45;&gt;StopPointInfoComponent</title>
<path fill="none" stroke="black" d="M1090,-84.91C1090,-84.91 1090,-103.79 1090,-103.79"/>
<polygon fill="black" stroke="black" points="1086.5,-103.79 1090,-113.79 1093.5,-103.79 1086.5,-103.79"/>
</g>
<!-- DepartureListModule -->
<g id="node4" class="node">
<title>DepartureListModule</title>
<polygon fill="#8dd3c7" stroke="black" points="985.8,-149.8 982.8,-153.8 961.8,-153.8 958.8,-149.8 848.2,-149.8 848.2,-113.8 985.8,-113.8 985.8,-149.8"/>
<text text-anchor="middle" x="917" y="-127.6" font-family="Times,serif" font-size="14.00">DepartureListModule</text>
</g>
<!-- DepartureListModule&#45;&gt;StopPointModule -->
<g id="edge3" class="edge">
<title>DepartureListModule&#45;&gt;StopPointModule</title>
<path fill="none" stroke="black" d="M917,-149.91C917,-169.14 917,-196.8 917,-196.8 917,-196.8 691.54,-196.8 691.54,-196.8"/>
<polygon fill="black" stroke="black" points="691.54,-193.3 681.54,-196.8 691.54,-200.3 691.54,-193.3"/>
</g>
<!-- HeaderBoxModule -->
<g id="node5" class="node">
<title>HeaderBoxModule</title>
<polygon fill="#8dd3c7" stroke="black" points="830.8,-149.8 827.8,-153.8 806.8,-153.8 803.8,-149.8 707.2,-149.8 707.2,-113.8 830.8,-113.8 830.8,-149.8"/>
<text text-anchor="middle" x="769" y="-127.6" font-family="Times,serif" font-size="14.00">HeaderBoxModule</text>
</g>
<!-- HeaderBoxModule&#45;&gt;StopPointModule -->
<g id="edge4" class="edge">
<title>HeaderBoxModule&#45;&gt;StopPointModule</title>
<path fill="none" stroke="black" d="M769,-149.83C769,-166.2 769,-187.8 769,-187.8 769,-187.8 691.31,-187.8 691.31,-187.8"/>
<polygon fill="black" stroke="black" points="691.31,-184.3 681.31,-187.8 691.31,-191.3 691.31,-184.3"/>
</g>
<!-- OlStaticMapModule -->
<g id="node6" class="node">
<title>OlStaticMapModule</title>
<polygon fill="#8dd3c7" stroke="black" points="689.6,-149.8 686.6,-153.8 665.6,-153.8 662.6,-149.8 558.4,-149.8 558.4,-113.8 689.6,-113.8 689.6,-149.8"/>
<text text-anchor="middle" x="624" y="-127.6" font-family="Times,serif" font-size="14.00">OlStaticMapModule</text>
</g>
<!-- OlStaticMapModule&#45;&gt;StopPointModule -->
<g id="edge5" class="edge">
<title>OlStaticMapModule&#45;&gt;StopPointModule</title>
<path fill="none" stroke="black" d="M624,-149.91C624,-149.91 624,-168.79 624,-168.79"/>
<polygon fill="black" stroke="black" points="620.5,-168.79 624,-178.79 627.5,-168.79 620.5,-168.79"/>
</g>
<!-- RouteListModule -->
<g id="node7" class="node">
<title>RouteListModule</title>
<polygon fill="#8dd3c7" stroke="black" points="540.27,-149.8 537.27,-153.8 516.27,-153.8 513.27,-149.8 425.73,-149.8 425.73,-113.8 540.27,-113.8 540.27,-149.8"/>
<text text-anchor="middle" x="483" y="-127.6" font-family="Times,serif" font-size="14.00">RouteListModule</text>
</g>
<!-- RouteListModule&#45;&gt;StopPointModule -->
<g id="edge6" class="edge">
<title>RouteListModule&#45;&gt;StopPointModule</title>
<path fill="none" stroke="black" d="M483,-149.83C483,-166.2 483,-187.8 483,-187.8 483,-187.8 556.65,-187.8 556.65,-187.8"/>
<polygon fill="black" stroke="black" points="556.65,-191.3 566.65,-187.8 556.65,-184.3 556.65,-191.3"/>
</g>
<!-- StopPointRoutingModule -->
<g id="node8" class="node">
<title>StopPointRoutingModule</title>
<polygon fill="#8dd3c7" stroke="black" points="407.91,-149.8 404.91,-153.8 383.91,-153.8 380.91,-149.8 248.09,-149.8 248.09,-113.8 407.91,-113.8 407.91,-149.8"/>
<text text-anchor="middle" x="328" y="-127.6" font-family="Times,serif" font-size="14.00">StopPointRoutingModule</text>
</g>
<!-- StopPointRoutingModule&#45;&gt;StopPointModule -->
<g id="edge7" class="edge">
<title>StopPointRoutingModule&#45;&gt;StopPointModule</title>
<path fill="none" stroke="black" d="M328,-149.91C328,-169.14 328,-196.8 328,-196.8 328,-196.8 556.58,-196.8 556.58,-196.8"/>
<polygon fill="black" stroke="black" points="556.58,-200.3 566.58,-196.8 556.58,-193.3 556.58,-200.3"/>
</g>
<!-- StopPointInfoResolver -->
<g id="node9" class="node">
<title>StopPointInfoResolver</title>
<ellipse fill="#fdb462" stroke="black" cx="124" cy="-131.8" rx="99.61" ry="18"/>
<text text-anchor="middle" x="124" y="-127.6" font-family="Times,serif" font-size="14.00">StopPointInfoResolver</text>
</g>
<!-- StopPointInfoResolver&#45;&gt;StopPointModule -->
<g id="edge8" class="edge">
<title>StopPointInfoResolver&#45;&gt;StopPointModule</title>
<path fill="none" stroke="black" d="M124,-150.09C124,-172.01 124,-205.8 124,-205.8 124,-205.8 556.64,-205.8 556.64,-205.8"/>
<polygon fill="black" stroke="black" points="556.64,-209.3 566.64,-205.8 556.64,-202.3 556.64,-209.3"/>
</g>
</g>
</svg>
