<?xml version="1.0" encoding="UTF-8" standalone="no"?>
<!DOCTYPE svg PUBLIC "-//W3C//DTD SVG 1.1//EN"
 "http://www.w3.org/Graphics/SVG/1.1/DTD/svg11.dtd">
<!-- Generated by graphviz version 2.47.3 (20210619.1520)
 -->
<!-- Title: dependencies Pages: 1 -->
<svg width="777pt" height="174pt"
 viewBox="0.00 0.00 777.00 173.80" xmlns="http://www.w3.org/2000/svg" xmlns:xlink="http://www.w3.org/1999/xlink">
<g id="graph0" class="graph" transform="scale(1 1) rotate(0) translate(4 169.8)">
<title>dependencies</title>
<polygon fill="white" stroke="transparent" points="-4,4 -4,-169.8 773,-169.8 773,4 -4,4"/>
<text text-anchor="middle" x="384.5" y="-8.2" font-family="sans-serif" font-size="14.00">dependencies</text>
<g id="clust1" class="cluster">
<title>cluster_ErrorModule</title>
<polygon fill="none" stroke="black" stroke-dasharray="1,5" points="8,-32.8 8,-157.8 761,-157.8 761,-32.8 8,-32.8"/>
</g>
<g id="clust2" class="cluster">
<title>cluster_ErrorModule_declarations</title>
<polygon fill="none" stroke="black" points="174,-40.8 174,-92.8 753,-92.8 753,-40.8 174,-40.8"/>
</g>
<g id="clust6" class="cluster">
<title>cluster_ErrorModule_imports</title>
<polygon fill="none" stroke="black" points="16,-40.8 16,-92.8 166,-92.8 166,-40.8 16,-40.8"/>
</g>
<!-- CommonErrorComponent -->
<g id="node1" class="node">
<title>CommonErrorComponent</title>
<polygon fill="#ffffb3" stroke="black" points="745.48,-84.8 582.52,-84.8 582.52,-48.8 745.48,-48.8 745.48,-84.8"/>
<text text-anchor="middle" x="664" y="-62.6" font-family="Times,serif" font-size="14.00">CommonErrorComponent</text>
</g>
<!-- ErrorModule -->
<g id="node4" class="node">
<title>ErrorModule</title>
<polygon fill="#8dd3c7" stroke="black" points="439.58,-149.8 436.58,-153.8 415.58,-153.8 412.58,-149.8 350.42,-149.8 350.42,-113.8 439.58,-113.8 439.58,-149.8"/>
<text text-anchor="middle" x="395" y="-127.6" font-family="Times,serif" font-size="14.00">ErrorModule</text>
</g>
<!-- CommonErrorComponent&#45;&gt;ErrorModule -->
<g id="edge1" class="edge">
<title>CommonErrorComponent&#45;&gt;ErrorModule</title>
<path fill="none" stroke="black" d="M664,-84.91C664,-104.14 664,-131.8 664,-131.8 664,-131.8 449.72,-131.8 449.72,-131.8"/>
<polygon fill="black" stroke="black" points="449.72,-128.3 439.72,-131.8 449.72,-135.3 449.72,-128.3"/>
</g>
<!-- NotFoundComponent -->
<g id="node2" class="node">
<title>NotFoundComponent</title>
<polygon fill="#ffffb3" stroke="black" points="564.11,-84.8 425.89,-84.8 425.89,-48.8 564.11,-48.8 564.11,-84.8"/>
<text text-anchor="middle" x="495" y="-62.6" font-family="Times,serif" font-size="14.00">NotFoundComponent</text>
</g>
<!-- NotFoundComponent&#45;&gt;ErrorModule -->
<g id="edge2" class="edge">
<title>NotFoundComponent&#45;&gt;ErrorModule</title>
<path fill="none" stroke="black" d="M432.74,-84.91C432.74,-84.91 432.74,-103.79 432.74,-103.79"/>
<polygon fill="black" stroke="black" points="429.24,-103.79 432.74,-113.79 436.24,-103.79 429.24,-103.79"/>
</g>
<!-- NotFoundMessageSwitchComponent -->
<g id="node3" class="node">
<title>NotFoundMessageSwitchComponent</title>
<polygon fill="#ffffb3" stroke="black" points="407.97,-84.8 182.03,-84.8 182.03,-48.8 407.97,-48.8 407.97,-84.8"/>
<text text-anchor="middle" x="295" y="-62.6" font-family="Times,serif" font-size="14.00">NotFoundMessageSwitchComponent</text>
</g>
<!-- NotFoundMessageSwitchComponent&#45;&gt;ErrorModule -->
<g id="edge3" class="edge">
<title>NotFoundMessageSwitchComponent&#45;&gt;ErrorModule</title>
<path fill="none" stroke="black" d="M379.22,-84.91C379.22,-84.91 379.22,-103.79 379.22,-103.79"/>
<polygon fill="black" stroke="black" points="375.72,-103.79 379.22,-113.79 382.72,-103.79 375.72,-103.79"/>
</g>
<!-- ErrorRoutingModule -->
<g id="node5" class="node">
<title>ErrorRoutingModule</title>
<polygon fill="#8dd3c7" stroke="black" points="158.2,-84.8 155.2,-88.8 134.2,-88.8 131.2,-84.8 23.8,-84.8 23.8,-48.8 158.2,-48.8 158.2,-84.8"/>
<text text-anchor="middle" x="91" y="-62.6" font-family="Times,serif" font-size="14.00">ErrorRoutingModule</text>
</g>
<!-- ErrorRoutingModule&#45;&gt;ErrorModule -->
<g id="edge4" class="edge">
<title>ErrorRoutingModule&#45;&gt;ErrorModule</title>
<path fill="none" stroke="black" d="M91,-84.91C91,-104.14 91,-131.8 91,-131.8 91,-131.8 340.14,-131.8 340.14,-131.8"/>
<polygon fill="black" stroke="black" points="340.14,-135.3 350.14,-131.8 340.14,-128.3 340.14,-135.3"/>
</g>
</g>
</svg>
