<?xml version="1.0" encoding="UTF-8" standalone="no"?>
<!DOCTYPE svg PUBLIC "-//W3C//DTD SVG 1.1//EN"
 "http://www.w3.org/Graphics/SVG/1.1/DTD/svg11.dtd">
<!-- Generated by graphviz version 3.0.0 (20220226.1711)
 -->
<!-- Title: dependencies Pages: 1 -->
<svg width="777pt" height="174pt"
 viewBox="0.00 0.00 777.00 173.80" xmlns="http://www.w3.org/2000/svg" xmlns:xlink="http://www.w3.org/1999/xlink">
<g id="graph0" class="graph" transform="scale(1 1) rotate(0) translate(4 169.8)">
<title>dependencies</title>
<polygon fill="white" stroke="transparent" points="-4,4 -4,-169.8 773,-169.8 773,4 -4,4"/>
<text text-anchor="middle" x="384.5" y="-8.2" font-family="sans-serif" font-size="14.00">dependencies</text>
<g id="clust1" class="cluster">
<title>cluster_ErrorModule</title>
<polygon fill="none" stroke="black" stroke-dasharray="1,5" points="8,-32.8 8,-157.8 761,-157.8 761,-32.8 8,-32.8"/>
</g>
<g id="clust6" class="cluster">
<title>cluster_ErrorModule_imports</title>
<polygon fill="none" stroke="black" points="603,-40.8 603,-92.8 753,-92.8 753,-40.8 603,-40.8"/>
</g>
<g id="clust2" class="cluster">
<title>cluster_ErrorModule_declarations</title>
<polygon fill="none" stroke="black" points="16,-40.8 16,-92.8 595,-92.8 595,-40.8 16,-40.8"/>
</g>
<!-- CommonErrorComponent -->
<g id="node1" class="node">
<title>CommonErrorComponent</title>
<polygon fill="#ffffb3" stroke="black" points="587.49,-84.8 424.51,-84.8 424.51,-48.8 587.49,-48.8 587.49,-84.8"/>
<text text-anchor="middle" x="506" y="-62.6" font-family="Times,serif" font-size="14.00">CommonErrorComponent</text>
</g>
<!-- ErrorModule -->
<g id="node4" class="node">
<title>ErrorModule</title>
<polygon fill="#8dd3c7" stroke="black" points="465.59,-149.8 462.59,-153.8 441.59,-153.8 438.59,-149.8 376.41,-149.8 376.41,-113.8 465.59,-113.8 465.59,-149.8"/>
<text text-anchor="middle" x="421" y="-127.6" font-family="Times,serif" font-size="14.00">ErrorModule</text>
</g>
<!-- CommonErrorComponent&#45;&gt;ErrorModule -->
<g id="edge1" class="edge">
<title>CommonErrorComponent&#45;&gt;ErrorModule</title>
<path fill="none" stroke="black" d="M445.03,-84.91C445.03,-84.91 445.03,-103.79 445.03,-103.79"/>
<polygon fill="black" stroke="black" points="441.53,-103.79 445.03,-113.79 448.53,-103.79 441.53,-103.79"/>
</g>
<!-- NotFoundComponent -->
<g id="node2" class="node">
<title>NotFoundComponent</title>
<polygon fill="#ffffb3" stroke="black" points="406.12,-84.8 267.88,-84.8 267.88,-48.8 406.12,-48.8 406.12,-84.8"/>
<text text-anchor="middle" x="337" y="-62.6" font-family="Times,serif" font-size="14.00">NotFoundComponent</text>
</g>
<!-- NotFoundComponent&#45;&gt;ErrorModule -->
<g id="edge2" class="edge">
<title>NotFoundComponent&#45;&gt;ErrorModule</title>
<path fill="none" stroke="black" d="M391.26,-84.91C391.26,-84.91 391.26,-103.79 391.26,-103.79"/>
<polygon fill="black" stroke="black" points="387.76,-103.79 391.26,-113.79 394.76,-103.79 387.76,-103.79"/>
</g>
<!-- NotFoundMessageSwitchComponent -->
<g id="node3" class="node">
<title>NotFoundMessageSwitchComponent</title>
<polygon fill="#ffffb3" stroke="black" points="249.99,-84.8 24.01,-84.8 24.01,-48.8 249.99,-48.8 249.99,-84.8"/>
<text text-anchor="middle" x="137" y="-62.6" font-family="Times,serif" font-size="14.00">NotFoundMessageSwitchComponent</text>
</g>
<!-- NotFoundMessageSwitchComponent&#45;&gt;ErrorModule -->
<g id="edge3" class="edge">
<title>NotFoundMessageSwitchComponent&#45;&gt;ErrorModule</title>
<path fill="none" stroke="black" d="M137,-84.91C137,-104.14 137,-131.8 137,-131.8 137,-131.8 366.31,-131.8 366.31,-131.8"/>
<polygon fill="black" stroke="black" points="366.31,-135.3 376.31,-131.8 366.31,-128.3 366.31,-135.3"/>
</g>
<!-- ErrorRoutingModule -->
<g id="node5" class="node">
<title>ErrorRoutingModule</title>
<polygon fill="#8dd3c7" stroke="black" points="745.21,-84.8 742.21,-88.8 721.21,-88.8 718.21,-84.8 610.79,-84.8 610.79,-48.8 745.21,-48.8 745.21,-84.8"/>
<text text-anchor="middle" x="678" y="-62.6" font-family="Times,serif" font-size="14.00">ErrorRoutingModule</text>
</g>
<!-- ErrorRoutingModule&#45;&gt;ErrorModule -->
<g id="edge4" class="edge">
<title>ErrorRoutingModule&#45;&gt;ErrorModule</title>
<path fill="none" stroke="black" d="M678,-84.91C678,-104.14 678,-131.8 678,-131.8 678,-131.8 475.77,-131.8 475.77,-131.8"/>
<polygon fill="black" stroke="black" points="475.77,-128.3 465.77,-131.8 475.77,-135.3 475.77,-128.3"/>
</g>
</g>
</svg>
