<?xml version="1.0" encoding="UTF-8" standalone="no"?>
<!DOCTYPE svg PUBLIC "-//W3C//DTD SVG 1.1//EN"
 "http://www.w3.org/Graphics/SVG/1.1/DTD/svg11.dtd">
<!-- Generated by graphviz version 5.0.0 (20220707.1540)
 -->
<!-- Title: dependencies Pages: 1 -->
<svg width="424pt" height="247pt"
 viewBox="0.00 0.00 424.00 246.80" xmlns="http://www.w3.org/2000/svg" xmlns:xlink="http://www.w3.org/1999/xlink">
<g id="graph0" class="graph" transform="scale(1 1) rotate(0) translate(4 242.8)">
<title>dependencies</title>
<polygon fill="white" stroke="transparent" points="-4,4 -4,-242.8 420,-242.8 420,4 -4,4"/>
<text text-anchor="middle" x="208" y="-8.2" font-family="sans-serif" font-size="14.00">dependencies</text>
<g id="clust1" class="cluster">
<title>cluster_DepartureListModule</title>
<polygon fill="none" stroke="black" stroke-dasharray="1,5" points="8,-32.8 8,-230.8 408,-230.8 408,-32.8 8,-32.8"/>
</g>
<g id="clust2" class="cluster">
<title>cluster_DepartureListModule_declarations</title>
<polygon fill="none" stroke="black" points="19,-40.8 19,-92.8 397,-92.8 397,-40.8 19,-40.8"/>
</g>
<g id="clust6" class="cluster">
<title>cluster_DepartureListModule_exports</title>
<polygon fill="none" stroke="black" points="16,-170.8 16,-222.8 400,-222.8 400,-170.8 16,-170.8"/>
</g>
<!-- DepartureListComponent -->
<g id="node1" class="node">
<title>DepartureListComponent</title>
<polygon fill="#ffffb3" stroke="black" points="388.58,-84.8 229.42,-84.8 229.42,-48.8 388.58,-48.8 388.58,-84.8"/>
<text text-anchor="middle" x="309" y="-62.6" font-family="Times,serif" font-size="14.00">DepartureListComponent</text>
</g>
<!-- DepartureListModule -->
<g id="node3" class="node">
<title>DepartureListModule</title>
<polygon fill="#8dd3c7" stroke="black" points="188.8,-149.8 185.8,-153.8 164.8,-153.8 161.8,-149.8 51.2,-149.8 51.2,-113.8 188.8,-113.8 188.8,-149.8"/>
<text text-anchor="middle" x="120" y="-127.6" font-family="Times,serif" font-size="14.00">DepartureListModule</text>
</g>
<!-- DepartureListComponent&#45;&gt;DepartureListModule -->
<g id="edge1" class="edge">
<title>DepartureListComponent&#45;&gt;DepartureListModule</title>
<path fill="none" stroke="black" d="M335.6,-84.82C335.6,-102.17 335.6,-125.8 335.6,-125.8 335.6,-125.8 198.81,-125.8 198.81,-125.8"/>
<polygon fill="black" stroke="black" points="198.81,-122.3 188.81,-125.8 198.81,-129.3 198.81,-122.3"/>
</g>
<!-- DepartureListItemComponent -->
<g id="node2" class="node">
<title>DepartureListItemComponent</title>
<polygon fill="#ffffb3" stroke="black" points="211.23,-84.8 26.77,-84.8 26.77,-48.8 211.23,-48.8 211.23,-84.8"/>
<text text-anchor="middle" x="119" y="-62.6" font-family="Times,serif" font-size="14.00">DepartureListItemComponent</text>
</g>
<!-- DepartureListItemComponent&#45;&gt;DepartureListModule -->
<g id="edge2" class="edge">
<title>DepartureListItemComponent&#45;&gt;DepartureListModule</title>
<path fill="none" stroke="black" d="M120,-84.91C120,-84.91 120,-103.79 120,-103.79"/>
<polygon fill="black" stroke="black" points="116.5,-103.79 120,-113.79 123.5,-103.79 116.5,-103.79"/>
</g>
<!-- DepartureListComponent  -->
<g id="node4" class="node">
<title>DepartureListComponent </title>
<polygon fill="#fb8072" stroke="black" points="392.08,-214.8 229.92,-214.8 229.92,-178.8 392.08,-178.8 392.08,-214.8"/>
<text text-anchor="middle" x="311" y="-192.6" font-family="Times,serif" font-size="14.00">DepartureListComponent </text>
</g>
<!-- DepartureListModule&#45;&gt;DepartureListComponent  -->
<g id="edge3" class="edge">
<title>DepartureListModule&#45;&gt;DepartureListComponent </title>
<path fill="none" stroke="black" stroke-dasharray="5,2" d="M188.98,-137.8C233.31,-137.8 282.65,-137.8 282.65,-137.8 282.65,-137.8 282.65,-168.78 282.65,-168.78"/>
<polygon fill="black" stroke="black" points="279.15,-168.78 282.65,-178.78 286.15,-168.78 279.15,-168.78"/>
</g>
<!-- DepartureListItemComponent  -->
<g id="node5" class="node">
<title>DepartureListItemComponent </title>
<polygon fill="#fb8072" stroke="black" points="212.23,-214.8 23.77,-214.8 23.77,-178.8 212.23,-178.8 212.23,-214.8"/>
<text text-anchor="middle" x="118" y="-192.6" font-family="Times,serif" font-size="14.00">DepartureListItemComponent </text>
</g>
<!-- DepartureListModule&#45;&gt;DepartureListItemComponent  -->
<g id="edge4" class="edge">
<title>DepartureListModule&#45;&gt;DepartureListItemComponent </title>
<path fill="none" stroke="black" stroke-dasharray="5,2" d="M120,-149.91C120,-149.91 120,-168.79 120,-168.79"/>
<polygon fill="black" stroke="black" points="116.5,-168.79 120,-178.79 123.5,-168.79 116.5,-168.79"/>
</g>
</g>
</svg>
