<?xml version="1.0" encoding="UTF-8" standalone="no"?>
<!DOCTYPE svg PUBLIC "-//W3C//DTD SVG 1.1//EN"
 "http://www.w3.org/Graphics/SVG/1.1/DTD/svg11.dtd">
<!-- Generated by graphviz version 2.47.3 (20210619.1520)
 -->
<!-- Title: dependencies Pages: 1 -->
<svg width="306pt" height="312pt"
 viewBox="0.00 0.00 306.00 311.80" xmlns="http://www.w3.org/2000/svg" xmlns:xlink="http://www.w3.org/1999/xlink">
<g id="graph0" class="graph" transform="scale(1 1) rotate(0) translate(4 307.8)">
<title>dependencies</title>
<polygon fill="white" stroke="transparent" points="-4,4 -4,-307.8 302,-307.8 302,4 -4,4"/>
<text text-anchor="middle" x="149" y="-8.2" font-family="sans-serif" font-size="14.00">dependencies</text>
<g id="clust1" class="cluster">
<title>cluster_RequestUpdateDialogModule</title>
<polygon fill="none" stroke="black" stroke-dasharray="1,5" points="8,-32.8 8,-295.8 290,-295.8 290,-32.8 8,-32.8"/>
</g>
<g id="clust5" class="cluster">
<title>cluster_RequestUpdateDialogModule_exports</title>
<polygon fill="none" stroke="black" points="37,-235.8 37,-287.8 261,-287.8 261,-235.8 37,-235.8"/>
</g>
<g id="clust2" class="cluster">
<title>cluster_RequestUpdateDialogModule_declarations</title>
<polygon fill="none" stroke="black" points="39,-105.8 39,-157.8 259,-157.8 259,-105.8 39,-105.8"/>
</g>
<g id="clust3" class="cluster">
<title>cluster_RequestUpdateDialogModule_RequestUpdateDialogComponent_providers</title>
<polygon fill="none" stroke="black" points="16,-40.8 16,-92.8 282,-92.8 282,-40.8 16,-40.8"/>
</g>
<!-- RequestUpdateDialogComponent -->
<g id="node1" class="node">
<title>RequestUpdateDialogComponent</title>
<polygon fill="#ffffb3" stroke="black" points="251.46,-149.8 46.54,-149.8 46.54,-113.8 251.46,-113.8 251.46,-149.8"/>
<text text-anchor="middle" x="149" y="-127.6" font-family="Times,serif" font-size="14.00">RequestUpdateDialogComponent</text>
</g>
<!-- RequestUpdateDialogModule -->
<g id="node2" class="node">
<title>RequestUpdateDialogModule</title>
<polygon fill="#8dd3c7" stroke="black" points="240.68,-214.8 237.68,-218.8 216.68,-218.8 213.68,-214.8 57.32,-214.8 57.32,-178.8 240.68,-178.8 240.68,-214.8"/>
<text text-anchor="middle" x="149" y="-192.6" font-family="Times,serif" font-size="14.00">RequestUpdateDialogModule</text>
</g>
<!-- RequestUpdateDialogComponent&#45;&gt;RequestUpdateDialogModule -->
<g id="edge1" class="edge">
<title>RequestUpdateDialogComponent&#45;&gt;RequestUpdateDialogModule</title>
<path fill="none" stroke="black" d="M149,-149.91C149,-149.91 149,-168.79 149,-168.79"/>
<polygon fill="black" stroke="black" points="145.5,-168.79 149,-178.79 152.5,-168.79 145.5,-168.79"/>
</g>
<!-- RequestUpdateDialogComponent  -->
<g id="node4" class="node">
<title>RequestUpdateDialogComponent </title>
<polygon fill="#fb8072" stroke="black" points="253.46,-279.8 44.54,-279.8 44.54,-243.8 253.46,-243.8 253.46,-279.8"/>
<text text-anchor="middle" x="149" y="-257.6" font-family="Times,serif" font-size="14.00">RequestUpdateDialogComponent </text>
</g>
<!-- RequestUpdateDialogModule&#45;&gt;RequestUpdateDialogComponent  -->
<g id="edge3" class="edge">
<title>RequestUpdateDialogModule&#45;&gt;RequestUpdateDialogComponent </title>
<path fill="none" stroke="black" stroke-dasharray="5,2" d="M149,-214.91C149,-214.91 149,-233.79 149,-233.79"/>
<polygon fill="black" stroke="black" points="145.5,-233.79 149,-243.79 152.5,-233.79 145.5,-233.79"/>
</g>
<!-- RequestUpdateDialogService -->
<g id="node3" class="node">
<title>RequestUpdateDialogService</title>
<ellipse fill="#fdb462" stroke="black" cx="149" cy="-66.8" rx="125.04" ry="18"/>
<text text-anchor="middle" x="149" y="-62.6" font-family="Times,serif" font-size="14.00">RequestUpdateDialogService</text>
</g>
<!-- RequestUpdateDialogService&#45;&gt;RequestUpdateDialogComponent -->
<g id="edge2" class="edge">
<title>RequestUpdateDialogService&#45;&gt;RequestUpdateDialogComponent</title>
<path fill="none" stroke="black" d="M149,-84.91C149,-84.91 149,-103.79 149,-103.79"/>
<polygon fill="black" stroke="black" points="145.5,-103.79 149,-113.79 152.5,-103.79 145.5,-103.79"/>
</g>
</g>
</svg>
