<?xml version="1.0" encoding="UTF-8" standalone="no"?>
<!DOCTYPE svg PUBLIC "-//W3C//DTD SVG 1.1//EN"
 "http://www.w3.org/Graphics/SVG/1.1/DTD/svg11.dtd">
<!-- Generated by graphviz version 2.47.3 (20210619.1520)
 -->
<!-- Title: dependencies Pages: 1 -->
<svg width="204pt" height="247pt"
 viewBox="0.00 0.00 204.00 246.80" xmlns="http://www.w3.org/2000/svg" xmlns:xlink="http://www.w3.org/1999/xlink">
<g id="graph0" class="graph" transform="scale(1 1) rotate(0) translate(4 242.8)">
<title>dependencies</title>
<polygon fill="white" stroke="transparent" points="-4,4 -4,-242.8 200,-242.8 200,4 -4,4"/>
<text text-anchor="middle" x="98" y="-8.2" font-family="sans-serif" font-size="14.00">dependencies</text>
<g id="clust1" class="cluster">
<title>cluster_HeaderBoxModule</title>
<polygon fill="none" stroke="black" stroke-dasharray="1,5" points="8,-32.8 8,-230.8 188,-230.8 188,-32.8 8,-32.8"/>
</g>
<g id="clust5" class="cluster">
<title>cluster_HeaderBoxModule_exports</title>
<polygon fill="none" stroke="black" points="16,-170.8 16,-222.8 180,-222.8 180,-170.8 16,-170.8"/>
</g>
<g id="clust2" class="cluster">
<title>cluster_HeaderBoxModule_declarations</title>
<polygon fill="none" stroke="black" points="17,-40.8 17,-92.8 179,-92.8 179,-40.8 17,-40.8"/>
</g>
<!-- HeaderBoxComponent -->
<g id="node1" class="node">
<title>HeaderBoxComponent</title>
<polygon fill="#ffffb3" stroke="black" points="170.58,-84.8 25.42,-84.8 25.42,-48.8 170.58,-48.8 170.58,-84.8"/>
<text text-anchor="middle" x="98" y="-62.6" font-family="Times,serif" font-size="14.00">HeaderBoxComponent</text>
</g>
<!-- HeaderBoxModule -->
<g id="node2" class="node">
<title>HeaderBoxModule</title>
<polygon fill="#8dd3c7" stroke="black" points="159.8,-149.8 156.8,-153.8 135.8,-153.8 132.8,-149.8 36.2,-149.8 36.2,-113.8 159.8,-113.8 159.8,-149.8"/>
<text text-anchor="middle" x="98" y="-127.6" font-family="Times,serif" font-size="14.00">HeaderBoxModule</text>
</g>
<!-- HeaderBoxComponent&#45;&gt;HeaderBoxModule -->
<g id="edge1" class="edge">
<title>HeaderBoxComponent&#45;&gt;HeaderBoxModule</title>
<path fill="none" stroke="black" d="M98,-84.91C98,-84.91 98,-103.79 98,-103.79"/>
<polygon fill="black" stroke="black" points="94.5,-103.79 98,-113.79 101.5,-103.79 94.5,-103.79"/>
</g>
<!-- HeaderBoxComponent  -->
<g id="node3" class="node">
<title>HeaderBoxComponent </title>
<polygon fill="#fb8072" stroke="black" points="172.08,-214.8 23.92,-214.8 23.92,-178.8 172.08,-178.8 172.08,-214.8"/>
<text text-anchor="middle" x="98" y="-192.6" font-family="Times,serif" font-size="14.00">HeaderBoxComponent </text>
</g>
<!-- HeaderBoxModule&#45;&gt;HeaderBoxComponent  -->
<g id="edge2" class="edge">
<title>HeaderBoxModule&#45;&gt;HeaderBoxComponent </title>
<path fill="none" stroke="black" stroke-dasharray="5,2" d="M98,-149.91C98,-149.91 98,-168.79 98,-168.79"/>
<polygon fill="black" stroke="black" points="94.5,-168.79 98,-178.79 101.5,-168.79 94.5,-168.79"/>
</g>
</g>
</svg>
