<?xml version="1.0" encoding="UTF-8" standalone="no"?>
<!DOCTYPE svg PUBLIC "-//W3C//DTD SVG 1.1//EN"
 "http://www.w3.org/Graphics/SVG/1.1/DTD/svg11.dtd">
<!-- Generated by graphviz version 2.47.3 (20210619.1520)
 -->
<!-- Title: dependencies Pages: 1 -->
<svg width="656pt" height="247pt"
 viewBox="0.00 0.00 656.00 246.80" xmlns="http://www.w3.org/2000/svg" xmlns:xlink="http://www.w3.org/1999/xlink">
<g id="graph0" class="graph" transform="scale(1 1) rotate(0) translate(4 242.8)">
<title>dependencies</title>
<polygon fill="white" stroke="transparent" points="-4,4 -4,-242.8 652,-242.8 652,4 -4,4"/>
<text text-anchor="middle" x="324" y="-8.2" font-family="sans-serif" font-size="14.00">dependencies</text>
<g id="clust1" class="cluster">
<title>cluster_MainToolbarModule</title>
<polygon fill="none" stroke="black" stroke-dasharray="1,5" points="8,-32.8 8,-230.8 640,-230.8 640,-32.8 8,-32.8"/>
</g>
<g id="clust2" class="cluster">
<title>cluster_MainToolbarModule_declarations</title>
<polygon fill="none" stroke="black" points="20,-40.8 20,-92.8 628,-92.8 628,-40.8 20,-40.8"/>
</g>
<g id="clust7" class="cluster">
<title>cluster_MainToolbarModule_exports</title>
<polygon fill="none" stroke="black" points="16,-170.8 16,-222.8 632,-222.8 632,-170.8 16,-170.8"/>
</g>
<!-- MainToolbarComponent -->
<g id="node1" class="node">
<title>MainToolbarComponent</title>
<polygon fill="#ffffb3" stroke="black" points="619.7,-84.8 464.3,-84.8 464.3,-48.8 619.7,-48.8 619.7,-84.8"/>
<text text-anchor="middle" x="542" y="-62.6" font-family="Times,serif" font-size="14.00">MainToolbarComponent</text>
</g>
<!-- MainToolbarModule -->
<g id="node4" class="node">
<title>MainToolbarModule</title>
<polygon fill="#8dd3c7" stroke="black" points="406.92,-149.8 403.92,-153.8 382.92,-153.8 379.92,-149.8 273.08,-149.8 273.08,-113.8 406.92,-113.8 406.92,-149.8"/>
<text text-anchor="middle" x="340" y="-127.6" font-family="Times,serif" font-size="14.00">MainToolbarModule</text>
</g>
<!-- MainToolbarComponent&#45;&gt;MainToolbarModule -->
<g id="edge1" class="edge">
<title>MainToolbarComponent&#45;&gt;MainToolbarModule</title>
<path fill="none" stroke="black" d="M568.28,-84.82C568.28,-102.17 568.28,-125.8 568.28,-125.8 568.28,-125.8 416.95,-125.8 416.95,-125.8"/>
<polygon fill="black" stroke="black" points="416.95,-122.3 406.95,-125.8 416.95,-129.3 416.95,-122.3"/>
</g>
<!-- RouteLoadingIndicatorComponent -->
<g id="node2" class="node">
<title>RouteLoadingIndicatorComponent</title>
<polygon fill="#ffffb3" stroke="black" points="445.96,-84.8 234.04,-84.8 234.04,-48.8 445.96,-48.8 445.96,-84.8"/>
<text text-anchor="middle" x="340" y="-62.6" font-family="Times,serif" font-size="14.00">RouteLoadingIndicatorComponent</text>
</g>
<!-- RouteLoadingIndicatorComponent&#45;&gt;MainToolbarModule -->
<g id="edge2" class="edge">
<title>RouteLoadingIndicatorComponent&#45;&gt;MainToolbarModule</title>
<path fill="none" stroke="black" d="M340,-84.91C340,-84.91 340,-103.79 340,-103.79"/>
<polygon fill="black" stroke="black" points="336.5,-103.79 340,-113.79 343.5,-103.79 336.5,-103.79"/>
</g>
<!-- ToolbarSearchBoxComponent -->
<g id="node3" class="node">
<title>ToolbarSearchBoxComponent</title>
<polygon fill="#ffffb3" stroke="black" points="215.57,-84.8 28.43,-84.8 28.43,-48.8 215.57,-48.8 215.57,-84.8"/>
<text text-anchor="middle" x="122" y="-62.6" font-family="Times,serif" font-size="14.00">ToolbarSearchBoxComponent</text>
</g>
<!-- ToolbarSearchBoxComponent&#45;&gt;MainToolbarModule -->
<g id="edge3" class="edge">
<title>ToolbarSearchBoxComponent&#45;&gt;MainToolbarModule</title>
<path fill="none" stroke="black" d="M152.35,-84.82C152.35,-102.17 152.35,-125.8 152.35,-125.8 152.35,-125.8 263.05,-125.8 263.05,-125.8"/>
<polygon fill="black" stroke="black" points="263.05,-129.3 273.05,-125.8 263.05,-122.3 263.05,-129.3"/>
</g>
<!-- MainToolbarComponent  -->
<g id="node5" class="node">
<title>MainToolbarComponent </title>
<polygon fill="#fb8072" stroke="black" points="624.2,-214.8 465.8,-214.8 465.8,-178.8 624.2,-178.8 624.2,-214.8"/>
<text text-anchor="middle" x="545" y="-192.6" font-family="Times,serif" font-size="14.00">MainToolbarComponent </text>
</g>
<!-- MainToolbarModule&#45;&gt;MainToolbarComponent  -->
<g id="edge4" class="edge">
<title>MainToolbarModule&#45;&gt;MainToolbarComponent </title>
<path fill="none" stroke="black" stroke-dasharray="5,2" d="M406.9,-137.8C457.02,-137.8 516.97,-137.8 516.97,-137.8 516.97,-137.8 516.97,-168.78 516.97,-168.78"/>
<polygon fill="black" stroke="black" points="513.47,-168.78 516.97,-178.78 520.47,-168.78 513.47,-168.78"/>
</g>
<!-- RouteLoadingIndicatorComponent  -->
<g id="node6" class="node">
<title>RouteLoadingIndicatorComponent </title>
<polygon fill="#fb8072" stroke="black" points="447.96,-214.8 232.04,-214.8 232.04,-178.8 447.96,-178.8 447.96,-214.8"/>
<text text-anchor="middle" x="340" y="-192.6" font-family="Times,serif" font-size="14.00">RouteLoadingIndicatorComponent </text>
</g>
<!-- MainToolbarModule&#45;&gt;RouteLoadingIndicatorComponent  -->
<g id="edge5" class="edge">
<title>MainToolbarModule&#45;&gt;RouteLoadingIndicatorComponent </title>
<path fill="none" stroke="black" stroke-dasharray="5,2" d="M340,-149.91C340,-149.91 340,-168.79 340,-168.79"/>
<polygon fill="black" stroke="black" points="336.5,-168.79 340,-178.79 343.5,-168.79 336.5,-168.79"/>
</g>
<!-- ToolbarSearchBoxComponent  -->
<g id="node7" class="node">
<title>ToolbarSearchBoxComponent </title>
<polygon fill="#fb8072" stroke="black" points="214.07,-214.8 23.93,-214.8 23.93,-178.8 214.07,-178.8 214.07,-214.8"/>
<text text-anchor="middle" x="119" y="-192.6" font-family="Times,serif" font-size="14.00">ToolbarSearchBoxComponent </text>
</g>
<!-- MainToolbarModule&#45;&gt;ToolbarSearchBoxComponent  -->
<g id="edge6" class="edge">
<title>MainToolbarModule&#45;&gt;ToolbarSearchBoxComponent </title>
<path fill="none" stroke="black" stroke-dasharray="5,2" d="M273.11,-137.8C199.18,-137.8 90.4,-137.8 90.4,-137.8 90.4,-137.8 90.4,-168.78 90.4,-168.78"/>
<polygon fill="black" stroke="black" points="86.9,-168.78 90.4,-178.78 93.9,-168.78 86.9,-168.78"/>
</g>
</g>
</svg>
