<?xml version="1.0" encoding="UTF-8" standalone="no"?>
<!DOCTYPE svg PUBLIC "-//W3C//DTD SVG 1.1//EN"
 "http://www.w3.org/Graphics/SVG/1.1/DTD/svg11.dtd">
<!-- Generated by graphviz version 5.0.0 (20220707.1540)
 -->
<!-- Title: dependencies Pages: 1 -->
<svg width="1101pt" height="239pt"
 viewBox="0.00 0.00 1101.00 238.80" xmlns="http://www.w3.org/2000/svg" xmlns:xlink="http://www.w3.org/1999/xlink">
<g id="graph0" class="graph" transform="scale(1 1) rotate(0) translate(4 234.8)">
<title>dependencies</title>
<polygon fill="white" stroke="transparent" points="-4,4 -4,-234.8 1097,-234.8 1097,4 -4,4"/>
<text text-anchor="middle" x="546.5" y="-8.2" font-family="sans-serif" font-size="14.00">dependencies</text>
<g id="clust1" class="cluster">
<title>cluster_StopModule</title>
<polygon fill="none" stroke="black" stroke-dasharray="1,5" points="8,-32.8 8,-222.8 1085,-222.8 1085,-32.8 8,-32.8"/>
</g>
<g id="clust2" class="cluster">
<title>cluster_StopModule_declarations</title>
<polygon fill="none" stroke="black" points="931,-105.8 931,-157.8 1077,-157.8 1077,-105.8 931,-105.8"/>
</g>
<g id="clust3" class="cluster">
<title>cluster_StopModule_StopInfoComponent_providers</title>
<polygon fill="none" stroke="black" points="913,-40.8 913,-92.8 1077,-92.8 1077,-40.8 913,-40.8"/>
</g>
<g id="clust4" class="cluster">
<title>cluster_StopModule_imports</title>
<polygon fill="none" stroke="black" points="198,-105.8 198,-157.8 923,-157.8 923,-105.8 198,-105.8"/>
</g>
<g id="clust7" class="cluster">
<title>cluster_StopModule_providers</title>
<polygon fill="none" stroke="black" points="16,-105.8 16,-157.8 190,-157.8 190,-105.8 16,-105.8"/>
</g>
<!-- StopInfoComponent -->
<g id="node1" class="node">
<title>StopInfoComponent</title>
<polygon fill="#ffffb3" stroke="black" points="1069.33,-149.8 938.67,-149.8 938.67,-113.8 1069.33,-113.8 1069.33,-149.8"/>
<text text-anchor="middle" x="1004" y="-127.6" font-family="Times,serif" font-size="14.00">StopInfoComponent</text>
</g>
<!-- StopModule -->
<g id="node2" class="node">
<title>StopModule</title>
<polygon fill="#8dd3c7" stroke="black" points="595.73,-214.8 592.73,-218.8 571.73,-218.8 568.73,-214.8 510.27,-214.8 510.27,-178.8 595.73,-178.8 595.73,-214.8"/>
<text text-anchor="middle" x="553" y="-192.6" font-family="Times,serif" font-size="14.00">StopModule</text>
</g>
<!-- StopInfoComponent&#45;&gt;StopModule -->
<g id="edge1" class="edge">
<title>StopInfoComponent&#45;&gt;StopModule</title>
<path fill="none" stroke="black" d="M1004,-150.09C1004,-172.01 1004,-205.8 1004,-205.8 1004,-205.8 605.84,-205.8 605.84,-205.8"/>
<polygon fill="black" stroke="black" points="605.84,-202.3 595.84,-205.8 605.84,-209.3 605.84,-202.3"/>
</g>
<!-- StopInfoService -->
<g id="node3" class="node">
<title>StopInfoService</title>
<ellipse fill="#fdb462" stroke="black" cx="995" cy="-66.8" rx="73.59" ry="18"/>
<text text-anchor="middle" x="995" y="-62.6" font-family="Times,serif" font-size="14.00">StopInfoService</text>
</g>
<!-- StopInfoService&#45;&gt;StopInfoComponent -->
<g id="edge2" class="edge">
<title>StopInfoService&#45;&gt;StopInfoComponent</title>
<path fill="none" stroke="black" d="M1003.81,-84.91C1003.81,-84.91 1003.81,-103.79 1003.81,-103.79"/>
<polygon fill="black" stroke="black" points="1000.31,-103.79 1003.81,-113.79 1007.31,-103.79 1000.31,-103.79"/>
</g>
<!-- DepartureListModule -->
<g id="node4" class="node">
<title>DepartureListModule</title>
<polygon fill="#8dd3c7" stroke="black" points="914.8,-149.8 911.8,-153.8 890.8,-153.8 887.8,-149.8 777.2,-149.8 777.2,-113.8 914.8,-113.8 914.8,-149.8"/>
<text text-anchor="middle" x="846" y="-127.6" font-family="Times,serif" font-size="14.00">DepartureListModule</text>
</g>
<!-- DepartureListModule&#45;&gt;StopModule -->
<g id="edge3" class="edge">
<title>DepartureListModule&#45;&gt;StopModule</title>
<path fill="none" stroke="black" d="M846,-149.91C846,-169.14 846,-196.8 846,-196.8 846,-196.8 605.92,-196.8 605.92,-196.8"/>
<polygon fill="black" stroke="black" points="605.92,-193.3 595.92,-196.8 605.92,-200.3 605.92,-193.3"/>
</g>
<!-- HeaderBoxModule -->
<g id="node5" class="node">
<title>HeaderBoxModule</title>
<polygon fill="#8dd3c7" stroke="black" points="759.8,-149.8 756.8,-153.8 735.8,-153.8 732.8,-149.8 636.2,-149.8 636.2,-113.8 759.8,-113.8 759.8,-149.8"/>
<text text-anchor="middle" x="698" y="-127.6" font-family="Times,serif" font-size="14.00">HeaderBoxModule</text>
</g>
<!-- HeaderBoxModule&#45;&gt;StopModule -->
<g id="edge4" class="edge">
<title>HeaderBoxModule&#45;&gt;StopModule</title>
<path fill="none" stroke="black" d="M698,-149.83C698,-166.2 698,-187.8 698,-187.8 698,-187.8 605.72,-187.8 605.72,-187.8"/>
<polygon fill="black" stroke="black" points="605.72,-184.3 595.72,-187.8 605.72,-191.3 605.72,-184.3"/>
</g>
<!-- OlStaticMapModule -->
<g id="node6" class="node">
<title>OlStaticMapModule</title>
<polygon fill="#8dd3c7" stroke="black" points="618.6,-149.8 615.6,-153.8 594.6,-153.8 591.6,-149.8 487.4,-149.8 487.4,-113.8 618.6,-113.8 618.6,-149.8"/>
<text text-anchor="middle" x="553" y="-127.6" font-family="Times,serif" font-size="14.00">OlStaticMapModule</text>
</g>
<!-- OlStaticMapModule&#45;&gt;StopModule -->
<g id="edge5" class="edge">
<title>OlStaticMapModule&#45;&gt;StopModule</title>
<path fill="none" stroke="black" d="M553,-149.91C553,-149.91 553,-168.79 553,-168.79"/>
<polygon fill="black" stroke="black" points="549.5,-168.79 553,-178.79 556.5,-168.79 549.5,-168.79"/>
</g>
<!-- RouteListModule -->
<g id="node7" class="node">
<title>RouteListModule</title>
<polygon fill="#8dd3c7" stroke="black" points="469.27,-149.8 466.27,-153.8 445.27,-153.8 442.27,-149.8 354.73,-149.8 354.73,-113.8 469.27,-113.8 469.27,-149.8"/>
<text text-anchor="middle" x="412" y="-127.6" font-family="Times,serif" font-size="14.00">RouteListModule</text>
</g>
<!-- RouteListModule&#45;&gt;StopModule -->
<g id="edge6" class="edge">
<title>RouteListModule&#45;&gt;StopModule</title>
<path fill="none" stroke="black" d="M412,-149.83C412,-166.2 412,-187.8 412,-187.8 412,-187.8 500.31,-187.8 500.31,-187.8"/>
<polygon fill="black" stroke="black" points="500.31,-191.3 510.31,-187.8 500.31,-184.3 500.31,-191.3"/>
</g>
<!-- StopRoutingModule -->
<g id="node8" class="node">
<title>StopRoutingModule</title>
<polygon fill="#8dd3c7" stroke="black" points="336.35,-149.8 333.35,-153.8 312.35,-153.8 309.35,-149.8 205.65,-149.8 205.65,-113.8 336.35,-113.8 336.35,-149.8"/>
<text text-anchor="middle" x="271" y="-127.6" font-family="Times,serif" font-size="14.00">StopRoutingModule</text>
</g>
<!-- StopRoutingModule&#45;&gt;StopModule -->
<g id="edge7" class="edge">
<title>StopRoutingModule&#45;&gt;StopModule</title>
<path fill="none" stroke="black" d="M271,-149.91C271,-169.14 271,-196.8 271,-196.8 271,-196.8 500.17,-196.8 500.17,-196.8"/>
<polygon fill="black" stroke="black" points="500.17,-200.3 510.17,-196.8 500.17,-193.3 500.17,-200.3"/>
</g>
<!-- StopInfoResolver -->
<g id="node9" class="node">
<title>StopInfoResolver</title>
<ellipse fill="#fdb462" stroke="black" cx="103" cy="-131.8" rx="79.33" ry="18"/>
<text text-anchor="middle" x="103" y="-127.6" font-family="Times,serif" font-size="14.00">StopInfoResolver</text>
</g>
<!-- StopInfoResolver&#45;&gt;StopModule -->
<g id="edge8" class="edge">
<title>StopInfoResolver&#45;&gt;StopModule</title>
<path fill="none" stroke="black" d="M103,-150.09C103,-172.01 103,-205.8 103,-205.8 103,-205.8 500.26,-205.8 500.26,-205.8"/>
<polygon fill="black" stroke="black" points="500.26,-209.3 510.26,-205.8 500.26,-202.3 500.26,-209.3"/>
</g>
</g>
</svg>
