<?xml version="1.0" encoding="UTF-8" standalone="no"?>
<!DOCTYPE svg PUBLIC "-//W3C//DTD SVG 1.1//EN"
 "http://www.w3.org/Graphics/SVG/1.1/DTD/svg11.dtd">
<!-- Generated by graphviz version 2.47.3 (20210619.1520)
 -->
<!-- Title: dependencies Pages: 1 -->
<svg width="937pt" height="239pt"
 viewBox="0.00 0.00 937.00 238.80" xmlns="http://www.w3.org/2000/svg" xmlns:xlink="http://www.w3.org/1999/xlink">
<g id="graph0" class="graph" transform="scale(1 1) rotate(0) translate(4 234.8)">
<title>dependencies</title>
<polygon fill="white" stroke="transparent" points="-4,4 -4,-234.8 933,-234.8 933,4 -4,4"/>
<text text-anchor="middle" x="464.5" y="-8.2" font-family="sans-serif" font-size="14.00">dependencies</text>
<g id="clust1" class="cluster">
<title>cluster_StopModule</title>
<polygon fill="none" stroke="black" stroke-dasharray="1,5" points="8,-32.8 8,-222.8 921,-222.8 921,-32.8 8,-32.8"/>
</g>
<g id="clust4" class="cluster">
<title>cluster_StopModule_imports</title>
<polygon fill="none" stroke="black" points="188,-105.8 188,-157.8 913,-157.8 913,-105.8 188,-105.8"/>
</g>
<g id="clust3" class="cluster">
<title>cluster_StopModule_StopInfoComponent_providers</title>
<polygon fill="none" stroke="black" points="16,-40.8 16,-157.8 180,-157.8 180,-40.8 16,-40.8"/>
</g>
<!-- StopInfoComponent -->
<g id="node1" class="node">
<title>StopInfoComponent</title>
<polygon fill="#ffffb3" stroke="black" points="167.33,-149.8 36.67,-149.8 36.67,-113.8 167.33,-113.8 167.33,-149.8"/>
<text text-anchor="middle" x="102" y="-127.6" font-family="Times,serif" font-size="14.00">StopInfoComponent</text>
</g>
<!-- StopModule -->
<g id="node2" class="node">
<title>StopModule</title>
<polygon fill="#8dd3c7" stroke="black" points="514.72,-214.8 511.72,-218.8 490.72,-218.8 487.72,-214.8 429.28,-214.8 429.28,-178.8 514.72,-178.8 514.72,-214.8"/>
<text text-anchor="middle" x="472" y="-192.6" font-family="Times,serif" font-size="14.00">StopModule</text>
</g>
<!-- StopInfoComponent&#45;&gt;StopModule -->
<g id="edge1" class="edge">
<title>StopInfoComponent&#45;&gt;StopModule</title>
<path fill="none" stroke="black" d="M102,-150.08C102,-171.12 102,-202.8 102,-202.8 102,-202.8 419.19,-202.8 419.19,-202.8"/>
<polygon fill="black" stroke="black" points="419.19,-206.3 429.19,-202.8 419.19,-199.3 419.19,-206.3"/>
</g>
<!-- StopInfoService -->
<g id="node3" class="node">
<title>StopInfoService</title>
<ellipse fill="#fdb462" stroke="black" cx="98" cy="-66.8" rx="73.58" ry="18"/>
<text text-anchor="middle" x="98" y="-62.6" font-family="Times,serif" font-size="14.00">StopInfoService</text>
</g>
<!-- StopInfoService&#45;&gt;StopInfoComponent -->
<g id="edge2" class="edge">
<title>StopInfoService&#45;&gt;StopInfoComponent</title>
<path fill="none" stroke="black" d="M102,-84.91C102,-84.91 102,-103.79 102,-103.79"/>
<polygon fill="black" stroke="black" points="98.5,-103.79 102,-113.79 105.5,-103.79 98.5,-103.79"/>
</g>
<!-- DepartureListModule -->
<g id="node4" class="node">
<title>DepartureListModule</title>
<polygon fill="#8dd3c7" stroke="black" points="904.79,-149.8 901.79,-153.8 880.79,-153.8 877.79,-149.8 767.21,-149.8 767.21,-113.8 904.79,-113.8 904.79,-149.8"/>
<text text-anchor="middle" x="836" y="-127.6" font-family="Times,serif" font-size="14.00">DepartureListModule</text>
</g>
<!-- DepartureListModule&#45;&gt;StopModule -->
<g id="edge3" class="edge">
<title>DepartureListModule&#45;&gt;StopModule</title>
<path fill="none" stroke="black" d="M836,-150.08C836,-171.12 836,-202.8 836,-202.8 836,-202.8 524.83,-202.8 524.83,-202.8"/>
<polygon fill="black" stroke="black" points="524.83,-199.3 514.83,-202.8 524.83,-206.3 524.83,-199.3"/>
</g>
<!-- HeaderBoxModule -->
<g id="node5" class="node">
<title>HeaderBoxModule</title>
<polygon fill="#8dd3c7" stroke="black" points="749.8,-149.8 746.8,-153.8 725.8,-153.8 722.8,-149.8 626.2,-149.8 626.2,-113.8 749.8,-113.8 749.8,-149.8"/>
<text text-anchor="middle" x="688" y="-127.6" font-family="Times,serif" font-size="14.00">HeaderBoxModule</text>
</g>
<!-- HeaderBoxModule&#45;&gt;StopModule -->
<g id="edge4" class="edge">
<title>HeaderBoxModule&#45;&gt;StopModule</title>
<path fill="none" stroke="black" d="M688,-149.82C688,-167.17 688,-190.8 688,-190.8 688,-190.8 524.67,-190.8 524.67,-190.8"/>
<polygon fill="black" stroke="black" points="524.67,-187.3 514.67,-190.8 524.67,-194.3 524.67,-187.3"/>
</g>
<!-- OlStaticMapModule -->
<g id="node6" class="node">
<title>OlStaticMapModule</title>
<polygon fill="#8dd3c7" stroke="black" points="608.59,-149.8 605.59,-153.8 584.59,-153.8 581.59,-149.8 477.41,-149.8 477.41,-113.8 608.59,-113.8 608.59,-149.8"/>
<text text-anchor="middle" x="543" y="-127.6" font-family="Times,serif" font-size="14.00">OlStaticMapModule</text>
</g>
<!-- OlStaticMapModule&#45;&gt;StopModule -->
<g id="edge5" class="edge">
<title>OlStaticMapModule&#45;&gt;StopModule</title>
<path fill="none" stroke="black" d="M496.03,-149.91C496.03,-149.91 496.03,-168.79 496.03,-168.79"/>
<polygon fill="black" stroke="black" points="492.53,-168.79 496.03,-178.79 499.53,-168.79 492.53,-168.79"/>
</g>
<!-- RouteListModule -->
<g id="node7" class="node">
<title>RouteListModule</title>
<polygon fill="#8dd3c7" stroke="black" points="459.27,-149.8 456.27,-153.8 435.27,-153.8 432.27,-149.8 344.73,-149.8 344.73,-113.8 459.27,-113.8 459.27,-149.8"/>
<text text-anchor="middle" x="402" y="-127.6" font-family="Times,serif" font-size="14.00">RouteListModule</text>
</g>
<!-- RouteListModule&#45;&gt;StopModule -->
<g id="edge6" class="edge">
<title>RouteListModule&#45;&gt;StopModule</title>
<path fill="none" stroke="black" d="M444.39,-149.91C444.39,-149.91 444.39,-168.79 444.39,-168.79"/>
<polygon fill="black" stroke="black" points="440.89,-168.79 444.39,-178.79 447.89,-168.79 440.89,-168.79"/>
</g>
<!-- StopRoutingModule -->
<g id="node8" class="node">
<title>StopRoutingModule</title>
<polygon fill="#8dd3c7" stroke="black" points="326.34,-149.8 323.34,-153.8 302.34,-153.8 299.34,-149.8 195.66,-149.8 195.66,-113.8 326.34,-113.8 326.34,-149.8"/>
<text text-anchor="middle" x="261" y="-127.6" font-family="Times,serif" font-size="14.00">StopRoutingModule</text>
</g>
<!-- StopRoutingModule&#45;&gt;StopModule -->
<g id="edge7" class="edge">
<title>StopRoutingModule&#45;&gt;StopModule</title>
<path fill="none" stroke="black" d="M261,-149.82C261,-167.17 261,-190.8 261,-190.8 261,-190.8 419.3,-190.8 419.3,-190.8"/>
<polygon fill="black" stroke="black" points="419.3,-194.3 429.3,-190.8 419.3,-187.3 419.3,-194.3"/>
</g>
</g>
</svg>
