<?xml version="1.0" encoding="UTF-8" standalone="no"?>
<!DOCTYPE svg PUBLIC "-//W3C//DTD SVG 1.1//EN"
 "http://www.w3.org/Graphics/SVG/1.1/DTD/svg11.dtd">
<!-- Generated by graphviz version 3.0.0 (20220226.1711)
 -->
<!-- Title: dependencies Pages: 1 -->
<svg width="1119pt" height="239pt"
 viewBox="0.00 0.00 1119.00 238.80" xmlns="http://www.w3.org/2000/svg" xmlns:xlink="http://www.w3.org/1999/xlink">
<g id="graph0" class="graph" transform="scale(1 1) rotate(0) translate(4 234.8)">
<title>dependencies</title>
<polygon fill="white" stroke="transparent" points="-4,4 -4,-234.8 1115,-234.8 1115,4 -4,4"/>
<text text-anchor="middle" x="555.5" y="-8.2" font-family="sans-serif" font-size="14.00">dependencies</text>
<g id="clust1" class="cluster">
<title>cluster_StopModule</title>
<polygon fill="none" stroke="black" stroke-dasharray="1,5" points="8,-32.8 8,-222.8 1103,-222.8 1103,-32.8 8,-32.8"/>
</g>
<g id="clust4" class="cluster">
<title>cluster_StopModule_imports</title>
<polygon fill="none" stroke="black" points="370,-105.8 370,-157.8 1095,-157.8 1095,-105.8 370,-105.8"/>
</g>
<g id="clust3" class="cluster">
<title>cluster_StopModule_StopInfoComponent_providers</title>
<polygon fill="none" stroke="black" points="198,-40.8 198,-157.8 362,-157.8 362,-40.8 198,-40.8"/>
</g>
<g id="clust7" class="cluster">
<title>cluster_StopModule_providers</title>
<polygon fill="none" stroke="black" points="16,-105.8 16,-157.8 190,-157.8 190,-105.8 16,-105.8"/>
</g>
<!-- StopInfoComponent -->
<g id="node1" class="node">
<title>StopInfoComponent</title>
<polygon fill="#ffffb3" stroke="black" points="349.33,-149.8 218.67,-149.8 218.67,-113.8 349.33,-113.8 349.33,-149.8"/>
<text text-anchor="middle" x="284" y="-127.6" font-family="Times,serif" font-size="14.00">StopInfoComponent</text>
</g>
<!-- StopModule -->
<g id="node2" class="node">
<title>StopModule</title>
<polygon fill="#8dd3c7" stroke="black" points="626.73,-214.8 623.73,-218.8 602.73,-218.8 599.73,-214.8 541.27,-214.8 541.27,-178.8 626.73,-178.8 626.73,-214.8"/>
<text text-anchor="middle" x="584" y="-192.6" font-family="Times,serif" font-size="14.00">StopModule</text>
</g>
<!-- StopInfoComponent&#45;&gt;StopModule -->
<g id="edge1" class="edge">
<title>StopInfoComponent&#45;&gt;StopModule</title>
<path fill="none" stroke="black" d="M284,-149.91C284,-169.14 284,-196.8 284,-196.8 284,-196.8 531.34,-196.8 531.34,-196.8"/>
<polygon fill="black" stroke="black" points="531.34,-200.3 541.34,-196.8 531.34,-193.3 531.34,-200.3"/>
</g>
<!-- StopInfoService -->
<g id="node3" class="node">
<title>StopInfoService</title>
<ellipse fill="#fdb462" stroke="black" cx="280" cy="-66.8" rx="73.59" ry="18"/>
<text text-anchor="middle" x="280" y="-62.6" font-family="Times,serif" font-size="14.00">StopInfoService</text>
</g>
<!-- StopInfoService&#45;&gt;StopInfoComponent -->
<g id="edge2" class="edge">
<title>StopInfoService&#45;&gt;StopInfoComponent</title>
<path fill="none" stroke="black" d="M284,-84.91C284,-84.91 284,-103.79 284,-103.79"/>
<polygon fill="black" stroke="black" points="280.5,-103.79 284,-113.79 287.5,-103.79 280.5,-103.79"/>
</g>
<!-- DepartureListModule -->
<g id="node4" class="node">
<title>DepartureListModule</title>
<polygon fill="#8dd3c7" stroke="black" points="1086.8,-149.8 1083.8,-153.8 1062.8,-153.8 1059.8,-149.8 949.2,-149.8 949.2,-113.8 1086.8,-113.8 1086.8,-149.8"/>
<text text-anchor="middle" x="1018" y="-127.6" font-family="Times,serif" font-size="14.00">DepartureListModule</text>
</g>
<!-- DepartureListModule&#45;&gt;StopModule -->
<g id="edge3" class="edge">
<title>DepartureListModule&#45;&gt;StopModule</title>
<path fill="none" stroke="black" d="M1018,-150.09C1018,-172.01 1018,-205.8 1018,-205.8 1018,-205.8 636.8,-205.8 636.8,-205.8"/>
<polygon fill="black" stroke="black" points="636.8,-202.3 626.8,-205.8 636.8,-209.3 636.8,-202.3"/>
</g>
<!-- HeaderBoxModule -->
<g id="node5" class="node">
<title>HeaderBoxModule</title>
<polygon fill="#8dd3c7" stroke="black" points="931.8,-149.8 928.8,-153.8 907.8,-153.8 904.8,-149.8 808.2,-149.8 808.2,-113.8 931.8,-113.8 931.8,-149.8"/>
<text text-anchor="middle" x="870" y="-127.6" font-family="Times,serif" font-size="14.00">HeaderBoxModule</text>
</g>
<!-- HeaderBoxModule&#45;&gt;StopModule -->
<g id="edge4" class="edge">
<title>HeaderBoxModule&#45;&gt;StopModule</title>
<path fill="none" stroke="black" d="M870,-149.91C870,-169.14 870,-196.8 870,-196.8 870,-196.8 636.82,-196.8 636.82,-196.8"/>
<polygon fill="black" stroke="black" points="636.82,-193.3 626.82,-196.8 636.82,-200.3 636.82,-193.3"/>
</g>
<!-- OlStaticMapModule -->
<g id="node6" class="node">
<title>OlStaticMapModule</title>
<polygon fill="#8dd3c7" stroke="black" points="790.6,-149.8 787.6,-153.8 766.6,-153.8 763.6,-149.8 659.4,-149.8 659.4,-113.8 790.6,-113.8 790.6,-149.8"/>
<text text-anchor="middle" x="725" y="-127.6" font-family="Times,serif" font-size="14.00">OlStaticMapModule</text>
</g>
<!-- OlStaticMapModule&#45;&gt;StopModule -->
<g id="edge5" class="edge">
<title>OlStaticMapModule&#45;&gt;StopModule</title>
<path fill="none" stroke="black" d="M725,-149.83C725,-166.2 725,-187.8 725,-187.8 725,-187.8 636.69,-187.8 636.69,-187.8"/>
<polygon fill="black" stroke="black" points="636.69,-184.3 626.69,-187.8 636.69,-191.3 636.69,-184.3"/>
</g>
<!-- RouteListModule -->
<g id="node7" class="node">
<title>RouteListModule</title>
<polygon fill="#8dd3c7" stroke="black" points="641.27,-149.8 638.27,-153.8 617.27,-153.8 614.27,-149.8 526.73,-149.8 526.73,-113.8 641.27,-113.8 641.27,-149.8"/>
<text text-anchor="middle" x="584" y="-127.6" font-family="Times,serif" font-size="14.00">RouteListModule</text>
</g>
<!-- RouteListModule&#45;&gt;StopModule -->
<g id="edge6" class="edge">
<title>RouteListModule&#45;&gt;StopModule</title>
<path fill="none" stroke="black" d="M584,-149.91C584,-149.91 584,-168.79 584,-168.79"/>
<polygon fill="black" stroke="black" points="580.5,-168.79 584,-178.79 587.5,-168.79 580.5,-168.79"/>
</g>
<!-- StopRoutingModule -->
<g id="node8" class="node">
<title>StopRoutingModule</title>
<polygon fill="#8dd3c7" stroke="black" points="508.35,-149.8 505.35,-153.8 484.35,-153.8 481.35,-149.8 377.65,-149.8 377.65,-113.8 508.35,-113.8 508.35,-149.8"/>
<text text-anchor="middle" x="443" y="-127.6" font-family="Times,serif" font-size="14.00">StopRoutingModule</text>
</g>
<!-- StopRoutingModule&#45;&gt;StopModule -->
<g id="edge7" class="edge">
<title>StopRoutingModule&#45;&gt;StopModule</title>
<path fill="none" stroke="black" d="M443,-149.83C443,-166.2 443,-187.8 443,-187.8 443,-187.8 531.31,-187.8 531.31,-187.8"/>
<polygon fill="black" stroke="black" points="531.31,-191.3 541.31,-187.8 531.31,-184.3 531.31,-191.3"/>
</g>
<!-- StopInfoResolver -->
<g id="node9" class="node">
<title>StopInfoResolver</title>
<ellipse fill="#fdb462" stroke="black" cx="103" cy="-131.8" rx="79.33" ry="18"/>
<text text-anchor="middle" x="103" y="-127.6" font-family="Times,serif" font-size="14.00">StopInfoResolver</text>
</g>
<!-- StopInfoResolver&#45;&gt;StopModule -->
<g id="edge8" class="edge">
<title>StopInfoResolver&#45;&gt;StopModule</title>
<path fill="none" stroke="black" d="M103,-150.09C103,-172.01 103,-205.8 103,-205.8 103,-205.8 531.31,-205.8 531.31,-205.8"/>
<polygon fill="black" stroke="black" points="531.31,-209.3 541.31,-205.8 531.31,-202.3 531.31,-209.3"/>
</g>
</g>
</svg>
