<?xml version="1.0" encoding="UTF-8" standalone="no"?>
<!DOCTYPE svg PUBLIC "-//W3C//DTD SVG 1.1//EN"
 "http://www.w3.org/Graphics/SVG/1.1/DTD/svg11.dtd">
<!-- Generated by graphviz version 5.0.0 (20220707.1540)
 -->
<!-- Title: dependencies Pages: 1 -->
<svg width="388pt" height="247pt"
 viewBox="0.00 0.00 388.00 246.80" xmlns="http://www.w3.org/2000/svg" xmlns:xlink="http://www.w3.org/1999/xlink">
<g id="graph0" class="graph" transform="scale(1 1) rotate(0) translate(4 242.8)">
<title>dependencies</title>
<polygon fill="white" stroke="transparent" points="-4,4 -4,-242.8 384,-242.8 384,4 -4,4"/>
<text text-anchor="middle" x="190" y="-8.2" font-family="sans-serif" font-size="14.00">dependencies</text>
<g id="clust1" class="cluster">
<title>cluster_SidebarModule</title>
<polygon fill="none" stroke="black" stroke-dasharray="1,5" points="8,-32.8 8,-230.8 372,-230.8 372,-32.8 8,-32.8"/>
</g>
<g id="clust5" class="cluster">
<title>cluster_SidebarModule_exports</title>
<polygon fill="none" stroke="black" points="132,-170.8 132,-222.8 276,-222.8 276,-170.8 132,-170.8"/>
</g>
<g id="clust2" class="cluster">
<title>cluster_SidebarModule_declarations</title>
<polygon fill="none" stroke="black" points="224,-40.8 224,-92.8 364,-92.8 364,-40.8 224,-40.8"/>
</g>
<g id="clust4" class="cluster">
<title>cluster_SidebarModule_imports</title>
<polygon fill="none" stroke="black" points="16,-40.8 16,-92.8 216,-92.8 216,-40.8 16,-40.8"/>
</g>
<!-- SidebarComponent -->
<g id="node1" class="node">
<title>SidebarComponent</title>
<polygon fill="#ffffb3" stroke="black" points="356.1,-84.8 231.9,-84.8 231.9,-48.8 356.1,-48.8 356.1,-84.8"/>
<text text-anchor="middle" x="294" y="-62.6" font-family="Times,serif" font-size="14.00">SidebarComponent</text>
</g>
<!-- SidebarModule -->
<g id="node2" class="node">
<title>SidebarModule</title>
<polygon fill="#8dd3c7" stroke="black" points="255.32,-149.8 252.32,-153.8 231.32,-153.8 228.32,-149.8 152.68,-149.8 152.68,-113.8 255.32,-113.8 255.32,-149.8"/>
<text text-anchor="middle" x="204" y="-127.6" font-family="Times,serif" font-size="14.00">SidebarModule</text>
</g>
<!-- SidebarComponent&#45;&gt;SidebarModule -->
<g id="edge1" class="edge">
<title>SidebarComponent&#45;&gt;SidebarModule</title>
<path fill="none" stroke="black" d="M243.56,-84.91C243.56,-84.91 243.56,-103.79 243.56,-103.79"/>
<polygon fill="black" stroke="black" points="240.06,-103.79 243.56,-113.79 247.06,-103.79 240.06,-103.79"/>
</g>
<!-- SidebarComponent  -->
<g id="node4" class="node">
<title>SidebarComponent </title>
<polygon fill="#fb8072" stroke="black" points="267.6,-214.8 140.4,-214.8 140.4,-178.8 267.6,-178.8 267.6,-214.8"/>
<text text-anchor="middle" x="204" y="-192.6" font-family="Times,serif" font-size="14.00">SidebarComponent </text>
</g>
<!-- SidebarModule&#45;&gt;SidebarComponent  -->
<g id="edge3" class="edge">
<title>SidebarModule&#45;&gt;SidebarComponent </title>
<path fill="none" stroke="black" stroke-dasharray="5,2" d="M204,-149.91C204,-149.91 204,-168.79 204,-168.79"/>
<polygon fill="black" stroke="black" points="200.5,-168.79 204,-178.79 207.5,-168.79 200.5,-168.79"/>
</g>
<!-- RequestUpdateDialogModule -->
<g id="node3" class="node">
<title>RequestUpdateDialogModule</title>
<polygon fill="#8dd3c7" stroke="black" points="207.69,-84.8 204.69,-88.8 183.69,-88.8 180.69,-84.8 24.31,-84.8 24.31,-48.8 207.69,-48.8 207.69,-84.8"/>
<text text-anchor="middle" x="116" y="-62.6" font-family="Times,serif" font-size="14.00">RequestUpdateDialogModule</text>
</g>
<!-- RequestUpdateDialogModule&#45;&gt;SidebarModule -->
<g id="edge2" class="edge">
<title>RequestUpdateDialogModule&#45;&gt;SidebarModule</title>
<path fill="none" stroke="black" d="M180.22,-84.91C180.22,-84.91 180.22,-103.79 180.22,-103.79"/>
<polygon fill="black" stroke="black" points="176.72,-103.79 180.22,-113.79 183.72,-103.79 176.72,-103.79"/>
</g>
</g>
</svg>
