<?xml version="1.0" encoding="UTF-8" standalone="no"?>
<!DOCTYPE svg PUBLIC "-//W3C//DTD SVG 1.1//EN"
 "http://www.w3.org/Graphics/SVG/1.1/DTD/svg11.dtd">
<!-- Generated by graphviz version 2.47.3 (20210619.1520)
 -->
<!-- Title: dependencies Pages: 1 -->
<svg width="1336pt" height="239pt"
 viewBox="0.00 0.00 1336.00 238.80" xmlns="http://www.w3.org/2000/svg" xmlns:xlink="http://www.w3.org/1999/xlink">
<g id="graph0" class="graph" transform="scale(1 1) rotate(0) translate(4 234.8)">
<title>dependencies</title>
<polygon fill="white" stroke="transparent" points="-4,4 -4,-234.8 1332,-234.8 1332,4 -4,4"/>
<text text-anchor="middle" x="664" y="-8.2" font-family="sans-serif" font-size="14.00">dependencies</text>
<g id="clust1" class="cluster">
<title>cluster_TripPassagesModule</title>
<polygon fill="none" stroke="black" stroke-dasharray="1,5" points="8,-32.8 8,-222.8 1320,-222.8 1320,-32.8 8,-32.8"/>
</g>
<g id="clust2" class="cluster">
<title>cluster_TripPassagesModule_declarations</title>
<polygon fill="none" stroke="black" points="16,-105.8 16,-157.8 603,-157.8 603,-105.8 16,-105.8"/>
</g>
<g id="clust9" class="cluster">
<title>cluster_TripPassagesModule_providers</title>
<polygon fill="none" stroke="black" points="1104,-105.8 1104,-157.8 1312,-157.8 1312,-105.8 1104,-105.8"/>
</g>
<g id="clust6" class="cluster">
<title>cluster_TripPassagesModule_imports</title>
<polygon fill="none" stroke="black" points="611,-105.8 611,-157.8 1096,-157.8 1096,-105.8 611,-105.8"/>
</g>
<g id="clust3" class="cluster">
<title>cluster_TripPassagesModule_TripPassagesComponent_providers</title>
<polygon fill="none" stroke="black" points="418,-40.8 418,-92.8 616,-92.8 616,-40.8 418,-40.8"/>
</g>
<!-- TripPassagesComponent -->
<g id="node1" class="node">
<title>TripPassagesComponent</title>
<polygon fill="#ffffb3" stroke="black" points="594.7,-149.8 439.3,-149.8 439.3,-113.8 594.7,-113.8 594.7,-149.8"/>
<text text-anchor="middle" x="517" y="-127.6" font-family="Times,serif" font-size="14.00">TripPassagesComponent</text>
</g>
<!-- TripPassagesModule -->
<g id="node4" class="node">
<title>TripPassagesModule</title>
<polygon fill="#8dd3c7" stroke="black" points="774.91,-214.8 771.91,-218.8 750.91,-218.8 747.91,-214.8 641.09,-214.8 641.09,-178.8 774.91,-178.8 774.91,-214.8"/>
<text text-anchor="middle" x="708" y="-192.6" font-family="Times,serif" font-size="14.00">TripPassagesModule</text>
</g>
<!-- TripPassagesComponent&#45;&gt;TripPassagesModule -->
<g id="edge1" class="edge">
<title>TripPassagesComponent&#45;&gt;TripPassagesModule</title>
<path fill="none" stroke="black" d="M517,-149.83C517,-166.2 517,-187.8 517,-187.8 517,-187.8 631.2,-187.8 631.2,-187.8"/>
<polygon fill="black" stroke="black" points="631.2,-191.3 641.2,-187.8 631.2,-184.3 631.2,-191.3"/>
</g>
<!-- TripPassagesListComponent -->
<g id="node2" class="node">
<title>TripPassagesListComponent</title>
<polygon fill="#ffffb3" stroke="black" points="421.47,-149.8 244.53,-149.8 244.53,-113.8 421.47,-113.8 421.47,-149.8"/>
<text text-anchor="middle" x="333" y="-127.6" font-family="Times,serif" font-size="14.00">TripPassagesListComponent</text>
</g>
<!-- TripPassagesListComponent&#45;&gt;TripPassagesModule -->
<g id="edge3" class="edge">
<title>TripPassagesListComponent&#45;&gt;TripPassagesModule</title>
<path fill="none" stroke="black" d="M333,-149.91C333,-169.14 333,-196.8 333,-196.8 333,-196.8 630.96,-196.8 630.96,-196.8"/>
<polygon fill="black" stroke="black" points="630.96,-200.3 640.96,-196.8 630.96,-193.3 630.96,-200.3"/>
</g>
<!-- TripPassagesListItemComponent -->
<g id="node3" class="node">
<title>TripPassagesListItemComponent</title>
<polygon fill="#ffffb3" stroke="black" points="226.13,-149.8 23.87,-149.8 23.87,-113.8 226.13,-113.8 226.13,-149.8"/>
<text text-anchor="middle" x="125" y="-127.6" font-family="Times,serif" font-size="14.00">TripPassagesListItemComponent</text>
</g>
<!-- TripPassagesListItemComponent&#45;&gt;TripPassagesModule -->
<g id="edge4" class="edge">
<title>TripPassagesListItemComponent&#45;&gt;TripPassagesModule</title>
<path fill="none" stroke="black" d="M125,-150.09C125,-172.01 125,-205.8 125,-205.8 125,-205.8 631.12,-205.8 631.12,-205.8"/>
<polygon fill="black" stroke="black" points="631.12,-209.3 641.12,-205.8 631.12,-202.3 631.12,-209.3"/>
</g>
<!-- TripPassagesService -->
<g id="node5" class="node">
<title>TripPassagesService</title>
<ellipse fill="#fdb462" stroke="black" cx="517" cy="-66.8" rx="90.88" ry="18"/>
<text text-anchor="middle" x="517" y="-62.6" font-family="Times,serif" font-size="14.00">TripPassagesService</text>
</g>
<!-- TripPassagesService&#45;&gt;TripPassagesComponent -->
<g id="edge2" class="edge">
<title>TripPassagesService&#45;&gt;TripPassagesComponent</title>
<path fill="none" stroke="black" d="M517,-84.91C517,-84.91 517,-103.79 517,-103.79"/>
<polygon fill="black" stroke="black" points="513.5,-103.79 517,-113.79 520.5,-103.79 513.5,-103.79"/>
</g>
<!-- HeaderBoxModule -->
<g id="node6" class="node">
<title>HeaderBoxModule</title>
<polygon fill="#8dd3c7" stroke="black" points="1087.8,-149.8 1084.8,-153.8 1063.8,-153.8 1060.8,-149.8 964.2,-149.8 964.2,-113.8 1087.8,-113.8 1087.8,-149.8"/>
<text text-anchor="middle" x="1026" y="-127.6" font-family="Times,serif" font-size="14.00">HeaderBoxModule</text>
</g>
<!-- HeaderBoxModule&#45;&gt;TripPassagesModule -->
<g id="edge5" class="edge">
<title>HeaderBoxModule&#45;&gt;TripPassagesModule</title>
<path fill="none" stroke="black" d="M1026,-149.91C1026,-169.14 1026,-196.8 1026,-196.8 1026,-196.8 785.05,-196.8 785.05,-196.8"/>
<polygon fill="black" stroke="black" points="785.05,-193.3 775.05,-196.8 785.05,-200.3 785.05,-193.3"/>
</g>
<!-- OlStaticMapModule -->
<g id="node7" class="node">
<title>OlStaticMapModule</title>
<polygon fill="#8dd3c7" stroke="black" points="946.59,-149.8 943.59,-153.8 922.59,-153.8 919.59,-149.8 815.41,-149.8 815.41,-113.8 946.59,-113.8 946.59,-149.8"/>
<text text-anchor="middle" x="881" y="-127.6" font-family="Times,serif" font-size="14.00">OlStaticMapModule</text>
</g>
<!-- OlStaticMapModule&#45;&gt;TripPassagesModule -->
<g id="edge6" class="edge">
<title>OlStaticMapModule&#45;&gt;TripPassagesModule</title>
<path fill="none" stroke="black" d="M881,-149.83C881,-166.2 881,-187.8 881,-187.8 881,-187.8 784.89,-187.8 784.89,-187.8"/>
<polygon fill="black" stroke="black" points="784.89,-184.3 774.89,-187.8 784.89,-191.3 784.89,-184.3"/>
</g>
<!-- TripPassagesRoutingModule -->
<g id="node8" class="node">
<title>TripPassagesRoutingModule</title>
<polygon fill="#8dd3c7" stroke="black" points="797.03,-149.8 794.03,-153.8 773.03,-153.8 770.03,-149.8 618.97,-149.8 618.97,-113.8 797.03,-113.8 797.03,-149.8"/>
<text text-anchor="middle" x="708" y="-127.6" font-family="Times,serif" font-size="14.00">TripPassagesRoutingModule</text>
</g>
<!-- TripPassagesRoutingModule&#45;&gt;TripPassagesModule -->
<g id="edge7" class="edge">
<title>TripPassagesRoutingModule&#45;&gt;TripPassagesModule</title>
<path fill="none" stroke="black" d="M708,-149.91C708,-149.91 708,-168.79 708,-168.79"/>
<polygon fill="black" stroke="black" points="704.5,-168.79 708,-178.79 711.5,-168.79 704.5,-168.79"/>
</g>
<!-- TripPassagesResolver -->
<g id="node9" class="node">
<title>TripPassagesResolver</title>
<ellipse fill="#fdb462" stroke="black" cx="1208" cy="-131.8" rx="96.12" ry="18"/>
<text text-anchor="middle" x="1208" y="-127.6" font-family="Times,serif" font-size="14.00">TripPassagesResolver</text>
</g>
<!-- TripPassagesResolver&#45;&gt;TripPassagesModule -->
<g id="edge8" class="edge">
<title>TripPassagesResolver&#45;&gt;TripPassagesModule</title>
<path fill="none" stroke="black" d="M1208,-150.09C1208,-172.01 1208,-205.8 1208,-205.8 1208,-205.8 784.91,-205.8 784.91,-205.8"/>
<polygon fill="black" stroke="black" points="784.91,-202.3 774.91,-205.8 784.91,-209.3 784.91,-202.3"/>
</g>
</g>
</svg>
