<?xml version="1.0" encoding="UTF-8" standalone="no"?>
<!DOCTYPE svg PUBLIC "-//W3C//DTD SVG 1.1//EN"
 "http://www.w3.org/Graphics/SVG/1.1/DTD/svg11.dtd">
<!-- Generated by graphviz version 2.47.3 (20210619.1520)
 -->
<!-- Title: dependencies Pages: 1 -->
<svg width="1152pt" height="239pt"
 viewBox="0.00 0.00 1152.00 238.80" xmlns="http://www.w3.org/2000/svg" xmlns:xlink="http://www.w3.org/1999/xlink">
<g id="graph0" class="graph" transform="scale(1 1) rotate(0) translate(4 234.8)">
<title>dependencies</title>
<polygon fill="white" stroke="transparent" points="-4,4 -4,-234.8 1148,-234.8 1148,4 -4,4"/>
<text text-anchor="middle" x="572" y="-8.2" font-family="sans-serif" font-size="14.00">dependencies</text>
<g id="clust1" class="cluster">
<title>cluster_TripPassagesModule</title>
<polygon fill="none" stroke="black" stroke-dasharray="1,5" points="8,-32.8 8,-222.8 1136,-222.8 1136,-32.8 8,-32.8"/>
</g>
<g id="clust6" class="cluster">
<title>cluster_TripPassagesModule_imports</title>
<polygon fill="none" stroke="black" points="643,-105.8 643,-157.8 1128,-157.8 1128,-105.8 643,-105.8"/>
</g>
<g id="clust3" class="cluster">
<title>cluster_TripPassagesModule_TripPassagesComponent_providers</title>
<polygon fill="none" stroke="black" points="437,-40.8 437,-157.8 635,-157.8 635,-40.8 437,-40.8"/>
</g>
<g id="clust2" class="cluster">
<title>cluster_TripPassagesModule_declarations</title>
<polygon fill="none" stroke="black" points="16,-105.8 16,-157.8 429,-157.8 429,-105.8 16,-105.8"/>
</g>
<!-- TripPassagesComponent -->
<g id="node1" class="node">
<title>TripPassagesComponent</title>
<polygon fill="#ffffb3" stroke="black" points="619.7,-149.8 464.3,-149.8 464.3,-113.8 619.7,-113.8 619.7,-149.8"/>
<text text-anchor="middle" x="542" y="-127.6" font-family="Times,serif" font-size="14.00">TripPassagesComponent</text>
</g>
<!-- TripPassagesModule -->
<g id="node4" class="node">
<title>TripPassagesModule</title>
<polygon fill="#8dd3c7" stroke="black" points="710.91,-214.8 707.91,-218.8 686.91,-218.8 683.91,-214.8 577.09,-214.8 577.09,-178.8 710.91,-178.8 710.91,-214.8"/>
<text text-anchor="middle" x="644" y="-192.6" font-family="Times,serif" font-size="14.00">TripPassagesModule</text>
</g>
<!-- TripPassagesComponent&#45;&gt;TripPassagesModule -->
<g id="edge1" class="edge">
<title>TripPassagesComponent&#45;&gt;TripPassagesModule</title>
<path fill="none" stroke="black" d="M598.45,-149.91C598.45,-149.91 598.45,-168.79 598.45,-168.79"/>
<polygon fill="black" stroke="black" points="594.95,-168.79 598.45,-178.79 601.95,-168.79 594.95,-168.79"/>
</g>
<!-- TripPassagesListComponent -->
<g id="node2" class="node">
<title>TripPassagesListComponent</title>
<polygon fill="#ffffb3" stroke="black" points="421.47,-149.8 244.53,-149.8 244.53,-113.8 421.47,-113.8 421.47,-149.8"/>
<text text-anchor="middle" x="333" y="-127.6" font-family="Times,serif" font-size="14.00">TripPassagesListComponent</text>
</g>
<!-- TripPassagesListComponent&#45;&gt;TripPassagesModule -->
<g id="edge3" class="edge">
<title>TripPassagesListComponent&#45;&gt;TripPassagesModule</title>
<path fill="none" stroke="black" d="M333,-149.82C333,-167.17 333,-190.8 333,-190.8 333,-190.8 567.28,-190.8 567.28,-190.8"/>
<polygon fill="black" stroke="black" points="567.28,-194.3 577.28,-190.8 567.28,-187.3 567.28,-194.3"/>
</g>
<!-- TripPassagesListItemComponent -->
<g id="node3" class="node">
<title>TripPassagesListItemComponent</title>
<polygon fill="#ffffb3" stroke="black" points="226.13,-149.8 23.87,-149.8 23.87,-113.8 226.13,-113.8 226.13,-149.8"/>
<text text-anchor="middle" x="125" y="-127.6" font-family="Times,serif" font-size="14.00">TripPassagesListItemComponent</text>
</g>
<!-- TripPassagesListItemComponent&#45;&gt;TripPassagesModule -->
<g id="edge4" class="edge">
<title>TripPassagesListItemComponent&#45;&gt;TripPassagesModule</title>
<path fill="none" stroke="black" d="M125,-150.08C125,-171.12 125,-202.8 125,-202.8 125,-202.8 567.21,-202.8 567.21,-202.8"/>
<polygon fill="black" stroke="black" points="567.21,-206.3 577.21,-202.8 567.21,-199.3 567.21,-206.3"/>
</g>
<!-- TripPassagesService -->
<g id="node5" class="node">
<title>TripPassagesService</title>
<ellipse fill="#fdb462" stroke="black" cx="536" cy="-66.8" rx="90.88" ry="18"/>
<text text-anchor="middle" x="536" y="-62.6" font-family="Times,serif" font-size="14.00">TripPassagesService</text>
</g>
<!-- TripPassagesService&#45;&gt;TripPassagesComponent -->
<g id="edge2" class="edge">
<title>TripPassagesService&#45;&gt;TripPassagesComponent</title>
<path fill="none" stroke="black" d="M542,-84.91C542,-84.91 542,-103.79 542,-103.79"/>
<polygon fill="black" stroke="black" points="538.5,-103.79 542,-113.79 545.5,-103.79 538.5,-103.79"/>
</g>
<!-- HeaderBoxModule -->
<g id="node6" class="node">
<title>HeaderBoxModule</title>
<polygon fill="#8dd3c7" stroke="black" points="1119.8,-149.8 1116.8,-153.8 1095.8,-153.8 1092.8,-149.8 996.2,-149.8 996.2,-113.8 1119.8,-113.8 1119.8,-149.8"/>
<text text-anchor="middle" x="1058" y="-127.6" font-family="Times,serif" font-size="14.00">HeaderBoxModule</text>
</g>
<!-- HeaderBoxModule&#45;&gt;TripPassagesModule -->
<g id="edge5" class="edge">
<title>HeaderBoxModule&#45;&gt;TripPassagesModule</title>
<path fill="none" stroke="black" d="M1058,-150.08C1058,-171.12 1058,-202.8 1058,-202.8 1058,-202.8 720.98,-202.8 720.98,-202.8"/>
<polygon fill="black" stroke="black" points="720.98,-199.3 710.98,-202.8 720.98,-206.3 720.98,-199.3"/>
</g>
<!-- OlStaticMapModule -->
<g id="node7" class="node">
<title>OlStaticMapModule</title>
<polygon fill="#8dd3c7" stroke="black" points="978.59,-149.8 975.59,-153.8 954.59,-153.8 951.59,-149.8 847.41,-149.8 847.41,-113.8 978.59,-113.8 978.59,-149.8"/>
<text text-anchor="middle" x="913" y="-127.6" font-family="Times,serif" font-size="14.00">OlStaticMapModule</text>
</g>
<!-- OlStaticMapModule&#45;&gt;TripPassagesModule -->
<g id="edge6" class="edge">
<title>OlStaticMapModule&#45;&gt;TripPassagesModule</title>
<path fill="none" stroke="black" d="M913,-149.82C913,-167.17 913,-190.8 913,-190.8 913,-190.8 720.84,-190.8 720.84,-190.8"/>
<polygon fill="black" stroke="black" points="720.84,-187.3 710.84,-190.8 720.84,-194.3 720.84,-187.3"/>
</g>
<!-- TripPassagesRoutingModule -->
<g id="node8" class="node">
<title>TripPassagesRoutingModule</title>
<polygon fill="#8dd3c7" stroke="black" points="829.03,-149.8 826.03,-153.8 805.03,-153.8 802.03,-149.8 650.97,-149.8 650.97,-113.8 829.03,-113.8 829.03,-149.8"/>
<text text-anchor="middle" x="740" y="-127.6" font-family="Times,serif" font-size="14.00">TripPassagesRoutingModule</text>
</g>
<!-- TripPassagesRoutingModule&#45;&gt;TripPassagesModule -->
<g id="edge7" class="edge">
<title>TripPassagesRoutingModule&#45;&gt;TripPassagesModule</title>
<path fill="none" stroke="black" d="M680.72,-149.91C680.72,-149.91 680.72,-168.79 680.72,-168.79"/>
<polygon fill="black" stroke="black" points="677.22,-168.79 680.72,-178.79 684.22,-168.79 677.22,-168.79"/>
</g>
</g>
</svg>
