<?xml version="1.0" encoding="UTF-8" standalone="no"?>
<!DOCTYPE svg PUBLIC "-//W3C//DTD SVG 1.1//EN"
 "http://www.w3.org/Graphics/SVG/1.1/DTD/svg11.dtd">
<!-- Generated by graphviz version 5.0.0 (20220707.1540)
 -->
<!-- Title: dependencies Pages: 1 -->
<svg width="1368pt" height="239pt"
 viewBox="0.00 0.00 1368.00 238.80" xmlns="http://www.w3.org/2000/svg" xmlns:xlink="http://www.w3.org/1999/xlink">
<g id="graph0" class="graph" transform="scale(1 1) rotate(0) translate(4 234.8)">
<title>dependencies</title>
<polygon fill="white" stroke="transparent" points="-4,4 -4,-234.8 1364,-234.8 1364,4 -4,4"/>
<text text-anchor="middle" x="680" y="-8.2" font-family="sans-serif" font-size="14.00">dependencies</text>
<g id="clust1" class="cluster">
<title>cluster_TripPassagesModule</title>
<polygon fill="none" stroke="black" stroke-dasharray="1,5" points="8,-32.8 8,-222.8 1352,-222.8 1352,-32.8 8,-32.8"/>
</g>
<g id="clust9" class="cluster">
<title>cluster_TripPassagesModule_providers</title>
<polygon fill="none" stroke="black" points="1136,-105.8 1136,-157.8 1344,-157.8 1344,-105.8 1136,-105.8"/>
</g>
<g id="clust3" class="cluster">
<title>cluster_TripPassagesModule_TripPassagesComponent_providers</title>
<polygon fill="none" stroke="black" points="930,-40.8 930,-157.8 1128,-157.8 1128,-40.8 930,-40.8"/>
</g>
<g id="clust2" class="cluster">
<title>cluster_TripPassagesModule_declarations</title>
<polygon fill="none" stroke="black" points="509,-105.8 509,-157.8 922,-157.8 922,-105.8 509,-105.8"/>
</g>
<g id="clust6" class="cluster">
<title>cluster_TripPassagesModule_imports</title>
<polygon fill="none" stroke="black" points="16,-105.8 16,-157.8 501,-157.8 501,-105.8 16,-105.8"/>
</g>
<!-- TripPassagesComponent -->
<g id="node1" class="node">
<title>TripPassagesComponent</title>
<polygon fill="#ffffb3" stroke="black" points="1099.71,-149.8 944.29,-149.8 944.29,-113.8 1099.71,-113.8 1099.71,-149.8"/>
<text text-anchor="middle" x="1022" y="-127.6" font-family="Times,serif" font-size="14.00">TripPassagesComponent</text>
</g>
<!-- TripPassagesModule -->
<g id="node4" class="node">
<title>TripPassagesModule</title>
<polygon fill="#8dd3c7" stroke="black" points="684.93,-214.8 681.93,-218.8 660.93,-218.8 657.93,-214.8 551.07,-214.8 551.07,-178.8 684.93,-178.8 684.93,-214.8"/>
<text text-anchor="middle" x="618" y="-192.6" font-family="Times,serif" font-size="14.00">TripPassagesModule</text>
</g>
<!-- TripPassagesComponent&#45;&gt;TripPassagesModule -->
<g id="edge1" class="edge">
<title>TripPassagesComponent&#45;&gt;TripPassagesModule</title>
<path fill="none" stroke="black" d="M1022,-149.91C1022,-169.14 1022,-196.8 1022,-196.8 1022,-196.8 695.17,-196.8 695.17,-196.8"/>
<polygon fill="black" stroke="black" points="695.17,-193.3 685.17,-196.8 695.17,-200.3 695.17,-193.3"/>
</g>
<!-- TripPassagesListComponent -->
<g id="node2" class="node">
<title>TripPassagesListComponent</title>
<polygon fill="#ffffb3" stroke="black" points="914.49,-149.8 737.51,-149.8 737.51,-113.8 914.49,-113.8 914.49,-149.8"/>
<text text-anchor="middle" x="826" y="-127.6" font-family="Times,serif" font-size="14.00">TripPassagesListComponent</text>
</g>
<!-- TripPassagesListComponent&#45;&gt;TripPassagesModule -->
<g id="edge3" class="edge">
<title>TripPassagesListComponent&#45;&gt;TripPassagesModule</title>
<path fill="none" stroke="black" d="M826,-149.83C826,-166.2 826,-187.8 826,-187.8 826,-187.8 694.96,-187.8 694.96,-187.8"/>
<polygon fill="black" stroke="black" points="694.96,-184.3 684.96,-187.8 694.96,-191.3 694.96,-184.3"/>
</g>
<!-- TripPassagesListItemComponent -->
<g id="node3" class="node">
<title>TripPassagesListItemComponent</title>
<polygon fill="#ffffb3" stroke="black" points="719.14,-149.8 516.86,-149.8 516.86,-113.8 719.14,-113.8 719.14,-149.8"/>
<text text-anchor="middle" x="618" y="-127.6" font-family="Times,serif" font-size="14.00">TripPassagesListItemComponent</text>
</g>
<!-- TripPassagesListItemComponent&#45;&gt;TripPassagesModule -->
<g id="edge4" class="edge">
<title>TripPassagesListItemComponent&#45;&gt;TripPassagesModule</title>
<path fill="none" stroke="black" d="M618,-149.91C618,-149.91 618,-168.79 618,-168.79"/>
<polygon fill="black" stroke="black" points="614.5,-168.79 618,-178.79 621.5,-168.79 614.5,-168.79"/>
</g>
<!-- TripPassagesService -->
<g id="node5" class="node">
<title>TripPassagesService</title>
<ellipse fill="#fdb462" stroke="black" cx="1029" cy="-66.8" rx="90.9" ry="18"/>
<text text-anchor="middle" x="1029" y="-62.6" font-family="Times,serif" font-size="14.00">TripPassagesService</text>
</g>
<!-- TripPassagesService&#45;&gt;TripPassagesComponent -->
<g id="edge2" class="edge">
<title>TripPassagesService&#45;&gt;TripPassagesComponent</title>
<path fill="none" stroke="black" d="M1022,-84.91C1022,-84.91 1022,-103.79 1022,-103.79"/>
<polygon fill="black" stroke="black" points="1018.5,-103.79 1022,-113.79 1025.5,-103.79 1018.5,-103.79"/>
</g>
<!-- HeaderBoxModule -->
<g id="node6" class="node">
<title>HeaderBoxModule</title>
<polygon fill="#8dd3c7" stroke="black" points="492.8,-149.8 489.8,-153.8 468.8,-153.8 465.8,-149.8 369.2,-149.8 369.2,-113.8 492.8,-113.8 492.8,-149.8"/>
<text text-anchor="middle" x="431" y="-127.6" font-family="Times,serif" font-size="14.00">HeaderBoxModule</text>
</g>
<!-- HeaderBoxModule&#45;&gt;TripPassagesModule -->
<g id="edge5" class="edge">
<title>HeaderBoxModule&#45;&gt;TripPassagesModule</title>
<path fill="none" stroke="black" d="M431,-149.83C431,-166.2 431,-187.8 431,-187.8 431,-187.8 541.28,-187.8 541.28,-187.8"/>
<polygon fill="black" stroke="black" points="541.28,-191.3 551.28,-187.8 541.28,-184.3 541.28,-191.3"/>
</g>
<!-- OlStaticMapModule -->
<g id="node7" class="node">
<title>OlStaticMapModule</title>
<polygon fill="#8dd3c7" stroke="black" points="351.6,-149.8 348.6,-153.8 327.6,-153.8 324.6,-149.8 220.4,-149.8 220.4,-113.8 351.6,-113.8 351.6,-149.8"/>
<text text-anchor="middle" x="286" y="-127.6" font-family="Times,serif" font-size="14.00">OlStaticMapModule</text>
</g>
<!-- OlStaticMapModule&#45;&gt;TripPassagesModule -->
<g id="edge6" class="edge">
<title>OlStaticMapModule&#45;&gt;TripPassagesModule</title>
<path fill="none" stroke="black" d="M286,-149.91C286,-169.14 286,-196.8 286,-196.8 286,-196.8 541.21,-196.8 541.21,-196.8"/>
<polygon fill="black" stroke="black" points="541.21,-200.3 551.21,-196.8 541.21,-193.3 541.21,-200.3"/>
</g>
<!-- TripPassagesRoutingModule -->
<g id="node8" class="node">
<title>TripPassagesRoutingModule</title>
<polygon fill="#8dd3c7" stroke="black" points="202.05,-149.8 199.05,-153.8 178.05,-153.8 175.05,-149.8 23.95,-149.8 23.95,-113.8 202.05,-113.8 202.05,-149.8"/>
<text text-anchor="middle" x="113" y="-127.6" font-family="Times,serif" font-size="14.00">TripPassagesRoutingModule</text>
</g>
<!-- TripPassagesRoutingModule&#45;&gt;TripPassagesModule -->
<g id="edge7" class="edge">
<title>TripPassagesRoutingModule&#45;&gt;TripPassagesModule</title>
<path fill="none" stroke="black" d="M113,-150.09C113,-172.01 113,-205.8 113,-205.8 113,-205.8 541.2,-205.8 541.2,-205.8"/>
<polygon fill="black" stroke="black" points="541.2,-209.3 551.2,-205.8 541.2,-202.3 541.2,-209.3"/>
</g>
<!-- TripPassagesResolver -->
<g id="node9" class="node">
<title>TripPassagesResolver</title>
<ellipse fill="#fdb462" stroke="black" cx="1240" cy="-131.8" rx="96.14" ry="18"/>
<text text-anchor="middle" x="1240" y="-127.6" font-family="Times,serif" font-size="14.00">TripPassagesResolver</text>
</g>
<!-- TripPassagesResolver&#45;&gt;TripPassagesModule -->
<g id="edge8" class="edge">
<title>TripPassagesResolver&#45;&gt;TripPassagesModule</title>
<path fill="none" stroke="black" d="M1240,-150.09C1240,-172.01 1240,-205.8 1240,-205.8 1240,-205.8 694.86,-205.8 694.86,-205.8"/>
<polygon fill="black" stroke="black" points="694.86,-202.3 684.86,-205.8 694.86,-209.3 694.86,-202.3"/>
</g>
</g>
</svg>
